<svg xmlns="http://www.w3.org/2000/svg" xmlns:xlink="http://www.w3.org/1999/xlink" viewBox="0 0 179.25 92.36"><defs><style>.cls-1,.cls-3{fill:#fff;}.cls-1,.cls-5{stroke:#675d56;stroke-miterlimit:10;stroke-width:0.25px;}.cls-2{isolation:isolate;}.cls-4{clip-path:url(#clip-path);}.cls-5{fill:none;}.cls-6{clip-path:url(#clip-path-2);}.cls-7{clip-path:url(#clip-path-3);}.cls-8{clip-path:url(#clip-path-4);}.cls-9{clip-path:url(#clip-path-5);}.cls-10{clip-path:url(#clip-path-6);}.cls-11{clip-path:url(#clip-path-7);}.cls-12{clip-path:url(#clip-path-8);}.cls-13{clip-path:url(#clip-path-9);}.cls-14{clip-path:url(#clip-path-10);}.cls-15{clip-path:url(#clip-path-11);}.cls-16{clip-path:url(#clip-path-12);}.cls-17{clip-path:url(#clip-path-13);}.cls-18{clip-path:url(#clip-path-14);}.cls-19{clip-path:url(#clip-path-15);}.cls-20{clip-path:url(#clip-path-16);}.cls-21{clip-path:url(#clip-path-17);}.cls-22{clip-path:url(#clip-path-18);}.cls-23{clip-path:url(#clip-path-19);}.cls-24{clip-path:url(#clip-path-20);}.cls-25{clip-path:url(#clip-path-21);}.cls-26{clip-path:url(#clip-path-22);}.cls-27{clip-path:url(#clip-path-23);}.cls-28{clip-path:url(#clip-path-24);}.cls-29{clip-path:url(#clip-path-25);}.cls-30{clip-path:url(#clip-path-26);}.cls-31{clip-path:url(#clip-path-27);}.cls-32{clip-path:url(#clip-path-28);}.cls-33{clip-path:url(#clip-path-29);}.cls-34{clip-path:url(#clip-path-30);}.cls-35{clip-path:url(#clip-path-31);}.cls-36{clip-path:url(#clip-path-32);}.cls-37{clip-path:url(#clip-path-33);}.cls-38{clip-path:url(#clip-path-34);}.cls-39{clip-path:url(#clip-path-35);}.cls-40{clip-path:url(#clip-path-36);}.cls-41{clip-path:url(#clip-path-37);}.cls-42{clip-path:url(#clip-path-38);}.cls-43{clip-path:url(#clip-path-39);}.cls-44{clip-path:url(#clip-path-40);}.cls-45{clip-path:url(#clip-path-41);}.cls-46{clip-path:url(#clip-path-42);}.cls-47{clip-path:url(#clip-path-43);}.cls-48{clip-path:url(#clip-path-44);}.cls-49{clip-path:url(#clip-path-45);}.cls-50{clip-path:url(#clip-path-46);}.cls-51{clip-path:url(#clip-path-47);}.cls-52{clip-path:url(#clip-path-48);}.cls-53{clip-path:url(#clip-path-49);}.cls-54{clip-path:url(#clip-path-50);}.cls-55{clip-path:url(#clip-path-51);}.cls-56{clip-path:url(#clip-path-52);}.cls-57{clip-path:url(#clip-path-53);}.cls-58{clip-path:url(#clip-path-54);}.cls-59{clip-path:url(#clip-path-55);}.cls-60{clip-path:url(#clip-path-56);}.cls-61{clip-path:url(#clip-path-57);}.cls-62{clip-path:url(#clip-path-58);}.cls-63{clip-path:url(#clip-path-59);}.cls-64{clip-path:url(#clip-path-60);}.cls-65{clip-path:url(#clip-path-61);}.cls-66{clip-path:url(#clip-path-62);}.cls-67{clip-path:url(#clip-path-63);}.cls-68{clip-path:url(#clip-path-64);}.cls-69{clip-path:url(#clip-path-65);}.cls-70{clip-path:url(#clip-path-66);}.cls-71{clip-path:url(#clip-path-67);}.cls-72{clip-path:url(#clip-path-68);}.cls-73{clip-path:url(#clip-path-69);}.cls-74{clip-path:url(#clip-path-70);}.cls-75{clip-path:url(#clip-path-71);}.cls-76{clip-path:url(#clip-path-72);}.cls-77{clip-path:url(#clip-path-73);}.cls-78{clip-path:url(#clip-path-74);}.cls-79{clip-path:url(#clip-path-75);}.cls-80{clip-path:url(#clip-path-76);}.cls-81{clip-path:url(#clip-path-77);}.cls-82{clip-path:url(#clip-path-78);}.cls-83{clip-path:url(#clip-path-79);}.cls-84{clip-path:url(#clip-path-80);}.cls-85{clip-path:url(#clip-path-81);}.cls-86{clip-path:url(#clip-path-82);}.cls-87{clip-path:url(#clip-path-83);}.cls-88{clip-path:url(#clip-path-84);}.cls-89{clip-path:url(#clip-path-85);}.cls-90{clip-path:url(#clip-path-86);}.cls-91{clip-path:url(#clip-path-87);}.cls-92{clip-path:url(#clip-path-88);}.cls-93{clip-path:url(#clip-path-89);}.cls-94{clip-path:url(#clip-path-90);}.cls-95{clip-path:url(#clip-path-91);}.cls-96{clip-path:url(#clip-path-92);}.cls-97{clip-path:url(#clip-path-93);}.cls-98{clip-path:url(#clip-path-94);}.cls-99{clip-path:url(#clip-path-95);}.cls-100{clip-path:url(#clip-path-96);}.cls-101{clip-path:url(#clip-path-97);}.cls-102{clip-path:url(#clip-path-98);}.cls-103{clip-path:url(#clip-path-99);}.cls-104{clip-path:url(#clip-path-100);}.cls-105{clip-path:url(#clip-path-101);}.cls-106{clip-path:url(#clip-path-102);}.cls-107{clip-path:url(#clip-path-103);}.cls-108{clip-path:url(#clip-path-104);}.cls-109{clip-path:url(#clip-path-105);}.cls-110{clip-path:url(#clip-path-106);}.cls-111{clip-path:url(#clip-path-107);}.cls-112{clip-path:url(#clip-path-108);}.cls-113{clip-path:url(#clip-path-109);}.cls-114{clip-path:url(#clip-path-110);}.cls-115{clip-path:url(#clip-path-111);}.cls-116{clip-path:url(#clip-path-112);}.cls-117{clip-path:url(#clip-path-113);}.cls-118{clip-path:url(#clip-path-114);}.cls-119{clip-path:url(#clip-path-115);}.cls-120{clip-path:url(#clip-path-116);}.cls-121{clip-path:url(#clip-path-117);}</style><clipPath id="clip-path"><path class="cls-1" d="M175,4.25a.56.56,0,0,1,.14.62l-.66-.62a.36.36,0,0,1,.21-.11A.35.35,0,0,1,175,4.25Z"/></clipPath><clipPath id="clip-path-2"><path class="cls-1" d="M178.84,3.71a.56.56,0,0,1,.13.62l-.66-.62a.35.35,0,0,1,.21-.12A.37.37,0,0,1,178.84,3.71Z"/></clipPath><clipPath id="clip-path-3"><path class="cls-1" d="M178.84,3.71a.56.56,0,0,1,.13.62l-3.87.54a.56.56,0,0,0-.14-.62Z"/></clipPath><clipPath id="clip-path-4"><polygon class="cls-1" points="178.97 4.33 175.1 4.87 174.44 4.25 178.31 3.71 178.97 4.33"/></clipPath><clipPath id="clip-path-5"><path class="cls-1" d="M178.31,3.71l-3.87.54a.36.36,0,0,1,.21-.11l3.87-.55A.35.35,0,0,0,178.31,3.71Z"/></clipPath><clipPath id="clip-path-6"><path class="cls-1" d="M178.52,3.59a.37.37,0,0,1,.32.12L175,4.25a.35.35,0,0,0-.31-.11Z"/></clipPath><clipPath id="clip-path-7"><path class="cls-1" d="M129.86,91.86a.56.56,0,0,1-.26-.52l.74.41a.39.39,0,0,1-.25.15A.38.38,0,0,1,129.86,91.86Z"/></clipPath><clipPath id="clip-path-8"><path class="cls-1" d="M133.74,91.31a.54.54,0,0,1-.26-.52l.74.41a.37.37,0,0,1-.26.15A.29.29,0,0,1,133.74,91.31Z"/></clipPath><clipPath id="clip-path-9"><path class="cls-1" d="M133.74,91.31l-3.88.55a.56.56,0,0,1-.26-.52l3.88-.55A.54.54,0,0,0,133.74,91.31Z"/></clipPath><clipPath id="clip-path-10"><polygon class="cls-1" points="133.48 90.8 134.22 91.2 130.34 91.75 129.6 91.34 133.48 90.8"/></clipPath><clipPath id="clip-path-11"><path class="cls-1" d="M134.22,91.2a.37.37,0,0,1-.26.15l-3.87.55a.39.39,0,0,0,.25-.15Z"/></clipPath><clipPath id="clip-path-12"><path class="cls-1" d="M134,91.35l-3.87.55a.38.38,0,0,1-.23,0l3.88-.55A.29.29,0,0,0,134,91.35Z"/></clipPath><clipPath id="clip-path-13"><path class="cls-1" d="M110.17,13.77a.42.42,0,0,1,.23-.13.4.4,0,0,1,.29.09l-.57.67A.57.57,0,0,1,110.17,13.77Z"/></clipPath><clipPath id="clip-path-14"><path class="cls-1" d="M114.05,13.23a.32.32,0,0,1,.23-.13.34.34,0,0,1,.29.09l-.57.66A.56.56,0,0,1,114.05,13.23Z"/></clipPath><clipPath id="clip-path-15"><path class="cls-1" d="M114.05,13.23l-3.88.54a.42.42,0,0,1,.23-.13l3.88-.54A.32.32,0,0,0,114.05,13.23Z"/></clipPath><clipPath id="clip-path-16"><path class="cls-1" d="M114.28,13.1a.34.34,0,0,1,.29.09l-3.88.54a.4.4,0,0,0-.29-.09Z"/></clipPath><clipPath id="clip-path-17"><polygon class="cls-1" points="114.57 13.19 114 13.85 110.13 14.4 110.69 13.73 114.57 13.19"/></clipPath><clipPath id="clip-path-18"><path class="cls-1" d="M114,13.85l-3.88.55a.57.57,0,0,1,0-.63l3.88-.54A.56.56,0,0,0,114,13.85Z"/></clipPath><clipPath id="clip-path-19"><path class="cls-1" d="M71.29,92.09a.58.58,0,0,1-.25-.55l.75.43a.44.44,0,0,1-.27.17A.4.4,0,0,1,71.29,92.09Z"/></clipPath><clipPath id="clip-path-20"><path class="cls-1" d="M75.17,91.55a.55.55,0,0,1-.25-.55l.74.42a.35.35,0,0,1-.26.17A.37.37,0,0,1,75.17,91.55Z"/></clipPath><clipPath id="clip-path-21"><path class="cls-1" d="M75.17,91.55l-3.88.54a.58.58,0,0,1-.25-.55L74.92,91A.55.55,0,0,0,75.17,91.55Z"/></clipPath><clipPath id="clip-path-22"><polygon class="cls-1" points="74.92 91 75.66 91.42 71.79 91.97 71.04 91.54 74.92 91"/></clipPath><clipPath id="clip-path-23"><path class="cls-1" d="M75.66,91.42a.35.35,0,0,1-.26.17l-3.88.55a.44.44,0,0,0,.27-.17Z"/></clipPath><clipPath id="clip-path-24"><path class="cls-1" d="M75.4,91.59l-3.88.55a.4.4,0,0,1-.23,0l3.88-.54A.37.37,0,0,0,75.4,91.59Z"/></clipPath><clipPath id="clip-path-25"><path class="cls-1" d="M95.24,35.34a.39.39,0,0,1,.15,0,.5.5,0,0,1,.34.41L95,35.54A.43.43,0,0,1,95.24,35.34Z"/></clipPath><clipPath id="clip-path-26"><path class="cls-1" d="M99.12,34.8a.38.38,0,0,1,.15,0,.51.51,0,0,1,.33.42L98.84,35A.4.4,0,0,1,99.12,34.8Z"/></clipPath><clipPath id="clip-path-27"><path class="cls-1" d="M99.12,34.8a.38.38,0,0,1,.15,0,.51.51,0,0,1,.33.42l-3.87.54a.5.5,0,0,0-.34-.41.39.39,0,0,0-.15,0Z"/></clipPath><clipPath id="clip-path-28"><polygon class="cls-1" points="99.6 35.23 95.73 35.77 94.97 35.55 98.84 35 99.6 35.23"/></clipPath><clipPath id="clip-path-29"><path class="cls-1" d="M98.84,35,95,35.54a.43.43,0,0,1,.28-.2l3.88-.54A.4.4,0,0,0,98.84,35Z"/></clipPath><clipPath id="clip-path-30"><path class="cls-1" d="M175.1,4.87,130.74,92l-1.14-.62,5.27-28-48.32.21L72.17,92.19,71,91.54,77.4,63.13l-61,.25L.3.89,35.86,30.36,67.28,4.46,63.66,28.32,81.13,44.16,86.51,30.8l-13-9,21.84-.08L107.3,4.79l-1.54,21.07.85,18.31,23.07-.09L109.83,14.74l.86-1,21.85,21.21,9.6,9.8L152.43,32,174.1,3.94Zm-43,80.54,37.27-72.35L153.67,33.42l-11.36,14-10.81-11L116.34,21.28l16.77,24.78L105,46.17l-.94-20.53L105.16,11,96.23,23.73l-16.59.06,9,6.27L81.8,47.2l-20-18.1L64.9,8.9l-29,23.89L3.26,5.71,17.62,61.38l62-.24L74,84.51l11.53-23L137,61.33l-4.91,24.08"/></clipPath><clipPath id="clip-path-31"><path class="cls-1" d="M179,4.33,134.61,91.42l-1.13-.63,5.27-28L90.43,63,76.05,91.64,74.92,91l6.36-28.41-61,.24L4.17.34,39.74,29.82,71.15,3.92,67.54,27.77,85,43.61l5.37-13.36-13-9,21.85-.08,11.9-16.95-1.54,21.06.85,18.31,23.08-.09L113.71,14.2l.86-1L136.42,34.4,146,44.2l10.3-12.73L178,3.39ZM136,84.86l37.26-72.34-15.7,20.35L146.19,46.93l-10.81-11L120.22,20.73,137,45.51l-28.07.11L108,25.1,109,10.46l-8.93,12.73-16.59.06,9,6.27L85.68,46.65l-20-18.09,3.06-20.2-29,23.88L7.13,5.16,21.5,60.84l62-.25L77.91,84,89.45,61l51.44-.2L136,84.86"/></clipPath><clipPath id="clip-path-32"><polygon class="cls-1" points="178.97 4.33 134.61 91.42 130.74 91.96 175.1 4.87 178.97 4.33"/></clipPath><clipPath id="clip-path-33"><polygon class="cls-1" points="134.61 91.42 130.74 91.96 129.6 91.34 133.48 90.8 134.61 91.42"/></clipPath><clipPath id="clip-path-34"><polygon class="cls-1" points="133.48 90.8 129.6 91.34 134.87 63.33 138.75 62.79 133.48 90.8"/></clipPath><clipPath id="clip-path-35"><polygon class="cls-1" points="138.75 62.79 134.87 63.33 86.55 63.54 90.43 62.99 138.75 62.79"/></clipPath><clipPath id="clip-path-36"><polygon class="cls-1" points="90.43 62.99 76.05 91.64 72.17 92.19 86.55 63.54 90.43 62.99"/></clipPath><clipPath id="clip-path-37"><polygon class="cls-1" points="76.05 91.64 72.17 92.19 71.04 91.54 74.92 91 76.05 91.64"/></clipPath><clipPath id="clip-path-38"><polygon class="cls-1" points="74.92 91 71.04 91.54 77.4 63.13 81.28 62.59 74.92 91"/></clipPath><clipPath id="clip-path-39"><polygon class="cls-1" points="81.28 62.59 77.4 63.13 16.42 63.38 20.3 62.83 81.28 62.59"/></clipPath><clipPath id="clip-path-40"><polygon class="cls-1" points="20.3 62.83 16.42 63.38 0.3 0.89 4.17 0.34 20.3 62.83"/></clipPath><clipPath id="clip-path-41"><polygon class="cls-1" points="4.17 0.34 39.74 29.82 35.86 30.36 0.3 0.89 4.17 0.34"/></clipPath><clipPath id="clip-path-42"><polygon class="cls-1" points="39.74 29.82 35.86 30.36 67.28 4.46 71.16 3.92 39.74 29.82"/></clipPath><clipPath id="clip-path-43"><polygon class="cls-1" points="71.16 3.92 67.54 27.77 63.66 28.32 67.28 4.46 71.16 3.92"/></clipPath><clipPath id="clip-path-44"><polygon class="cls-1" points="67.54 27.77 85.01 43.61 81.13 44.16 63.66 28.32 67.54 27.77"/></clipPath><clipPath id="clip-path-45"><polygon class="cls-1" points="85.01 43.61 81.13 44.16 86.51 30.8 90.39 30.25 85.01 43.61"/></clipPath><clipPath id="clip-path-46"><polygon class="cls-1" points="90.39 30.25 86.51 30.8 73.55 21.82 77.42 21.28 90.39 30.25"/></clipPath><clipPath id="clip-path-47"><polygon class="cls-1" points="77.42 21.28 99.27 21.2 95.39 21.74 73.55 21.82 77.42 21.28"/></clipPath><clipPath id="clip-path-48"><polygon class="cls-1" points="99.27 21.2 95.39 21.74 107.3 4.79 111.17 4.25 99.27 21.2"/></clipPath><clipPath id="clip-path-49"><polygon class="cls-1" points="111.17 4.25 109.64 25.31 105.76 25.86 107.3 4.79 111.17 4.25"/></clipPath><clipPath id="clip-path-50"><polygon class="cls-1" points="109.64 25.31 110.48 43.62 106.61 44.17 105.76 25.86 109.64 25.31"/></clipPath><clipPath id="clip-path-51"><polygon class="cls-1" points="110.48 43.62 133.56 43.53 129.68 44.08 106.61 44.17 110.48 43.62"/></clipPath><clipPath id="clip-path-52"><polygon class="cls-1" points="133.56 43.53 129.68 44.08 109.83 14.74 113.71 14.2 133.56 43.53"/></clipPath><clipPath id="clip-path-53"><polygon class="cls-1" points="113.71 14.2 109.83 14.74 110.69 13.73 114.57 13.19 113.71 14.2"/></clipPath><clipPath id="clip-path-54"><polygon class="cls-1" points="114.57 13.19 136.42 34.4 132.54 34.94 110.69 13.73 114.57 13.19"/></clipPath><clipPath id="clip-path-55"><polygon class="cls-1" points="136.42 34.4 146.01 44.2 142.14 44.74 132.54 34.94 136.42 34.4"/></clipPath><clipPath id="clip-path-56"><polygon class="cls-1" points="146.01 44.2 142.14 44.74 152.43 32.01 156.31 31.46 146.01 44.2"/></clipPath><clipPath id="clip-path-57"><polygon class="cls-1" points="156.31 31.46 152.43 32.01 174.1 3.94 177.97 3.39 156.31 31.46"/></clipPath><clipPath id="clip-path-58"><polygon class="cls-1" points="177.97 3.39 178.97 4.33 175.1 4.87 174.1 3.94 177.97 3.39"/></clipPath><clipPath id="clip-path-59"><polygon class="cls-1" points="135.99 84.86 132.11 85.41 169.38 13.06 173.25 12.52 135.99 84.86"/></clipPath><clipPath id="clip-path-60"><polygon class="cls-1" points="173.25 12.52 157.55 32.87 153.67 33.42 169.38 13.06 173.25 12.52"/></clipPath><clipPath id="clip-path-61"><polygon class="cls-1" points="157.55 32.87 146.19 46.93 142.31 47.47 153.67 33.42 157.55 32.87"/></clipPath><clipPath id="clip-path-62"><polygon class="cls-1" points="146.19 46.93 142.31 47.47 131.5 36.43 135.38 35.89 146.19 46.93"/></clipPath><clipPath id="clip-path-63"><polygon class="cls-1" points="135.38 35.89 131.5 36.43 116.34 21.28 120.22 20.73 135.38 35.89"/></clipPath><clipPath id="clip-path-64"><polygon class="cls-1" points="120.22 20.73 136.98 45.52 133.11 46.06 116.34 21.28 120.22 20.73"/></clipPath><clipPath id="clip-path-65"><polygon class="cls-1" points="136.98 45.52 133.11 46.06 105.03 46.17 108.91 45.63 136.98 45.52"/></clipPath><clipPath id="clip-path-66"><polygon class="cls-1" points="108.91 45.63 105.03 46.17 104.09 25.64 107.97 25.1 108.91 45.63"/></clipPath><clipPath id="clip-path-67"><polygon class="cls-1" points="107.97 25.1 104.09 25.64 105.16 11.01 109.04 10.46 107.97 25.1"/></clipPath><clipPath id="clip-path-68"><polygon class="cls-1" points="109.04 10.46 100.11 23.19 96.23 23.73 105.16 11.01 109.04 10.46"/></clipPath><clipPath id="clip-path-69"><polygon class="cls-1" points="100.11 23.19 96.23 23.73 79.64 23.79 83.52 23.25 100.11 23.19"/></clipPath><clipPath id="clip-path-70"><polygon class="cls-1" points="83.52 23.25 92.56 29.52 88.69 30.06 79.64 23.79 83.52 23.25"/></clipPath><clipPath id="clip-path-71"><polygon class="cls-1" points="92.56 29.52 85.67 46.66 81.8 47.2 88.69 30.06 92.56 29.52"/></clipPath><clipPath id="clip-path-72"><polygon class="cls-1" points="85.67 46.66 81.8 47.2 61.84 29.1 65.71 28.56 85.67 46.66"/></clipPath><clipPath id="clip-path-73"><polygon class="cls-1" points="65.71 28.56 61.84 29.1 64.9 8.9 68.77 8.36 65.71 28.56"/></clipPath><clipPath id="clip-path-74"><polygon class="cls-1" points="68.77 8.36 39.81 32.24 35.93 32.79 64.9 8.9 68.77 8.36"/></clipPath><clipPath id="clip-path-75"><polygon class="cls-1" points="39.81 32.24 35.93 32.79 3.26 5.71 7.13 5.16 39.81 32.24"/></clipPath><clipPath id="clip-path-76"><polygon class="cls-1" points="7.13 5.16 21.5 60.84 17.62 61.38 3.26 5.71 7.13 5.16"/></clipPath><clipPath id="clip-path-77"><polygon class="cls-1" points="21.5 60.84 83.51 60.59 79.64 61.14 17.62 61.38 21.5 60.84"/></clipPath><clipPath id="clip-path-78"><polygon class="cls-1" points="83.51 60.59 77.91 83.96 74.04 84.51 79.64 61.14 83.51 60.59"/></clipPath><clipPath id="clip-path-79"><polygon class="cls-1" points="77.91 83.96 74.04 84.51 85.57 61.54 89.45 60.99 77.91 83.96"/></clipPath><clipPath id="clip-path-80"><polygon class="cls-1" points="89.45 60.99 140.89 60.79 137.02 61.33 85.57 61.54 89.45 60.99"/></clipPath><clipPath id="clip-path-81"><polygon class="cls-1" points="140.89 60.79 135.99 84.86 132.11 85.41 137.02 61.33 140.89 60.79"/></clipPath><clipPath id="clip-path-82"><path class="cls-1" d="M36.73,46.22,49.59,35l1,21.78-26.84.1L14.6,25.69Zm12.11,8.56-.74-16-11.33,9.9L18,31.29l6.94,23.58,23.93-.09"/></clipPath><clipPath id="clip-path-83"><path class="cls-1" d="M40.61,45.67,53.47,34.44l1,21.78-26.84.1L18.47,25.14Zm12.1,8.56L52,38.28,40.65,48.17,21.85,30.74l6.93,23.58,23.93-.09"/></clipPath><clipPath id="clip-path-84"><polygon class="cls-1" points="40.61 45.67 36.73 46.22 49.59 34.98 53.47 34.44 40.61 45.67"/></clipPath><clipPath id="clip-path-85"><polygon class="cls-1" points="53.47 34.44 54.47 56.22 50.59 56.77 49.59 34.98 53.47 34.44"/></clipPath><clipPath id="clip-path-86"><polygon class="cls-1" points="54.47 56.22 50.59 56.77 23.75 56.87 27.63 56.32 54.47 56.22"/></clipPath><clipPath id="clip-path-87"><polygon class="cls-1" points="27.63 56.32 23.75 56.87 14.6 25.69 18.47 25.14 27.63 56.32"/></clipPath><clipPath id="clip-path-88"><polygon class="cls-1" points="18.47 25.14 40.61 45.67 36.73 46.22 14.6 25.69 18.47 25.14"/></clipPath><clipPath id="clip-path-89"><polygon class="cls-1" points="52.71 54.23 48.84 54.78 48.1 38.82 51.98 38.28 52.71 54.23"/></clipPath><clipPath id="clip-path-90"><polygon class="cls-1" points="51.98 38.28 40.65 48.17 36.77 48.72 48.1 38.82 51.98 38.28"/></clipPath><clipPath id="clip-path-91"><polygon class="cls-1" points="40.65 48.17 36.77 48.72 17.97 31.29 21.85 30.74 40.65 48.17"/></clipPath><clipPath id="clip-path-92"><polygon class="cls-1" points="21.85 30.74 28.78 54.32 24.91 54.87 17.97 31.29 21.85 30.74"/></clipPath><clipPath id="clip-path-93"><polygon class="cls-1" points="28.78 54.32 52.71 54.23 48.84 54.78 24.91 54.87 28.78 54.32"/></clipPath><clipPath id="clip-path-94"><path class="cls-1" d="M58.52,35.58l23.2,21.06-22,.08Zm1.9,4.16.87,15,15.57-.07L60.42,39.74"/></clipPath><clipPath id="clip-path-95"><path class="cls-1" d="M62.39,35l23.2,21.06-22,.09ZM64.3,39.2l.87,15,15.56-.07L64.3,39.2"/></clipPath><clipPath id="clip-path-96"><polygon class="cls-1" points="62.39 35.03 85.59 56.09 81.72 56.64 58.52 35.58 62.39 35.03"/></clipPath><clipPath id="clip-path-97"><polygon class="cls-1" points="85.59 56.09 81.72 56.64 59.74 56.73 63.62 56.18 85.59 56.09"/></clipPath><clipPath id="clip-path-98"><polygon class="cls-1" points="63.62 56.18 59.74 56.73 58.52 35.58 62.39 35.03 63.62 56.18"/></clipPath><clipPath id="clip-path-99"><polygon class="cls-1" points="64.3 39.2 65.17 54.18 61.29 54.73 60.42 39.74 64.3 39.2"/></clipPath><clipPath id="clip-path-100"><polygon class="cls-1" points="65.17 54.18 80.73 54.11 76.86 54.66 61.29 54.73 65.17 54.18"/></clipPath><clipPath id="clip-path-101"><polygon class="cls-1" points="80.73 54.11 76.86 54.66 60.42 39.74 64.3 39.2 80.73 54.11"/></clipPath><clipPath id="clip-path-102"><path class="cls-1" d="M96.14,50.64l47.5.27-7.07,7.21h-.3l-49.47.19,7.74-22.9.42.13.77.22.42.12Zm39.75,5.49,3.19-3.25-44.61-.26V41L89.3,56.32l46.59-.19"/></clipPath><clipPath id="clip-path-103"><path class="cls-1" d="M100,50.09l47.5.28-7.07,7.21h-.29l-49.48.2,7.75-22.9.42.12.76.23.42.12Zm39.75,5.49L143,52.34l-44.6-.27V40.47L93.18,55.78l46.58-.2"/></clipPath><clipPath id="clip-path-104"><polygon class="cls-1" points="100.02 50.09 147.51 50.37 143.64 50.91 96.14 50.64 100.02 50.09"/></clipPath><clipPath id="clip-path-105"><polygon class="cls-1" points="147.51 50.37 140.44 57.58 136.57 58.12 143.64 50.91 147.51 50.37"/></clipPath><clipPath id="clip-path-106"><polygon class="cls-1" points="140.44 57.58 136.57 58.12 136.27 58.13 140.15 57.59 140.44 57.58"/></clipPath><clipPath id="clip-path-107"><polygon class="cls-1" points="140.15 57.59 136.27 58.13 86.8 58.32 90.67 57.78 140.15 57.59"/></clipPath><clipPath id="clip-path-108"><polygon class="cls-1" points="90.67 57.78 86.8 58.32 94.54 35.42 98.42 34.88 90.67 57.78"/></clipPath><clipPath id="clip-path-109"><polygon class="cls-1" points="98.42 34.88 98.84 35 94.97 35.55 94.54 35.42 98.42 34.88"/></clipPath><clipPath id="clip-path-110"><polygon class="cls-1" points="98.84 35 99.6 35.23 95.73 35.77 94.97 35.55 98.84 35"/></clipPath><clipPath id="clip-path-111"><polygon class="cls-1" points="99.6 35.23 100.02 35.35 96.15 35.89 95.73 35.77 99.6 35.23"/></clipPath><clipPath id="clip-path-112"><polygon class="cls-1" points="100.02 35.35 100.02 50.09 96.14 50.64 96.15 35.89 100.02 35.35"/></clipPath><clipPath id="clip-path-113"><polygon class="cls-1" points="139.76 55.59 135.89 56.13 139.08 52.88 142.95 52.34 139.76 55.59"/></clipPath><clipPath id="clip-path-114"><polygon class="cls-1" points="142.95 52.34 139.08 52.88 94.47 52.62 98.35 52.07 142.95 52.34"/></clipPath><clipPath id="clip-path-115"><polygon class="cls-1" points="98.35 52.07 94.47 52.62 94.48 41.02 98.35 40.47 98.35 52.07"/></clipPath><clipPath id="clip-path-116"><polygon class="cls-1" points="98.35 40.47 93.18 55.78 89.31 56.32 94.48 41.02 98.35 40.47"/></clipPath><clipPath id="clip-path-117"><polygon class="cls-1" points="93.18 55.78 139.76 55.59 135.89 56.13 89.31 56.32 93.18 55.78"/></clipPath></defs><g id="Layer_2" data-name="Layer 2"><g id="Layer_2-2" data-name="Layer 2"><g class="cls-2"><g class="cls-2"><path class="cls-3" d="M175,4.25a.56.56,0,0,1,.14.62l-.66-.62a.36.36,0,0,1,.21-.11A.35.35,0,0,1,175,4.25Z"/><g class="cls-4"><path class="cls-1" d="M175,4.25a.56.56,0,0,1,.14.62l-.66-.62a.36.36,0,0,1,.21-.11A.35.35,0,0,1,175,4.25Z"/></g><path class="cls-5" d="M175,4.25a.56.56,0,0,1,.14.62l-.66-.62a.36.36,0,0,1,.21-.11A.35.35,0,0,1,175,4.25Z"/></g><g class="cls-2"><path class="cls-3" d="M178.84,3.71a.56.56,0,0,1,.13.62l-.66-.62a.35.35,0,0,1,.21-.12A.37.37,0,0,1,178.84,3.71Z"/><g class="cls-6"><path class="cls-1" d="M178.84,3.71a.56.56,0,0,1,.13.62l-.66-.62a.35.35,0,0,1,.21-.12A.37.37,0,0,1,178.84,3.71Z"/></g><path class="cls-5" d="M178.84,3.71a.56.56,0,0,1,.13.62l-.66-.62a.35.35,0,0,1,.21-.12A.37.37,0,0,1,178.84,3.71Z"/></g><g class="cls-2"><path class="cls-3" d="M178.84,3.71a.56.56,0,0,1,.13.62l-3.87.54a.56.56,0,0,0-.14-.62Z"/><g class="cls-7"><g class="cls-2"><path class="cls-1" d="M178.84,3.71,175,4.25a.56.56,0,0,1,.14.62L179,4.33A.56.56,0,0,0,178.84,3.71Z"/><line class="cls-1" x1="178.97" y1="3.89" x2="175.09" y2="4.43"/><line class="cls-1" x1="179.01" y1="4.11" x2="175.14" y2="4.65"/></g><path class="cls-1" d="M178.84,3.71a.56.56,0,0,1,.13.62l-3.87.54a.56.56,0,0,0-.14-.62Z"/></g><path class="cls-5" d="M178.84,3.71a.56.56,0,0,1,.13.62l-3.87.54a.56.56,0,0,0-.14-.62Z"/></g><g class="cls-2"><polygon class="cls-3" points="178.97 4.33 175.1 4.87 174.44 4.25 178.31 3.71 178.97 4.33"/><g class="cls-8"><polygon class="cls-1" points="178.97 4.33 175.1 4.87 174.44 4.25 178.31 3.71 178.97 4.33"/></g><polygon class="cls-5" points="178.97 4.33 175.1 4.87 174.44 4.25 178.31 3.71 178.97 4.33"/></g><g class="cls-2"><path class="cls-3" d="M178.31,3.71l-3.87.54a.36.36,0,0,1,.21-.11l3.87-.55A.35.35,0,0,0,178.31,3.71Z"/><g class="cls-9"><g class="cls-2"><path class="cls-1" d="M178.31,3.71l-3.87.54a.36.36,0,0,1,.21-.11l3.87-.55A.35.35,0,0,0,178.31,3.71Z"/><line class="cls-1" x1="178.38" y1="3.65" x2="174.5" y2="4.2"/><line class="cls-1" x1="178.45" y1="3.61" x2="174.57" y2="4.16"/></g><path class="cls-1" d="M178.31,3.71l-3.87.54a.36.36,0,0,1,.21-.11l3.87-.55A.35.35,0,0,0,178.31,3.71Z"/></g><path class="cls-5" d="M178.31,3.71l-3.87.54a.36.36,0,0,1,.21-.11l3.87-.55A.35.35,0,0,0,178.31,3.71Z"/></g><g class="cls-2"><path class="cls-3" d="M178.52,3.59a.37.37,0,0,1,.32.12L175,4.25a.35.35,0,0,0-.31-.11Z"/><g class="cls-10"><g class="cls-2"><path class="cls-1" d="M178.52,3.59l-3.87.55a.35.35,0,0,1,.31.11l3.88-.54A.37.37,0,0,0,178.52,3.59Z"/><line class="cls-1" x1="178.63" y1="3.6" x2="174.76" y2="4.14"/><line class="cls-1" x1="178.74" y1="3.63" x2="174.86" y2="4.18"/></g><path class="cls-1" d="M178.52,3.59a.37.37,0,0,1,.32.12L175,4.25a.35.35,0,0,0-.31-.11Z"/></g><path class="cls-5" d="M178.52,3.59a.37.37,0,0,1,.32.12L175,4.25a.35.35,0,0,0-.31-.11Z"/></g><g class="cls-2"><path class="cls-3" d="M129.86,91.86a.56.56,0,0,1-.26-.52l.74.41a.39.39,0,0,1-.25.15A.38.38,0,0,1,129.86,91.86Z"/><g class="cls-11"><path class="cls-1" d="M129.86,91.86a.56.56,0,0,1-.26-.52l.74.41a.39.39,0,0,1-.25.15A.38.38,0,0,1,129.86,91.86Z"/></g><path class="cls-5" d="M129.86,91.86a.56.56,0,0,1-.26-.52l.74.41a.39.39,0,0,1-.25.15A.38.38,0,0,1,129.86,91.86Z"/></g><g class="cls-2"><path class="cls-3" d="M133.74,91.31a.54.54,0,0,1-.26-.52l.74.41a.37.37,0,0,1-.26.15A.29.29,0,0,1,133.74,91.31Z"/><g class="cls-12"><path class="cls-1" d="M133.74,91.31a.54.54,0,0,1-.26-.52l.74.41a.37.37,0,0,1-.26.15A.29.29,0,0,1,133.74,91.31Z"/></g><path class="cls-5" d="M133.74,91.31a.54.54,0,0,1-.26-.52l.74.41a.37.37,0,0,1-.26.15A.29.29,0,0,1,133.74,91.31Z"/></g><g class="cls-2"><path class="cls-3" d="M133.74,91.31l-3.88.55a.56.56,0,0,1-.26-.52l3.88-.55A.54.54,0,0,0,133.74,91.31Z"/><g class="cls-13"><g class="cls-2"><path class="cls-1" d="M133.74,91.31l-3.88.55a.56.56,0,0,1-.26-.52l3.88-.55A.54.54,0,0,0,133.74,91.31Z"/><line class="cls-1" x1="133.59" y1="91.19" x2="129.72" y2="91.73"/><line class="cls-1" x1="133.5" y1="91" x2="129.63" y2="91.55"/></g><path class="cls-1" d="M133.74,91.31l-3.88.55a.56.56,0,0,1-.26-.52l3.88-.55A.54.54,0,0,0,133.74,91.31Z"/></g><path class="cls-5" d="M133.74,91.31l-3.88.55a.56.56,0,0,1-.26-.52l3.88-.55A.54.54,0,0,0,133.74,91.31Z"/></g><g class="cls-2"><polygon class="cls-3" points="133.48 90.8 134.22 91.2 130.34 91.75 129.6 91.34 133.48 90.8"/><g class="cls-14"><polygon class="cls-1" points="133.48 90.8 134.22 91.2 130.34 91.75 129.6 91.34 133.48 90.8"/></g><polygon class="cls-5" points="133.48 90.8 134.22 91.2 130.34 91.75 129.6 91.34 133.48 90.8"/></g><g class="cls-2"><path class="cls-3" d="M134.22,91.2a.37.37,0,0,1-.26.15l-3.87.55a.39.39,0,0,0,.25-.15Z"/><g class="cls-15"><g class="cls-2"><path class="cls-1" d="M134.22,91.2l-3.88.55a.39.39,0,0,1-.25.15l3.87-.55A.37.37,0,0,0,134.22,91.2Z"/><line class="cls-1" x1="134.14" y1="91.28" x2="130.27" y2="91.82"/><line class="cls-1" x1="134.06" y1="91.33" x2="130.18" y2="91.87"/></g><path class="cls-1" d="M134.22,91.2a.37.37,0,0,1-.26.15l-3.87.55a.39.39,0,0,0,.25-.15Z"/></g><path class="cls-5" d="M134.22,91.2a.37.37,0,0,1-.26.15l-3.87.55a.39.39,0,0,0,.25-.15Z"/></g><g class="cls-2"><path class="cls-3" d="M134,91.35l-3.87.55a.38.38,0,0,1-.23,0l3.88-.55A.29.29,0,0,0,134,91.35Z"/><g class="cls-16"><g class="cls-2"><path class="cls-1" d="M134,91.35l-3.87.55a.38.38,0,0,1-.23,0l3.88-.55A.29.29,0,0,0,134,91.35Z"/><line class="cls-1" x1="133.89" y1="91.36" x2="130.01" y2="91.9"/><line class="cls-1" x1="133.81" y1="91.35" x2="129.94" y2="91.89"/></g><path class="cls-1" d="M134,91.35l-3.87.55a.38.38,0,0,1-.23,0l3.88-.55A.29.29,0,0,0,134,91.35Z"/></g><path class="cls-5" d="M134,91.35l-3.87.55a.38.38,0,0,1-.23,0l3.88-.55A.29.29,0,0,0,134,91.35Z"/></g><g class="cls-2"><path class="cls-3" d="M110.17,13.77a.42.42,0,0,1,.23-.13.4.4,0,0,1,.29.09l-.57.67A.57.57,0,0,1,110.17,13.77Z"/><g class="cls-17"><path class="cls-1" d="M110.17,13.77a.42.42,0,0,1,.23-.13.4.4,0,0,1,.29.09l-.57.67A.57.57,0,0,1,110.17,13.77Z"/></g><path class="cls-5" d="M110.17,13.77a.42.42,0,0,1,.23-.13.4.4,0,0,1,.29.09l-.57.67A.57.57,0,0,1,110.17,13.77Z"/></g><g class="cls-2"><path class="cls-3" d="M114.05,13.23a.32.32,0,0,1,.23-.13.34.34,0,0,1,.29.09l-.57.66A.56.56,0,0,1,114.05,13.23Z"/><g class="cls-18"><path class="cls-1" d="M114.05,13.23a.32.32,0,0,1,.23-.13.34.34,0,0,1,.29.09l-.57.66A.56.56,0,0,1,114.05,13.23Z"/></g><path class="cls-5" d="M114.05,13.23a.32.32,0,0,1,.23-.13.34.34,0,0,1,.29.09l-.57.66A.56.56,0,0,1,114.05,13.23Z"/></g><g class="cls-2"><path class="cls-3" d="M114.05,13.23l-3.88.54a.42.42,0,0,1,.23-.13l3.88-.54A.32.32,0,0,0,114.05,13.23Z"/><g class="cls-19"><g class="cls-2"><path class="cls-1" d="M114.05,13.23l-3.88.54a.42.42,0,0,1,.23-.13l3.88-.54A.32.32,0,0,0,114.05,13.23Z"/><line class="cls-1" x1="114.12" y1="13.16" x2="110.24" y2="13.71"/><line class="cls-1" x1="114.19" y1="13.12" x2="110.32" y2="13.66"/></g><path class="cls-1" d="M114.05,13.23l-3.88.54a.42.42,0,0,1,.23-.13l3.88-.54A.32.32,0,0,0,114.05,13.23Z"/></g><path class="cls-5" d="M114.05,13.23l-3.88.54a.42.42,0,0,1,.23-.13l3.88-.54A.32.32,0,0,0,114.05,13.23Z"/></g><g class="cls-2"><path class="cls-3" d="M114.28,13.1a.34.34,0,0,1,.29.09l-3.88.54a.4.4,0,0,0-.29-.09Z"/><g class="cls-20"><g class="cls-2"><path class="cls-1" d="M114.28,13.1l-3.88.54a.4.4,0,0,1,.29.09l3.88-.54A.34.34,0,0,0,114.28,13.1Z"/><line class="cls-1" x1="114.38" y1="13.1" x2="110.5" y2="13.64"/><line class="cls-1" x1="114.47" y1="13.13" x2="110.6" y2="13.67"/></g><path class="cls-1" d="M114.28,13.1a.34.34,0,0,1,.29.09l-3.88.54a.4.4,0,0,0-.29-.09Z"/></g><path class="cls-5" d="M114.28,13.1a.34.34,0,0,1,.29.09l-3.88.54a.4.4,0,0,0-.29-.09Z"/></g><g class="cls-2"><polygon class="cls-3" points="114.57 13.19 114 13.85 110.13 14.4 110.69 13.73 114.57 13.19"/><g class="cls-21"><polygon class="cls-1" points="114.57 13.19 114 13.85 110.13 14.4 110.69 13.73 114.57 13.19"/></g><polygon class="cls-5" points="114.57 13.19 114 13.85 110.13 14.4 110.69 13.73 114.57 13.19"/></g><g class="cls-2"><path class="cls-3" d="M114,13.85l-3.88.55a.57.57,0,0,1,0-.63l3.88-.54A.56.56,0,0,0,114,13.85Z"/><g class="cls-22"><g class="cls-2"><path class="cls-1" d="M114,13.85l-3.88.55a.57.57,0,0,1,0-.63l3.88-.54A.56.56,0,0,0,114,13.85Z"/><line class="cls-1" x1="113.93" y1="13.64" x2="110.06" y2="14.18"/><line class="cls-1" x1="113.95" y1="13.42" x2="110.07" y2="13.96"/></g><path class="cls-1" d="M114,13.85l-3.88.55a.57.57,0,0,1,0-.63l3.88-.54A.56.56,0,0,0,114,13.85Z"/></g><path class="cls-5" d="M114,13.85l-3.88.55a.57.57,0,0,1,0-.63l3.88-.54A.56.56,0,0,0,114,13.85Z"/></g><g class="cls-2"><path class="cls-3" d="M71.29,92.09a.58.58,0,0,1-.25-.55l.75.43a.44.44,0,0,1-.27.17A.4.4,0,0,1,71.29,92.09Z"/><g class="cls-23"><path class="cls-1" d="M71.29,92.09a.58.58,0,0,1-.25-.55l.75.43a.44.44,0,0,1-.27.17A.4.4,0,0,1,71.29,92.09Z"/></g><path class="cls-5" d="M71.29,92.09a.58.58,0,0,1-.25-.55l.75.43a.44.44,0,0,1-.27.17A.4.4,0,0,1,71.29,92.09Z"/></g><g class="cls-2"><path class="cls-3" d="M75.17,91.55a.55.55,0,0,1-.25-.55l.74.42a.35.35,0,0,1-.26.17A.37.37,0,0,1,75.17,91.55Z"/><g class="cls-24"><path class="cls-1" d="M75.17,91.55a.55.55,0,0,1-.25-.55l.74.42a.35.35,0,0,1-.26.17A.37.37,0,0,1,75.17,91.55Z"/></g><path class="cls-5" d="M75.17,91.55a.55.55,0,0,1-.25-.55l.74.42a.35.35,0,0,1-.26.17A.37.37,0,0,1,75.17,91.55Z"/></g><g class="cls-2"><path class="cls-3" d="M75.17,91.55l-3.88.54a.58.58,0,0,1-.25-.55L74.92,91A.55.55,0,0,0,75.17,91.55Z"/><g class="cls-25"><g class="cls-2"><path class="cls-1" d="M75.17,91.55l-3.88.54a.58.58,0,0,1-.25-.55L74.92,91A.55.55,0,0,0,75.17,91.55Z"/><line class="cls-1" x1="75.02" y1="91.41" x2="71.14" y2="91.95"/><line class="cls-1" x1="74.93" y1="91.22" x2="71.06" y2="91.76"/></g><path class="cls-1" d="M75.17,91.55l-3.88.54a.58.58,0,0,1-.25-.55L74.92,91A.55.55,0,0,0,75.17,91.55Z"/></g><path class="cls-5" d="M75.17,91.55l-3.88.54a.58.58,0,0,1-.25-.55L74.92,91A.55.55,0,0,0,75.17,91.55Z"/></g><g class="cls-2"><polygon class="cls-3" points="74.92 91 75.66 91.42 71.79 91.97 71.04 91.54 74.92 91"/><g class="cls-26"><polygon class="cls-1" points="74.92 91 75.66 91.42 71.79 91.97 71.04 91.54 74.92 91"/></g><polygon class="cls-5" points="74.92 91 75.66 91.42 71.79 91.97 71.04 91.54 74.92 91"/></g><g class="cls-2"><path class="cls-3" d="M75.66,91.42a.35.35,0,0,1-.26.17l-3.88.55a.44.44,0,0,0,.27-.17Z"/><g class="cls-27"><g class="cls-2"><path class="cls-1" d="M75.66,91.42,71.79,92a.44.44,0,0,1-.27.17l3.88-.55A.35.35,0,0,0,75.66,91.42Z"/><line class="cls-1" x1="75.59" y1="91.51" x2="71.71" y2="92.05"/><line class="cls-1" x1="75.5" y1="91.56" x2="71.62" y2="92.11"/></g><path class="cls-1" d="M75.66,91.42a.35.35,0,0,1-.26.17l-3.88.55a.44.44,0,0,0,.27-.17Z"/></g><path class="cls-5" d="M75.66,91.42a.35.35,0,0,1-.26.17l-3.88.55a.44.44,0,0,0,.27-.17Z"/></g><g class="cls-2"><path class="cls-3" d="M75.4,91.59l-3.88.55a.4.4,0,0,1-.23,0l3.88-.54A.37.37,0,0,0,75.4,91.59Z"/><g class="cls-28"><g class="cls-2"><path class="cls-1" d="M75.4,91.59l-3.88.55a.4.4,0,0,1-.23,0l3.88-.54A.37.37,0,0,0,75.4,91.59Z"/><line class="cls-1" x1="75.32" y1="91.6" x2="71.45" y2="92.14"/><line class="cls-1" x1="75.24" y1="91.58" x2="71.37" y2="92.12"/></g><path class="cls-1" d="M75.4,91.59l-3.88.55a.4.4,0,0,1-.23,0l3.88-.54A.37.37,0,0,0,75.4,91.59Z"/></g><path class="cls-5" d="M75.4,91.59l-3.88.55a.4.4,0,0,1-.23,0l3.88-.54A.37.37,0,0,0,75.4,91.59Z"/></g><g class="cls-2"><path class="cls-3" d="M95.24,35.34a.39.39,0,0,1,.15,0,.5.5,0,0,1,.34.41L95,35.54A.43.43,0,0,1,95.24,35.34Z"/><g class="cls-29"><path class="cls-1" d="M95.24,35.34a.39.39,0,0,1,.15,0,.5.5,0,0,1,.34.41L95,35.54A.43.43,0,0,1,95.24,35.34Z"/></g><path class="cls-5" d="M95.24,35.34a.39.39,0,0,1,.15,0,.5.5,0,0,1,.34.41L95,35.54A.43.43,0,0,1,95.24,35.34Z"/></g><g class="cls-2"><path class="cls-3" d="M99.12,34.8a.38.38,0,0,1,.15,0,.51.51,0,0,1,.33.42L98.84,35A.4.4,0,0,1,99.12,34.8Z"/><g class="cls-30"><path class="cls-1" d="M99.12,34.8a.38.38,0,0,1,.15,0,.51.51,0,0,1,.33.42L98.84,35A.4.4,0,0,1,99.12,34.8Z"/></g><path class="cls-5" d="M99.12,34.8a.38.38,0,0,1,.15,0,.51.51,0,0,1,.33.42L98.84,35A.4.4,0,0,1,99.12,34.8Z"/></g><g class="cls-2"><path class="cls-3" d="M99.12,34.8a.38.38,0,0,1,.15,0,.51.51,0,0,1,.33.42l-3.87.54a.5.5,0,0,0-.34-.41.39.39,0,0,0-.15,0Z"/><g class="cls-31"><g class="cls-2"><path class="cls-1" d="M99.12,34.8l-3.88.54a.39.39,0,0,1,.15,0l3.88-.55A.38.38,0,0,0,99.12,34.8Z"/><line class="cls-1" x1="99.17" y1="34.8" x2="95.29" y2="35.34"/><line class="cls-1" x1="99.22" y1="34.8" x2="95.34" y2="35.34"/><path class="cls-1" d="M99.27,34.81l-3.88.55a.5.5,0,0,1,.34.41l3.87-.54A.51.51,0,0,0,99.27,34.81Z"/><line class="cls-1" x1="99.42" y1="34.89" x2="95.55" y2="35.44"/><line class="cls-1" x1="99.54" y1="35.04" x2="95.66" y2="35.58"/></g><path class="cls-1" d="M99.12,34.8a.38.38,0,0,1,.15,0,.51.51,0,0,1,.33.42l-3.87.54a.5.5,0,0,0-.34-.41.39.39,0,0,0-.15,0Z"/></g><path class="cls-5" d="M99.12,34.8a.38.38,0,0,1,.15,0,.51.51,0,0,1,.33.42l-3.87.54a.5.5,0,0,0-.34-.41.39.39,0,0,0-.15,0Z"/></g><g class="cls-2"><polygon class="cls-3" points="99.6 35.23 95.73 35.77 94.97 35.55 98.84 35 99.6 35.23"/><g class="cls-32"><polygon class="cls-1" points="99.6 35.23 95.73 35.77 94.97 35.55 98.84 35 99.6 35.23"/></g><polygon class="cls-5" points="99.6 35.23 95.73 35.77 94.97 35.55 98.84 35 99.6 35.23"/></g><g class="cls-2"><path class="cls-3" d="M98.84,35,95,35.54a.43.43,0,0,1,.28-.2l3.88-.54A.4.4,0,0,0,98.84,35Z"/><g class="cls-33"><g class="cls-2"><path class="cls-1" d="M98.84,35,95,35.54a.43.43,0,0,1,.28-.2l3.88-.54A.4.4,0,0,0,98.84,35Z"/><line class="cls-1" x1="98.92" y1="34.9" x2="95.04" y2="35.45"/><line class="cls-1" x1="99.01" y1="34.83" x2="95.13" y2="35.38"/></g><path class="cls-1" d="M98.84,35,95,35.54a.43.43,0,0,1,.28-.2l3.88-.54A.4.4,0,0,0,98.84,35Z"/></g><path class="cls-5" d="M98.84,35,95,35.54a.43.43,0,0,1,.28-.2l3.88-.54A.4.4,0,0,0,98.84,35Z"/></g><g class="cls-2"><path class="cls-3" d="M175.1,4.87,130.74,92l-1.14-.62,5.27-28-48.32.21L72.17,92.19,71,91.54,77.4,63.13l-61,.25L.3.89,35.86,30.36,67.28,4.46,63.66,28.32,81.13,44.16,86.51,30.8l-13-9,21.84-.08L107.3,4.79l-1.54,21.07.85,18.31,23.07-.09L109.83,14.74l.86-1,21.85,21.21,9.6,9.8L152.43,32,174.1,3.94Zm-43,80.54,37.27-72.35L153.67,33.42l-11.36,14-10.81-11L116.34,21.28l16.77,24.78L105,46.17l-.94-20.53L105.16,11,96.23,23.73l-16.59.06,9,6.27L81.8,47.2l-20-18.1L64.9,8.9l-29,23.89L3.26,5.71,17.62,61.38l62-.24L74,84.51l11.53-23L137,61.33l-4.91,24.08"/><g class="cls-34"><path class="cls-1" d="M175.1,4.87,130.74,92l-1.14-.62,5.27-28-48.32.21L72.17,92.19,71,91.54,77.4,63.13l-61,.25L.3.89,35.86,30.36,67.28,4.46,63.66,28.32,81.13,44.16,86.51,30.8l-13-9,21.84-.08L107.3,4.79l-1.54,21.07.85,18.31,23.07-.09L109.83,14.74l.86-1,21.85,21.21,9.6,9.8L152.43,32,174.1,3.94Zm-43,80.54,37.27-72.35L153.67,33.42l-11.36,14-10.81-11L116.34,21.28l16.77,24.78L105,46.17l-.94-20.53L105.16,11,96.23,23.73l-16.59.06,9,6.27L81.8,47.2l-20-18.1L64.9,8.9l-29,23.89L3.26,5.71,17.62,61.38l62-.24L74,84.51l11.53-23L137,61.33l-4.91,24.08"/></g><path class="cls-5" d="M175.1,4.87,130.74,92l-1.14-.62,5.27-28-48.32.21L72.17,92.19,71,91.54,77.4,63.13l-61,.25L.3.89,35.86,30.36,67.28,4.46,63.66,28.32,81.13,44.16,86.51,30.8l-13-9,21.84-.08L107.3,4.79l-1.54,21.07.85,18.31,23.07-.09L109.83,14.74l.86-1,21.85,21.21,9.6,9.8L152.43,32,174.1,3.94Zm-43,80.54,37.27-72.35L153.67,33.42l-11.36,14-10.81-11L116.34,21.28l16.77,24.78L105,46.17l-.94-20.53L105.16,11,96.23,23.73l-16.59.06,9,6.27L81.8,47.2l-20-18.1L64.9,8.9l-29,23.89L3.26,5.71,17.62,61.38l62-.24L74,84.51l11.53-23L137,61.33l-4.91,24.08"/></g><g class="cls-2"><path class="cls-3" d="M179,4.33,134.61,91.42l-1.13-.63,5.27-28L90.43,63,76.05,91.64,74.92,91l6.36-28.41-61,.24L4.17.34,39.74,29.82,71.15,3.92,67.54,27.77,85,43.61l5.37-13.36-13-9,21.85-.08,11.9-16.95-1.54,21.06.85,18.31,23.08-.09L113.71,14.2l.86-1L136.42,34.4,146,44.2l10.3-12.73L178,3.39ZM136,84.86l37.26-72.34-15.7,20.35L146.19,46.93l-10.81-11L120.22,20.73,137,45.51l-28.07.11L108,25.1,109,10.46l-8.93,12.73-16.59.06,9,6.27L85.68,46.65l-20-18.09,3.06-20.2-29,23.88L7.13,5.16,21.5,60.84l62-.25L77.91,84,89.45,61l51.44-.2L136,84.86"/><g class="cls-35"><path class="cls-1" d="M179,4.33,134.61,91.42l-1.13-.63,5.27-28L90.43,63,76.05,91.64,74.92,91l6.36-28.41-61,.24L4.17.34,39.74,29.82,71.15,3.92,67.54,27.77,85,43.61l5.37-13.36-13-9,21.85-.08,11.9-16.95-1.54,21.06.85,18.31,23.08-.09L113.71,14.2l.86-1L136.42,34.4,146,44.2l10.3-12.73L178,3.39ZM136,84.86l37.26-72.34-15.7,20.35L146.19,46.93l-10.81-11L120.22,20.73,137,45.51l-28.07.11L108,25.1,109,10.46l-8.93,12.73-16.59.06,9,6.27L85.68,46.65l-20-18.09,3.06-20.2-29,23.88L7.13,5.16,21.5,60.84l62-.25L77.91,84,89.45,61l51.44-.2L136,84.86"/></g><path class="cls-5" d="M179,4.33,134.61,91.42l-1.13-.63,5.27-28L90.43,63,76.05,91.64,74.92,91l6.36-28.41-61,.24L4.17.34,39.74,29.82,71.15,3.92,67.54,27.77,85,43.61l5.37-13.36-13-9,21.85-.08,11.9-16.95-1.54,21.06.85,18.31,23.08-.09L113.71,14.2l.86-1L136.42,34.4,146,44.2l10.3-12.73L178,3.39ZM136,84.86l37.26-72.34-15.7,20.35L146.19,46.93l-10.81-11L120.22,20.73,137,45.51l-28.07.11L108,25.1,109,10.46l-8.93,12.73-16.59.06,9,6.27L85.68,46.65l-20-18.09,3.06-20.2-29,23.88L7.13,5.16,21.5,60.84l62-.25L77.91,84,89.45,61l51.44-.2L136,84.86"/></g><g class="cls-2"><polygon class="cls-3" points="178.97 4.33 134.61 91.42 130.74 91.96 175.1 4.87 178.97 4.33"/><g class="cls-36"><polygon class="cls-1" points="178.97 4.33 134.61 91.42 130.74 91.96 175.1 4.87 178.97 4.33"/></g><polygon class="cls-5" points="178.97 4.33 134.61 91.42 130.74 91.96 175.1 4.87 178.97 4.33"/></g><g class="cls-2"><polygon class="cls-3" points="134.61 91.42 130.74 91.96 129.6 91.34 133.48 90.8 134.61 91.42"/><g class="cls-37"><polygon class="cls-1" points="134.61 91.42 130.74 91.96 129.6 91.34 133.48 90.8 134.61 91.42"/></g><polygon class="cls-5" points="134.61 91.42 130.74 91.96 129.6 91.34 133.48 90.8 134.61 91.42"/></g><g class="cls-2"><polygon class="cls-3" points="133.48 90.8 129.6 91.34 134.87 63.33 138.75 62.79 133.48 90.8"/><g class="cls-38"><polygon class="cls-1" points="133.48 90.8 129.6 91.34 134.87 63.33 138.75 62.79 133.48 90.8"/></g><polygon class="cls-5" points="133.48 90.8 129.6 91.34 134.87 63.33 138.75 62.79 133.48 90.8"/></g><g class="cls-2"><polygon class="cls-3" points="138.75 62.79 134.87 63.33 86.55 63.54 90.43 62.99 138.75 62.79"/><g class="cls-39"><polygon class="cls-1" points="138.75 62.79 134.87 63.33 86.55 63.54 90.43 62.99 138.75 62.79"/></g><polygon class="cls-5" points="138.75 62.79 134.87 63.33 86.55 63.54 90.43 62.99 138.75 62.79"/></g><g class="cls-2"><polygon class="cls-3" points="90.43 62.99 76.05 91.64 72.17 92.19 86.55 63.54 90.43 62.99"/><g class="cls-40"><polygon class="cls-1" points="90.43 62.99 76.05 91.64 72.17 92.19 86.55 63.54 90.43 62.99"/></g><polygon class="cls-5" points="90.43 62.99 76.05 91.64 72.17 92.19 86.55 63.54 90.43 62.99"/></g><g class="cls-2"><polygon class="cls-3" points="76.05 91.64 72.17 92.19 71.04 91.54 74.92 91 76.05 91.64"/><g class="cls-41"><polygon class="cls-1" points="76.05 91.64 72.17 92.19 71.04 91.54 74.92 91 76.05 91.64"/></g><polygon class="cls-5" points="76.05 91.64 72.17 92.19 71.04 91.54 74.92 91 76.05 91.64"/></g><g class="cls-2"><polygon class="cls-3" points="74.92 91 71.04 91.54 77.4 63.13 81.28 62.59 74.92 91"/><g class="cls-42"><polygon class="cls-1" points="74.92 91 71.04 91.54 77.4 63.13 81.28 62.59 74.92 91"/></g><polygon class="cls-5" points="74.92 91 71.04 91.54 77.4 63.13 81.28 62.59 74.92 91"/></g><g class="cls-2"><polygon class="cls-3" points="81.28 62.59 77.4 63.13 16.42 63.38 20.3 62.83 81.28 62.59"/><g class="cls-43"><polygon class="cls-1" points="81.28 62.59 77.4 63.13 16.42 63.38 20.3 62.83 81.28 62.59"/></g><polygon class="cls-5" points="81.28 62.59 77.4 63.13 16.42 63.38 20.3 62.83 81.28 62.59"/></g><g class="cls-2"><polygon class="cls-3" points="20.3 62.83 16.42 63.38 0.3 0.89 4.17 0.34 20.3 62.83"/><g class="cls-44"><polygon class="cls-1" points="20.3 62.83 16.42 63.38 0.3 0.89 4.17 0.34 20.3 62.83"/></g><polygon class="cls-5" points="20.3 62.83 16.42 63.38 0.3 0.89 4.17 0.34 20.3 62.83"/></g><g class="cls-2"><polygon class="cls-3" points="4.17 0.34 39.74 29.82 35.86 30.36 0.3 0.89 4.17 0.34"/><g class="cls-45"><polygon class="cls-1" points="4.17 0.34 39.74 29.82 35.86 30.36 0.3 0.89 4.17 0.34"/></g><polygon class="cls-5" points="4.17 0.34 39.74 29.82 35.86 30.36 0.3 0.89 4.17 0.34"/></g><g class="cls-2"><polygon class="cls-3" points="39.74 29.82 35.86 30.36 67.28 4.46 71.16 3.92 39.74 29.82"/><g class="cls-46"><polygon class="cls-1" points="39.74 29.82 35.86 30.36 67.28 4.46 71.16 3.92 39.74 29.82"/></g><polygon class="cls-5" points="39.74 29.82 35.86 30.36 67.28 4.46 71.16 3.92 39.74 29.82"/></g><g class="cls-2"><polygon class="cls-3" points="71.16 3.92 67.54 27.77 63.66 28.32 67.28 4.46 71.16 3.92"/><g class="cls-47"><polygon class="cls-1" points="71.16 3.92 67.54 27.77 63.66 28.32 67.28 4.46 71.16 3.92"/></g><polygon class="cls-5" points="71.16 3.92 67.54 27.77 63.66 28.32 67.28 4.46 71.16 3.92"/></g><g class="cls-2"><polygon class="cls-3" points="67.54 27.77 85.01 43.61 81.13 44.16 63.66 28.32 67.54 27.77"/><g class="cls-48"><polygon class="cls-1" points="67.54 27.77 85.01 43.61 81.13 44.16 63.66 28.32 67.54 27.77"/></g><polygon class="cls-5" points="67.54 27.77 85.01 43.61 81.13 44.16 63.66 28.32 67.54 27.77"/></g><g class="cls-2"><polygon class="cls-3" points="85.01 43.61 81.13 44.16 86.51 30.8 90.39 30.25 85.01 43.61"/><g class="cls-49"><polygon class="cls-1" points="85.01 43.61 81.13 44.16 86.51 30.8 90.39 30.25 85.01 43.61"/></g><polygon class="cls-5" points="85.01 43.61 81.13 44.16 86.51 30.8 90.39 30.25 85.01 43.61"/></g><g class="cls-2"><polygon class="cls-3" points="90.39 30.25 86.51 30.8 73.55 21.82 77.42 21.28 90.39 30.25"/><g class="cls-50"><polygon class="cls-1" points="90.39 30.25 86.51 30.8 73.55 21.82 77.42 21.28 90.39 30.25"/></g><polygon class="cls-5" points="90.39 30.25 86.51 30.8 73.55 21.82 77.42 21.28 90.39 30.25"/></g><g class="cls-2"><polygon class="cls-3" points="77.42 21.28 99.27 21.2 95.39 21.74 73.55 21.82 77.42 21.28"/><g class="cls-51"><polygon class="cls-1" points="77.42 21.28 99.27 21.2 95.39 21.74 73.55 21.82 77.42 21.28"/></g><polygon class="cls-5" points="77.42 21.28 99.27 21.2 95.39 21.74 73.55 21.82 77.42 21.28"/></g><g class="cls-2"><polygon class="cls-3" points="99.27 21.2 95.39 21.74 107.3 4.79 111.17 4.25 99.27 21.2"/><g class="cls-52"><polygon class="cls-1" points="99.27 21.2 95.39 21.74 107.3 4.79 111.17 4.25 99.27 21.2"/></g><polygon class="cls-5" points="99.27 21.2 95.39 21.74 107.3 4.79 111.17 4.25 99.27 21.2"/></g><g class="cls-2"><polygon class="cls-3" points="111.17 4.25 109.64 25.31 105.76 25.86 107.3 4.79 111.17 4.25"/><g class="cls-53"><polygon class="cls-1" points="111.17 4.25 109.64 25.31 105.76 25.86 107.3 4.79 111.17 4.25"/></g><polygon class="cls-5" points="111.17 4.25 109.64 25.31 105.76 25.86 107.3 4.79 111.17 4.25"/></g><g class="cls-2"><polygon class="cls-3" points="109.64 25.31 110.48 43.62 106.61 44.17 105.76 25.86 109.64 25.31"/><g class="cls-54"><polygon class="cls-1" points="109.64 25.31 110.48 43.62 106.61 44.17 105.76 25.86 109.64 25.31"/></g><polygon class="cls-5" points="109.64 25.31 110.48 43.62 106.61 44.17 105.76 25.86 109.64 25.31"/></g><g class="cls-2"><polygon class="cls-3" points="110.48 43.62 133.56 43.53 129.68 44.08 106.61 44.17 110.48 43.62"/><g class="cls-55"><polygon class="cls-1" points="110.48 43.62 133.56 43.53 129.68 44.08 106.61 44.17 110.48 43.62"/></g><polygon class="cls-5" points="110.48 43.62 133.56 43.53 129.68 44.08 106.61 44.17 110.48 43.62"/></g><g class="cls-2"><polygon class="cls-3" points="133.56 43.53 129.68 44.08 109.83 14.74 113.71 14.2 133.56 43.53"/><g class="cls-56"><polygon class="cls-1" points="133.56 43.53 129.68 44.08 109.83 14.74 113.71 14.2 133.56 43.53"/></g><polygon class="cls-5" points="133.56 43.53 129.68 44.08 109.83 14.74 113.71 14.2 133.56 43.53"/></g><g class="cls-2"><polygon class="cls-3" points="113.71 14.2 109.83 14.74 110.69 13.73 114.57 13.19 113.71 14.2"/><g class="cls-57"><polygon class="cls-1" points="113.71 14.2 109.83 14.74 110.69 13.73 114.57 13.19 113.71 14.2"/></g><polygon class="cls-5" points="113.71 14.2 109.83 14.74 110.69 13.73 114.57 13.19 113.71 14.2"/></g><g class="cls-2"><polygon class="cls-3" points="114.57 13.19 136.42 34.4 132.54 34.94 110.69 13.73 114.57 13.19"/><g class="cls-58"><polygon class="cls-1" points="114.57 13.19 136.42 34.4 132.54 34.94 110.69 13.73 114.57 13.19"/></g><polygon class="cls-5" points="114.57 13.19 136.42 34.4 132.54 34.94 110.69 13.73 114.57 13.19"/></g><g class="cls-2"><polygon class="cls-3" points="136.42 34.4 146.01 44.2 142.14 44.74 132.54 34.94 136.42 34.4"/><g class="cls-59"><polygon class="cls-1" points="136.42 34.4 146.01 44.2 142.14 44.74 132.54 34.94 136.42 34.4"/></g><polygon class="cls-5" points="136.42 34.4 146.01 44.2 142.14 44.74 132.54 34.94 136.42 34.4"/></g><g class="cls-2"><polygon class="cls-3" points="146.01 44.2 142.14 44.74 152.43 32.01 156.31 31.46 146.01 44.2"/><g class="cls-60"><polygon class="cls-1" points="146.01 44.2 142.14 44.74 152.43 32.01 156.31 31.46 146.01 44.2"/></g><polygon class="cls-5" points="146.01 44.2 142.14 44.74 152.43 32.01 156.31 31.46 146.01 44.2"/></g><g class="cls-2"><polygon class="cls-3" points="156.31 31.46 152.43 32.01 174.1 3.94 177.97 3.39 156.31 31.46"/><g class="cls-61"><polygon class="cls-1" points="156.31 31.46 152.43 32.01 174.1 3.94 177.97 3.39 156.31 31.46"/></g><polygon class="cls-5" points="156.31 31.46 152.43 32.01 174.1 3.94 177.97 3.39 156.31 31.46"/></g><g class="cls-2"><polygon class="cls-3" points="177.97 3.39 178.97 4.33 175.1 4.87 174.1 3.94 177.97 3.39"/><g class="cls-62"><polygon class="cls-1" points="177.97 3.39 178.97 4.33 175.1 4.87 174.1 3.94 177.97 3.39"/></g><polygon class="cls-5" points="177.97 3.39 178.97 4.33 175.1 4.87 174.1 3.94 177.97 3.39"/></g><g class="cls-2"><polygon class="cls-3" points="135.99 84.86 132.11 85.41 169.38 13.06 173.25 12.52 135.99 84.86"/><g class="cls-63"><polygon class="cls-1" points="135.99 84.86 132.11 85.41 169.38 13.06 173.25 12.52 135.99 84.86"/></g><polygon class="cls-5" points="135.99 84.86 132.11 85.41 169.38 13.06 173.25 12.52 135.99 84.86"/></g><g class="cls-2"><polygon class="cls-3" points="173.25 12.52 157.55 32.87 153.67 33.42 169.38 13.06 173.25 12.52"/><g class="cls-64"><polygon class="cls-1" points="173.25 12.52 157.55 32.87 153.67 33.42 169.38 13.06 173.25 12.52"/></g><polygon class="cls-5" points="173.25 12.52 157.55 32.87 153.67 33.42 169.38 13.06 173.25 12.52"/></g><g class="cls-2"><polygon class="cls-3" points="157.55 32.87 146.19 46.93 142.31 47.47 153.67 33.42 157.55 32.87"/><g class="cls-65"><polygon class="cls-1" points="157.55 32.87 146.19 46.93 142.31 47.47 153.67 33.42 157.55 32.87"/></g><polygon class="cls-5" points="157.55 32.87 146.19 46.93 142.31 47.47 153.67 33.42 157.55 32.87"/></g><g class="cls-2"><polygon class="cls-3" points="146.19 46.93 142.31 47.47 131.5 36.43 135.38 35.89 146.19 46.93"/><g class="cls-66"><polygon class="cls-1" points="146.19 46.93 142.31 47.47 131.5 36.43 135.38 35.89 146.19 46.93"/></g><polygon class="cls-5" points="146.19 46.93 142.31 47.47 131.5 36.43 135.38 35.89 146.19 46.93"/></g><g class="cls-2"><polygon class="cls-3" points="135.38 35.89 131.5 36.43 116.34 21.28 120.22 20.73 135.38 35.89"/><g class="cls-67"><polygon class="cls-1" points="135.38 35.89 131.5 36.43 116.34 21.28 120.22 20.73 135.38 35.89"/></g><polygon class="cls-5" points="135.38 35.89 131.5 36.43 116.34 21.28 120.22 20.73 135.38 35.89"/></g><g class="cls-2"><polygon class="cls-3" points="120.22 20.73 136.98 45.52 133.11 46.06 116.34 21.28 120.22 20.73"/><g class="cls-68"><polygon class="cls-1" points="120.22 20.73 136.98 45.52 133.11 46.06 116.34 21.28 120.22 20.73"/></g><polygon class="cls-5" points="120.22 20.73 136.98 45.52 133.11 46.06 116.34 21.28 120.22 20.73"/></g><g class="cls-2"><polygon class="cls-3" points="136.98 45.52 133.11 46.06 105.03 46.17 108.91 45.63 136.98 45.52"/><g class="cls-69"><polygon class="cls-1" points="136.98 45.52 133.11 46.06 105.03 46.17 108.91 45.63 136.98 45.52"/></g><polygon class="cls-5" points="136.98 45.52 133.11 46.06 105.03 46.17 108.91 45.63 136.98 45.52"/></g><g class="cls-2"><polygon class="cls-3" points="108.91 45.63 105.03 46.17 104.09 25.64 107.97 25.1 108.91 45.63"/><g class="cls-70"><polygon class="cls-1" points="108.91 45.63 105.03 46.17 104.09 25.64 107.97 25.1 108.91 45.63"/></g><polygon class="cls-5" points="108.91 45.63 105.03 46.17 104.09 25.64 107.97 25.1 108.91 45.63"/></g><g class="cls-2"><polygon class="cls-3" points="107.97 25.1 104.09 25.64 105.16 11.01 109.04 10.46 107.97 25.1"/><g class="cls-71"><polygon class="cls-1" points="107.97 25.1 104.09 25.64 105.16 11.01 109.04 10.46 107.97 25.1"/></g><polygon class="cls-5" points="107.97 25.1 104.09 25.64 105.16 11.01 109.04 10.46 107.97 25.1"/></g><g class="cls-2"><polygon class="cls-3" points="109.04 10.46 100.11 23.19 96.23 23.73 105.16 11.01 109.04 10.46"/><g class="cls-72"><polygon class="cls-1" points="109.04 10.46 100.11 23.19 96.23 23.73 105.16 11.01 109.04 10.46"/></g><polygon class="cls-5" points="109.04 10.46 100.11 23.19 96.23 23.73 105.16 11.01 109.04 10.46"/></g><g class="cls-2"><polygon class="cls-3" points="100.11 23.19 96.23 23.73 79.64 23.79 83.52 23.25 100.11 23.19"/><g class="cls-73"><polygon class="cls-1" points="100.11 23.19 96.23 23.73 79.64 23.79 83.52 23.25 100.11 23.19"/></g><polygon class="cls-5" points="100.11 23.19 96.23 23.73 79.64 23.79 83.52 23.25 100.11 23.19"/></g><g class="cls-2"><polygon class="cls-3" points="83.52 23.25 92.56 29.52 88.69 30.06 79.64 23.79 83.52 23.25"/><g class="cls-74"><polygon class="cls-1" points="83.52 23.25 92.56 29.52 88.69 30.06 79.64 23.79 83.52 23.25"/></g><polygon class="cls-5" points="83.52 23.25 92.56 29.52 88.69 30.06 79.64 23.79 83.52 23.25"/></g><g class="cls-2"><polygon class="cls-3" points="92.56 29.52 85.67 46.66 81.8 47.2 88.69 30.06 92.56 29.52"/><g class="cls-75"><polygon class="cls-1" points="92.56 29.52 85.67 46.66 81.8 47.2 88.69 30.06 92.56 29.52"/></g><polygon class="cls-5" points="92.56 29.52 85.67 46.66 81.8 47.2 88.69 30.06 92.56 29.52"/></g><g class="cls-2"><polygon class="cls-3" points="85.67 46.66 81.8 47.2 61.84 29.1 65.71 28.56 85.67 46.66"/><g class="cls-76"><polygon class="cls-1" points="85.67 46.66 81.8 47.2 61.84 29.1 65.71 28.56 85.67 46.66"/></g><polygon class="cls-5" points="85.67 46.66 81.8 47.2 61.84 29.1 65.71 28.56 85.67 46.66"/></g><g class="cls-2"><polygon class="cls-3" points="65.71 28.56 61.84 29.1 64.9 8.9 68.77 8.36 65.71 28.56"/><g class="cls-77"><polygon class="cls-1" points="65.71 28.56 61.84 29.1 64.9 8.9 68.77 8.36 65.71 28.56"/></g><polygon class="cls-5" points="65.71 28.56 61.84 29.1 64.9 8.9 68.77 8.36 65.71 28.56"/></g><g class="cls-2"><polygon class="cls-3" points="68.77 8.36 39.81 32.24 35.93 32.79 64.9 8.9 68.77 8.36"/><g class="cls-78"><polygon class="cls-1" points="68.77 8.36 39.81 32.24 35.93 32.79 64.9 8.9 68.77 8.36"/></g><polygon class="cls-5" points="68.77 8.36 39.81 32.24 35.93 32.79 64.9 8.9 68.77 8.36"/></g><g class="cls-2"><polygon class="cls-3" points="39.81 32.24 35.93 32.79 3.26 5.71 7.13 5.16 39.81 32.24"/><g class="cls-79"><polygon class="cls-1" points="39.81 32.24 35.93 32.79 3.26 5.71 7.13 5.16 39.81 32.24"/></g><polygon class="cls-5" points="39.81 32.24 35.93 32.79 3.26 5.71 7.13 5.16 39.81 32.24"/></g><g class="cls-2"><polygon class="cls-3" points="7.13 5.16 21.5 60.84 17.62 61.38 3.26 5.71 7.13 5.16"/><g class="cls-80"><polygon class="cls-1" points="7.13 5.16 21.5 60.84 17.62 61.38 3.26 5.71 7.13 5.16"/></g><polygon class="cls-5" points="7.13 5.16 21.5 60.84 17.62 61.38 3.26 5.71 7.13 5.16"/></g><g class="cls-2"><polygon class="cls-3" points="21.5 60.84 83.51 60.59 79.64 61.14 17.62 61.38 21.5 60.84"/><g class="cls-81"><polygon class="cls-1" points="21.5 60.84 83.51 60.59 79.64 61.14 17.62 61.38 21.5 60.84"/></g><polygon class="cls-5" points="21.5 60.84 83.51 60.59 79.64 61.14 17.62 61.38 21.5 60.84"/></g><g class="cls-2"><polygon class="cls-3" points="83.51 60.59 77.91 83.96 74.04 84.51 79.64 61.14 83.51 60.59"/><g class="cls-82"><polygon class="cls-1" points="83.51 60.59 77.91 83.96 74.04 84.51 79.64 61.14 83.51 60.59"/></g><polygon class="cls-5" points="83.51 60.59 77.91 83.96 74.04 84.51 79.64 61.14 83.51 60.59"/></g><g class="cls-2"><polygon class="cls-3" points="77.91 83.96 74.04 84.51 85.57 61.54 89.45 60.99 77.91 83.96"/><g class="cls-83"><polygon class="cls-1" points="77.91 83.96 74.04 84.51 85.57 61.54 89.45 60.99 77.91 83.96"/></g><polygon class="cls-5" points="77.91 83.96 74.04 84.51 85.57 61.54 89.45 60.99 77.91 83.96"/></g><g class="cls-2"><polygon class="cls-3" points="89.45 60.99 140.89 60.79 137.02 61.33 85.57 61.54 89.45 60.99"/><g class="cls-84"><polygon class="cls-1" points="89.45 60.99 140.89 60.79 137.02 61.33 85.57 61.54 89.45 60.99"/></g><polygon class="cls-5" points="89.45 60.99 140.89 60.79 137.02 61.33 85.57 61.54 89.45 60.99"/></g><g class="cls-2"><polygon class="cls-3" points="140.89 60.79 135.99 84.86 132.11 85.41 137.02 61.33 140.89 60.79"/><g class="cls-85"><polygon class="cls-1" points="140.89 60.79 135.99 84.86 132.11 85.41 137.02 61.33 140.89 60.79"/></g><polygon class="cls-5" points="140.89 60.79 135.99 84.86 132.11 85.41 137.02 61.33 140.89 60.79"/></g><g class="cls-2"><path class="cls-3" d="M36.73,46.22,49.59,35l1,21.78-26.84.1L14.6,25.69Zm12.11,8.56-.74-16-11.33,9.9L18,31.29l6.94,23.58,23.93-.09"/><g class="cls-86"><path class="cls-1" d="M36.73,46.22,49.59,35l1,21.78-26.84.1L14.6,25.69Zm12.11,8.56-.74-16-11.33,9.9L18,31.29l6.94,23.58,23.93-.09"/></g><path class="cls-5" d="M36.73,46.22,49.59,35l1,21.78-26.84.1L14.6,25.69Zm12.11,8.56-.74-16-11.33,9.9L18,31.29l6.94,23.58,23.93-.09"/></g><g class="cls-2"><path class="cls-3" d="M40.61,45.67,53.47,34.44l1,21.78-26.84.1L18.47,25.14Zm12.1,8.56L52,38.28,40.65,48.17,21.85,30.74l6.93,23.58,23.93-.09"/><g class="cls-87"><path class="cls-1" d="M40.61,45.67,53.47,34.44l1,21.78-26.84.1L18.47,25.14Zm12.1,8.56L52,38.28,40.65,48.17,21.85,30.74l6.93,23.58,23.93-.09"/></g><path class="cls-5" d="M40.61,45.67,53.47,34.44l1,21.78-26.84.1L18.47,25.14Zm12.1,8.56L52,38.28,40.65,48.17,21.85,30.74l6.93,23.58,23.93-.09"/></g><g class="cls-2"><polygon class="cls-3" points="40.61 45.67 36.73 46.22 49.59 34.98 53.47 34.44 40.61 45.67"/><g class="cls-88"><polygon class="cls-1" points="40.61 45.67 36.73 46.22 49.59 34.98 53.47 34.44 40.61 45.67"/></g><polygon class="cls-5" points="40.61 45.67 36.73 46.22 49.59 34.98 53.47 34.44 40.61 45.67"/></g><g class="cls-2"><polygon class="cls-3" points="53.47 34.44 54.47 56.22 50.59 56.77 49.59 34.98 53.47 34.44"/><g class="cls-89"><polygon class="cls-1" points="53.47 34.44 54.47 56.22 50.59 56.77 49.59 34.98 53.47 34.44"/></g><polygon class="cls-5" points="53.47 34.44 54.47 56.22 50.59 56.77 49.59 34.98 53.47 34.44"/></g><g class="cls-2"><polygon class="cls-3" points="54.47 56.22 50.59 56.77 23.75 56.87 27.63 56.32 54.47 56.22"/><g class="cls-90"><polygon class="cls-1" points="54.47 56.22 50.59 56.77 23.75 56.87 27.63 56.32 54.47 56.22"/></g><polygon class="cls-5" points="54.47 56.22 50.59 56.77 23.75 56.87 27.63 56.32 54.47 56.22"/></g><g class="cls-2"><polygon class="cls-3" points="27.63 56.32 23.75 56.87 14.6 25.69 18.47 25.14 27.63 56.32"/><g class="cls-91"><polygon class="cls-1" points="27.63 56.32 23.75 56.87 14.6 25.69 18.47 25.14 27.63 56.32"/></g><polygon class="cls-5" points="27.63 56.32 23.75 56.87 14.6 25.69 18.47 25.14 27.63 56.32"/></g><g class="cls-2"><polygon class="cls-3" points="18.47 25.14 40.61 45.67 36.73 46.22 14.6 25.69 18.47 25.14"/><g class="cls-92"><polygon class="cls-1" points="18.47 25.14 40.61 45.67 36.73 46.22 14.6 25.69 18.47 25.14"/></g><polygon class="cls-5" points="18.47 25.14 40.61 45.67 36.73 46.22 14.6 25.69 18.47 25.14"/></g><g class="cls-2"><polygon class="cls-3" points="52.71 54.23 48.84 54.78 48.1 38.82 51.98 38.28 52.71 54.23"/><g class="cls-93"><polygon class="cls-1" points="52.71 54.23 48.84 54.78 48.1 38.82 51.98 38.28 52.71 54.23"/></g><polygon class="cls-5" points="52.71 54.23 48.84 54.78 48.1 38.82 51.98 38.28 52.71 54.23"/></g><g class="cls-2"><polygon class="cls-3" points="51.98 38.28 40.65 48.17 36.77 48.72 48.1 38.82 51.98 38.28"/><g class="cls-94"><polygon class="cls-1" points="51.98 38.28 40.65 48.17 36.77 48.72 48.1 38.82 51.98 38.28"/></g><polygon class="cls-5" points="51.98 38.28 40.65 48.17 36.77 48.72 48.1 38.82 51.98 38.28"/></g><g class="cls-2"><polygon class="cls-3" points="40.65 48.17 36.77 48.72 17.97 31.29 21.85 30.74 40.65 48.17"/><g class="cls-95"><polygon class="cls-1" points="40.65 48.17 36.77 48.72 17.97 31.29 21.85 30.74 40.65 48.17"/></g><polygon class="cls-5" points="40.65 48.17 36.77 48.72 17.97 31.29 21.85 30.74 40.65 48.17"/></g><g class="cls-2"><polygon class="cls-3" points="21.85 30.74 28.78 54.32 24.91 54.87 17.97 31.29 21.85 30.74"/><g class="cls-96"><polygon class="cls-1" points="21.85 30.74 28.78 54.32 24.91 54.87 17.97 31.29 21.85 30.74"/></g><polygon class="cls-5" points="21.85 30.74 28.78 54.32 24.91 54.87 17.97 31.29 21.85 30.74"/></g><g class="cls-2"><polygon class="cls-3" points="28.78 54.32 52.71 54.23 48.84 54.78 24.91 54.87 28.78 54.32"/><g class="cls-97"><polygon class="cls-1" points="28.78 54.32 52.71 54.23 48.84 54.78 24.91 54.87 28.78 54.32"/></g><polygon class="cls-5" points="28.78 54.32 52.71 54.23 48.84 54.78 24.91 54.87 28.78 54.32"/></g><g class="cls-2"><path class="cls-3" d="M58.52,35.58l23.2,21.06-22,.08Zm1.9,4.16.87,15,15.57-.07L60.42,39.74"/><g class="cls-98"><path class="cls-1" d="M58.52,35.58l23.2,21.06-22,.08Zm1.9,4.16.87,15,15.57-.07L60.42,39.74"/></g><path class="cls-5" d="M58.52,35.58l23.2,21.06-22,.08Zm1.9,4.16.87,15,15.57-.07L60.42,39.74"/></g><g class="cls-2"><path class="cls-3" d="M62.39,35l23.2,21.06-22,.09ZM64.3,39.2l.87,15,15.56-.07L64.3,39.2"/><g class="cls-99"><path class="cls-1" d="M62.39,35l23.2,21.06-22,.09ZM64.3,39.2l.87,15,15.56-.07L64.3,39.2"/></g><path class="cls-5" d="M62.39,35l23.2,21.06-22,.09ZM64.3,39.2l.87,15,15.56-.07L64.3,39.2"/></g><g class="cls-2"><polygon class="cls-3" points="62.39 35.03 85.59 56.09 81.72 56.64 58.52 35.58 62.39 35.03"/><g class="cls-100"><polygon class="cls-1" points="62.39 35.03 85.59 56.09 81.72 56.64 58.52 35.58 62.39 35.03"/></g><polygon class="cls-5" points="62.39 35.03 85.59 56.09 81.72 56.64 58.52 35.58 62.39 35.03"/></g><g class="cls-2"><polygon class="cls-3" points="85.59 56.09 81.72 56.64 59.74 56.73 63.62 56.18 85.59 56.09"/><g class="cls-101"><polygon class="cls-1" points="85.59 56.09 81.72 56.64 59.74 56.73 63.62 56.18 85.59 56.09"/></g><polygon class="cls-5" points="85.59 56.09 81.72 56.64 59.74 56.73 63.62 56.18 85.59 56.09"/></g><g class="cls-2"><polygon class="cls-3" points="63.62 56.18 59.74 56.73 58.52 35.58 62.39 35.03 63.62 56.18"/><g class="cls-102"><polygon class="cls-1" points="63.62 56.18 59.74 56.73 58.52 35.58 62.39 35.03 63.62 56.18"/></g><polygon class="cls-5" points="63.62 56.18 59.74 56.73 58.52 35.58 62.39 35.03 63.62 56.18"/></g><g class="cls-2"><polygon class="cls-3" points="64.3 39.2 65.17 54.18 61.29 54.73 60.42 39.74 64.3 39.2"/><g class="cls-103"><polygon class="cls-1" points="64.3 39.2 65.17 54.18 61.29 54.73 60.42 39.74 64.3 39.2"/></g><polygon class="cls-5" points="64.3 39.2 65.17 54.18 61.29 54.73 60.42 39.74 64.3 39.2"/></g><g class="cls-2"><polygon class="cls-3" points="65.17 54.18 80.73 54.11 76.86 54.66 61.29 54.73 65.17 54.18"/><g class="cls-104"><polygon class="cls-1" points="65.17 54.18 80.73 54.11 76.86 54.66 61.29 54.73 65.17 54.18"/></g><polygon class="cls-5" points="65.17 54.18 80.73 54.11 76.86 54.66 61.29 54.73 65.17 54.18"/></g><g class="cls-2"><polygon class="cls-3" points="80.73 54.11 76.86 54.66 60.42 39.74 64.3 39.2 80.73 54.11"/><g class="cls-105"><polygon class="cls-1" points="80.73 54.11 76.86 54.66 60.42 39.74 64.3 39.2 80.73 54.11"/></g><polygon class="cls-5" points="80.73 54.11 76.86 54.66 60.42 39.74 64.3 39.2 80.73 54.11"/></g><g class="cls-2"><path class="cls-3" d="M96.14,50.64l47.5.27-7.07,7.21h-.3l-49.47.19,7.74-22.9.42.13.77.22.42.12Zm39.75,5.49,3.19-3.25-44.61-.26V41L89.3,56.32l46.59-.19"/><g class="cls-106"><path class="cls-1" d="M96.14,50.64l47.5.27-7.07,7.21h-.3l-49.47.19,7.74-22.9.42.13.77.22.42.12Zm39.75,5.49,3.19-3.25-44.61-.26V41L89.3,56.32l46.59-.19"/></g><path class="cls-5" d="M96.14,50.64l47.5.27-7.07,7.21h-.3l-49.47.19,7.74-22.9.42.13.77.22.42.12Zm39.75,5.49,3.19-3.25-44.61-.26V41L89.3,56.32l46.59-.19"/></g><g class="cls-2"><path class="cls-3" d="M100,50.09l47.5.28-7.07,7.21h-.29l-49.48.2,7.75-22.9.42.12.76.23.42.12Zm39.75,5.49L143,52.34l-44.6-.27V40.47L93.18,55.78l46.58-.2"/><g class="cls-107"><path class="cls-1" d="M100,50.09l47.5.28-7.07,7.21h-.29l-49.48.2,7.75-22.9.42.12.76.23.42.12Zm39.75,5.49L143,52.34l-44.6-.27V40.47L93.18,55.78l46.58-.2"/></g><path class="cls-5" d="M100,50.09l47.5.28-7.07,7.21h-.29l-49.48.2,7.75-22.9.42.12.76.23.42.12Zm39.75,5.49L143,52.34l-44.6-.27V40.47L93.18,55.78l46.58-.2"/></g><g class="cls-2"><polygon class="cls-3" points="100.02 50.09 147.51 50.37 143.64 50.91 96.14 50.64 100.02 50.09"/><g class="cls-108"><polygon class="cls-1" points="100.02 50.09 147.51 50.37 143.64 50.91 96.14 50.64 100.02 50.09"/></g><polygon class="cls-5" points="100.02 50.09 147.51 50.37 143.64 50.91 96.14 50.64 100.02 50.09"/></g><g class="cls-2"><polygon class="cls-3" points="147.51 50.37 140.44 57.58 136.57 58.12 143.64 50.91 147.51 50.37"/><g class="cls-109"><polygon class="cls-1" points="147.51 50.37 140.44 57.58 136.57 58.12 143.64 50.91 147.51 50.37"/></g><polygon class="cls-5" points="147.51 50.37 140.44 57.58 136.57 58.12 143.64 50.91 147.51 50.37"/></g><g class="cls-2"><polygon class="cls-3" points="140.44 57.58 136.57 58.12 136.27 58.13 140.15 57.59 140.44 57.58"/><g class="cls-110"><polygon class="cls-1" points="140.44 57.58 136.57 58.12 136.27 58.13 140.15 57.59 140.44 57.58"/></g><polygon class="cls-5" points="140.44 57.58 136.57 58.12 136.27 58.13 140.15 57.59 140.44 57.58"/></g><g class="cls-2"><polygon class="cls-3" points="140.15 57.59 136.27 58.13 86.8 58.32 90.67 57.78 140.15 57.59"/><g class="cls-111"><polygon class="cls-1" points="140.15 57.59 136.27 58.13 86.8 58.32 90.67 57.78 140.15 57.59"/></g><polygon class="cls-5" points="140.15 57.59 136.27 58.13 86.8 58.32 90.67 57.78 140.15 57.59"/></g><g class="cls-2"><polygon class="cls-3" points="90.67 57.78 86.8 58.32 94.54 35.42 98.42 34.88 90.67 57.78"/><g class="cls-112"><polygon class="cls-1" points="90.67 57.78 86.8 58.32 94.54 35.42 98.42 34.88 90.67 57.78"/></g><polygon class="cls-5" points="90.67 57.78 86.8 58.32 94.54 35.42 98.42 34.88 90.67 57.78"/></g><g class="cls-2"><polygon class="cls-3" points="98.42 34.88 98.84 35 94.97 35.55 94.54 35.42 98.42 34.88"/><g class="cls-113"><polygon class="cls-1" points="98.42 34.88 98.84 35 94.97 35.55 94.54 35.42 98.42 34.88"/></g><polygon class="cls-5" points="98.42 34.88 98.84 35 94.97 35.55 94.54 35.42 98.42 34.88"/></g><g class="cls-2"><polygon class="cls-3" points="98.84 35 99.6 35.23 95.73 35.77 94.97 35.55 98.84 35"/><g class="cls-114"><polygon class="cls-1" points="98.84 35 99.6 35.23 95.73 35.77 94.97 35.55 98.84 35"/></g><polygon class="cls-5" points="98.84 35 99.6 35.23 95.73 35.77 94.97 35.55 98.84 35"/></g><g class="cls-2"><polygon class="cls-3" points="99.6 35.23 100.02 35.35 96.15 35.89 95.73 35.77 99.6 35.23"/><g class="cls-115"><polygon class="cls-1" points="99.6 35.23 100.02 35.35 96.15 35.89 95.73 35.77 99.6 35.23"/></g><polygon class="cls-5" points="99.6 35.23 100.02 35.35 96.15 35.89 95.73 35.77 99.6 35.23"/></g><g class="cls-2"><polygon class="cls-3" points="100.02 35.35 100.02 50.09 96.14 50.64 96.15 35.89 100.02 35.35"/><g class="cls-116"><polygon class="cls-1" points="100.02 35.35 100.02 50.09 96.14 50.64 96.15 35.89 100.02 35.35"/></g><polygon class="cls-5" points="100.02 35.35 100.02 50.09 96.14 50.64 96.15 35.89 100.02 35.35"/></g><g class="cls-2"><polygon class="cls-3" points="139.76 55.59 135.89 56.13 139.08 52.88 142.95 52.34 139.76 55.59"/><g class="cls-117"><polygon class="cls-1" points="139.76 55.59 135.89 56.13 139.08 52.88 142.95 52.34 139.76 55.59"/></g><polygon class="cls-5" points="139.76 55.59 135.89 56.13 139.08 52.88 142.95 52.34 139.76 55.59"/></g><g class="cls-2"><polygon class="cls-3" points="142.95 52.34 139.08 52.88 94.47 52.62 98.35 52.07 142.95 52.34"/><g class="cls-118"><polygon class="cls-1" points="142.95 52.34 139.08 52.88 94.47 52.62 98.35 52.07 142.95 52.34"/></g><polygon class="cls-5" points="142.95 52.34 139.08 52.88 94.47 52.62 98.35 52.07 142.95 52.34"/></g><g class="cls-2"><polygon class="cls-3" points="98.35 52.07 94.47 52.62 94.48 41.02 98.35 40.47 98.35 52.07"/><g class="cls-119"><polygon class="cls-1" points="98.35 52.07 94.47 52.62 94.48 41.02 98.35 40.47 98.35 52.07"/></g><polygon class="cls-5" points="98.35 52.07 94.47 52.62 94.48 41.02 98.35 40.47 98.35 52.07"/></g><g class="cls-2"><polygon class="cls-3" points="98.35 40.47 93.18 55.78 89.31 56.32 94.48 41.02 98.35 40.47"/><g class="cls-120"><polygon class="cls-1" points="98.35 40.47 93.18 55.78 89.31 56.32 94.48 41.02 98.35 40.47"/></g><polygon class="cls-5" points="98.35 40.47 93.18 55.78 89.31 56.32 94.48 41.02 98.35 40.47"/></g><g class="cls-2"><polygon class="cls-3" points="93.18 55.78 139.76 55.59 135.89 56.13 89.31 56.32 93.18 55.78"/><g class="cls-121"><polygon class="cls-1" points="93.18 55.78 139.76 55.59 135.89 56.13 89.31 56.32 93.18 55.78"/></g><polygon class="cls-5" points="93.18 55.78 139.76 55.59 135.89 56.13 89.31 56.32 93.18 55.78"/></g></g></g></g></svg>