<svg xmlns="http://www.w3.org/2000/svg" xmlns:xlink="http://www.w3.org/1999/xlink" viewBox="0 0 208 96.26"><defs><style>.cls-1,.cls-3{fill:#fff;}.cls-1,.cls-5{stroke:#675d56;stroke-miterlimit:10;stroke-width:0.25px;}.cls-2{isolation:isolate;}.cls-4{clip-path:url(#clip-path);}.cls-5{fill:none;}.cls-6{clip-path:url(#clip-path-2);}.cls-7{clip-path:url(#clip-path-3);}.cls-8{clip-path:url(#clip-path-4);}.cls-9{clip-path:url(#clip-path-5);}.cls-10{clip-path:url(#clip-path-6);}.cls-11{clip-path:url(#clip-path-7);}.cls-12{clip-path:url(#clip-path-8);}.cls-13{clip-path:url(#clip-path-9);}.cls-14{clip-path:url(#clip-path-10);}.cls-15{clip-path:url(#clip-path-11);}.cls-16{clip-path:url(#clip-path-12);}.cls-17{clip-path:url(#clip-path-13);}.cls-18{clip-path:url(#clip-path-14);}.cls-19{clip-path:url(#clip-path-15);}.cls-20{clip-path:url(#clip-path-16);}.cls-21{clip-path:url(#clip-path-17);}.cls-22{clip-path:url(#clip-path-18);}.cls-23{clip-path:url(#clip-path-19);}.cls-24{clip-path:url(#clip-path-20);}.cls-25{clip-path:url(#clip-path-21);}.cls-26{clip-path:url(#clip-path-22);}.cls-27{clip-path:url(#clip-path-23);}.cls-28{clip-path:url(#clip-path-24);}.cls-29{clip-path:url(#clip-path-25);}.cls-30{clip-path:url(#clip-path-26);}.cls-31{clip-path:url(#clip-path-27);}.cls-32{clip-path:url(#clip-path-28);}.cls-33{clip-path:url(#clip-path-29);}.cls-34{clip-path:url(#clip-path-30);}.cls-35{clip-path:url(#clip-path-31);}.cls-36{clip-path:url(#clip-path-32);}.cls-37{clip-path:url(#clip-path-33);}.cls-38{clip-path:url(#clip-path-34);}.cls-39{clip-path:url(#clip-path-35);}.cls-40{clip-path:url(#clip-path-36);}.cls-41{clip-path:url(#clip-path-37);}.cls-42{clip-path:url(#clip-path-38);}.cls-43{clip-path:url(#clip-path-39);}.cls-44{clip-path:url(#clip-path-40);}.cls-45{clip-path:url(#clip-path-41);}.cls-46{clip-path:url(#clip-path-42);}.cls-47{clip-path:url(#clip-path-43);}.cls-48{clip-path:url(#clip-path-44);}.cls-49{clip-path:url(#clip-path-45);}.cls-50{clip-path:url(#clip-path-46);}.cls-51{clip-path:url(#clip-path-47);}.cls-52{clip-path:url(#clip-path-48);}.cls-53{clip-path:url(#clip-path-49);}.cls-54{clip-path:url(#clip-path-50);}.cls-55{clip-path:url(#clip-path-51);}.cls-56{clip-path:url(#clip-path-52);}.cls-57{clip-path:url(#clip-path-53);}.cls-58{clip-path:url(#clip-path-54);}.cls-59{clip-path:url(#clip-path-55);}.cls-60{clip-path:url(#clip-path-56);}.cls-61{clip-path:url(#clip-path-57);}.cls-62{clip-path:url(#clip-path-58);}.cls-63{clip-path:url(#clip-path-59);}.cls-64{clip-path:url(#clip-path-60);}.cls-65{clip-path:url(#clip-path-61);}.cls-66{clip-path:url(#clip-path-62);}.cls-67{clip-path:url(#clip-path-63);}.cls-68{clip-path:url(#clip-path-64);}.cls-69{clip-path:url(#clip-path-65);}.cls-70{clip-path:url(#clip-path-66);}.cls-71{clip-path:url(#clip-path-67);}.cls-72{clip-path:url(#clip-path-68);}.cls-73{clip-path:url(#clip-path-69);}.cls-74{clip-path:url(#clip-path-70);}.cls-75{clip-path:url(#clip-path-71);}.cls-76{clip-path:url(#clip-path-72);}.cls-77{clip-path:url(#clip-path-73);}.cls-78{clip-path:url(#clip-path-74);}.cls-79{clip-path:url(#clip-path-75);}.cls-80{clip-path:url(#clip-path-76);}.cls-81{clip-path:url(#clip-path-77);}.cls-82{clip-path:url(#clip-path-78);}.cls-83{clip-path:url(#clip-path-79);}.cls-84{clip-path:url(#clip-path-80);}.cls-85{clip-path:url(#clip-path-81);}.cls-86{clip-path:url(#clip-path-82);}.cls-87{clip-path:url(#clip-path-83);}.cls-88{clip-path:url(#clip-path-84);}.cls-89{clip-path:url(#clip-path-85);}.cls-90{clip-path:url(#clip-path-86);}.cls-91{clip-path:url(#clip-path-87);}.cls-92{clip-path:url(#clip-path-88);}.cls-93{clip-path:url(#clip-path-89);}.cls-94{clip-path:url(#clip-path-90);}.cls-95{clip-path:url(#clip-path-91);}.cls-96{clip-path:url(#clip-path-92);}.cls-97{clip-path:url(#clip-path-93);}.cls-98{clip-path:url(#clip-path-94);}.cls-99{clip-path:url(#clip-path-95);}.cls-100{clip-path:url(#clip-path-96);}.cls-101{clip-path:url(#clip-path-97);}.cls-102{clip-path:url(#clip-path-98);}.cls-103{clip-path:url(#clip-path-99);}.cls-104{clip-path:url(#clip-path-100);}.cls-105{clip-path:url(#clip-path-101);}.cls-106{clip-path:url(#clip-path-102);}.cls-107{clip-path:url(#clip-path-103);}.cls-108{clip-path:url(#clip-path-104);}.cls-109{clip-path:url(#clip-path-105);}.cls-110{clip-path:url(#clip-path-106);}.cls-111{clip-path:url(#clip-path-107);}.cls-112{clip-path:url(#clip-path-108);}.cls-113{clip-path:url(#clip-path-109);}.cls-114{clip-path:url(#clip-path-110);}.cls-115{clip-path:url(#clip-path-111);}.cls-116{clip-path:url(#clip-path-112);}.cls-117{clip-path:url(#clip-path-113);}.cls-118{clip-path:url(#clip-path-114);}.cls-119{clip-path:url(#clip-path-115);}.cls-120{clip-path:url(#clip-path-116);}.cls-121{clip-path:url(#clip-path-117);}</style><clipPath id="clip-path"><path class="cls-1" d="M203.25,17.71a.58.58,0,0,1-.05.68l-.55-.9a.45.45,0,0,1,.28,0A.55.55,0,0,1,203.25,17.71Z"/></clipPath><clipPath id="clip-path-2"><path class="cls-1" d="M207.75,18.83a.57.57,0,0,1-.06.68l-.53-.91a.36.36,0,0,1,.27,0A.52.52,0,0,1,207.75,18.83Z"/></clipPath><clipPath id="clip-path-3"><path class="cls-1" d="M207.75,18.83a.57.57,0,0,1-.06.68c-1.5-.39-3-.76-4.49-1.12a.58.58,0,0,0,.05-.68C204.75,18.07,206.25,18.44,207.75,18.83Z"/></clipPath><clipPath id="clip-path-4"><path class="cls-1" d="M207.69,19.51c-1.5-.39-3-.76-4.49-1.12l-.55-.9c1.51.36,3,.73,4.51,1.11Z"/></clipPath><clipPath id="clip-path-5"><path class="cls-1" d="M207.16,18.6c-1.5-.38-3-.75-4.51-1.11a.45.45,0,0,1,.28,0c1.5.36,3,.73,4.5,1.12A.36.36,0,0,0,207.16,18.6Z"/></clipPath><clipPath id="clip-path-6"><path class="cls-1" d="M207.43,18.58a.52.52,0,0,1,.32.25c-1.5-.39-3-.76-4.5-1.12a.55.55,0,0,0-.32-.25C204.28,17.79,206.08,18.23,207.43,18.58Z"/></clipPath><clipPath id="clip-path-7"><path class="cls-1" d="M138.52,95.8a.69.69,0,0,1-.14-.58l.56.53a.29.29,0,0,1-.23.13A.25.25,0,0,1,138.52,95.8Z"/></clipPath><clipPath id="clip-path-8"><path class="cls-1" d="M141.86,95.81a.63.63,0,0,1-.13-.58l.55.54a.33.33,0,0,1-.24.12A.22.22,0,0,1,141.86,95.81Z"/></clipPath><clipPath id="clip-path-9"><path class="cls-1" d="M141.86,95.81h-3.34a.69.69,0,0,1-.14-.58h3.35A.63.63,0,0,0,141.86,95.81Z"/></clipPath><clipPath id="clip-path-10"><path class="cls-1" d="M141.73,95.23l.55.54-3.34,0-.56-.53Z"/></clipPath><clipPath id="clip-path-11"><path class="cls-1" d="M142.28,95.77a.33.33,0,0,1-.24.12c-1.11,0-2.23,0-3.33,0a.29.29,0,0,0,.23-.13Z"/></clipPath><clipPath id="clip-path-12"><path class="cls-1" d="M142,95.89c-1.11,0-2.23,0-3.33,0a.25.25,0,0,1-.19-.08h3.34A.22.22,0,0,0,142,95.89Z"/></clipPath><clipPath id="clip-path-13"><path class="cls-1" d="M128,11a.37.37,0,0,1,.27-.12.41.41,0,0,1,.32.12l-.69.65A.55.55,0,0,1,128,11Z"/></clipPath><clipPath id="clip-path-14"><path class="cls-1" d="M132.41,10.78a.43.43,0,0,1,.28-.11.47.47,0,0,1,.32.13l-.71.64A.57.57,0,0,1,132.41,10.78Z"/></clipPath><clipPath id="clip-path-15"><path class="cls-1" d="M132.41,10.78c-1.48.05-3,.1-4.45.17a.37.37,0,0,1,.27-.12c1.48-.07,3-.12,4.46-.16A.43.43,0,0,0,132.41,10.78Z"/></clipPath><clipPath id="clip-path-16"><path class="cls-1" d="M132.69,10.67a.47.47,0,0,1,.32.13c-1.49,0-3,.09-4.46.15a.41.41,0,0,0-.32-.12C129.57,10.77,131.35,10.71,132.69,10.67Z"/></clipPath><clipPath id="clip-path-17"><path class="cls-1" d="M133,10.8l-.71.64c-1.48,0-3,.09-4.44.16l.69-.65C130,10.89,131.52,10.84,133,10.8Z"/></clipPath><clipPath id="clip-path-18"><path class="cls-1" d="M132.3,11.44c-1.48,0-3,.09-4.44.16A.55.55,0,0,1,128,11c1.48-.07,3-.12,4.45-.17A.57.57,0,0,0,132.3,11.44Z"/></clipPath><clipPath id="clip-path-19"><path class="cls-1" d="M89.06,93.78a.67.67,0,0,1-.24-.57l.66.41a.34.34,0,0,1-.22.19A.25.25,0,0,1,89.06,93.78Z"/></clipPath><clipPath id="clip-path-20"><path class="cls-1" d="M92.31,93a.67.67,0,0,1-.24-.57l.65.41a.3.3,0,0,1-.21.19A.25.25,0,0,1,92.31,93Z"/></clipPath><clipPath id="clip-path-21"><path class="cls-1" d="M92.31,93c-1.09.26-2.17.52-3.25.8a.67.67,0,0,1-.24-.57c1.08-.28,2.16-.54,3.25-.8A.67.67,0,0,0,92.31,93Z"/></clipPath><clipPath id="clip-path-22"><path class="cls-1" d="M92.07,92.41l.65.41c-1.08.26-2.17.52-3.24.8l-.66-.41C89.9,92.93,91,92.67,92.07,92.41Z"/></clipPath><clipPath id="clip-path-23"><path class="cls-1" d="M92.72,92.82a.3.3,0,0,1-.21.19l-3.25.8a.34.34,0,0,0,.22-.19C90.45,93.37,91.75,93.05,92.72,92.82Z"/></clipPath><clipPath id="clip-path-24"><path class="cls-1" d="M92.51,93l-3.25.8a.25.25,0,0,1-.2,0c1.08-.28,2.16-.54,3.25-.8A.25.25,0,0,0,92.51,93Z"/></clipPath><clipPath id="clip-path-25"><path class="cls-1" d="M110.51,32.94a.42.42,0,0,1,.16,0,.55.55,0,0,1,.35.45l-.8-.26A.37.37,0,0,1,110.51,32.94Z"/></clipPath><clipPath id="clip-path-26"><path class="cls-1" d="M114.64,32.49a.26.26,0,0,1,.15,0,.53.53,0,0,1,.34.45l-.8-.27A.42.42,0,0,1,114.64,32.49Z"/></clipPath><clipPath id="clip-path-27"><path class="cls-1" d="M114.64,32.49a.26.26,0,0,1,.15,0,.53.53,0,0,1,.34.45c-1.37.14-2.74.28-4.11.44a.55.55,0,0,0-.35-.45.42.42,0,0,0-.16,0C111.75,32.79,113.4,32.61,114.64,32.49Z"/></clipPath><clipPath id="clip-path-28"><path class="cls-1" d="M115.13,33c-1.37.14-2.74.28-4.11.44l-.8-.26q2.06-.24,4.11-.45Z"/></clipPath><clipPath id="clip-path-29"><path class="cls-1" d="M114.33,32.69q-2.06.21-4.11.45a.37.37,0,0,1,.29-.2c1.38-.16,2.75-.31,4.13-.45A.42.42,0,0,0,114.33,32.69Z"/></clipPath><clipPath id="clip-path-30"><path class="cls-1" d="M203.2,18.39a332.67,332.67,0,0,0-64,77.65l-.86-.82q4.31-14.32,9.15-28.52a227.52,227.52,0,0,0-45.89-3.85Q95,78.17,89.81,93.82l-1-.61q1.7-15.27,4.08-30.51A228.14,228.14,0,0,0,35.58,73.35,575.61,575.61,0,0,0,.33,16.06,250.53,250.53,0,0,1,47,34.08,280.79,280.79,0,0,1,78.35,1.27Q77.22,14.1,76.43,26.93q10.21,7.35,19.42,15.46,2.55-7.2,5.36-14.34c-4.68-3.11-9.51-6.11-14.47-9q12.09-.86,24.23-.61,6.78-8.84,14.32-17.32-1.61,11.1-3.08,22.22-.09,9.74-.24,19.48,11.82.8,23.55,2.73a317.83,317.83,0,0,0-18-33.65l1.05-1a281.07,281.07,0,0,1,21.33,25.57q4.25,6.06,8.11,12.24,6.42-5.48,13.27-10.6A275.7,275.7,0,0,1,202.37,17Zm-61.77,71a330.5,330.5,0,0,1,52.95-65A270.82,270.82,0,0,0,172.22,40q-7.56,5.63-14.59,11.68-4.31-7-9.07-13.75-6.72-9.34-14.34-18.32a321.22,321.22,0,0,1,14.45,28.71,243.18,243.18,0,0,0-28.42-3.4q.1-10.92.15-21.84,1-7.74,2-15.46-5.5,6.42-10.58,13-9.15-.21-18.29.2,5.1,3.12,10,6.43-3.69,9.14-6.93,18.35A253.5,253.5,0,0,0,74.54,28Q75.14,17.11,76,6.24a278.62,278.62,0,0,0-28.4,30.35,247.8,247.8,0,0,0-42.37-17A576,576,0,0,1,36.15,71,230,230,0,0,1,95,60.48Q92.7,73,90.94,85.57q4.36-12.51,9.73-24.83A229.58,229.58,0,0,1,149.9,65q-4.46,12.1-8.47,24.36"/></clipPath><clipPath id="clip-path-31"><path class="cls-1" d="M207.69,19.51a331.25,331.25,0,0,0-65.12,76.55l-.84-.83q4.5-14.26,9.54-28.37a228.51,228.51,0,0,0-45.94-4.6Q98.42,77.46,93.06,93l-1-.62Q94,77.16,96.58,62A228.62,228.62,0,0,0,39,71.69,579.35,579.35,0,0,0,4.53,13.83,252.07,252.07,0,0,1,51,32.61,281,281,0,0,1,82.85.3q-1.29,12.81-2.27,25.63Q90.71,33.45,99.82,41.7q2.64-7.16,5.57-14.25-7-4.78-14.38-9.19,12.12-.66,24.28-.22Q122.21,9.31,129.87,1,128.11,12,126.49,23.12q-.22,9.73-.51,19.48,11.83,1,23.56,3.12a321,321,0,0,0-17.6-33.95c.35-.33.71-.65,1.07-1a284,284,0,0,1,21,25.92q4.17,6.12,8,12.38,6.51-5.37,13.44-10.38a272.67,272.67,0,0,1,31.46-20.59C207.15,18.59,207.42,19.05,207.69,19.51ZM144.86,89.43a328.94,328.94,0,0,1,53.92-64.1q-11.72,7.13-22.41,15.21Q168.72,46,161.59,52q-4.22-7-8.9-13.9-6.6-9.46-14.13-18.56a321.4,321.4,0,0,1,14.1,29,244.22,244.22,0,0,0-28.43-3.87q.26-10.92.45-21.84c.72-5.14,1.47-10.29,2.23-15.42q-5.59,6.32-10.77,12.87-9.17-.37-18.32-.11,5.07,3.21,9.92,6.6-3.81,9.06-7.19,18.23A253.93,253.93,0,0,0,78.67,27q.75-10.86,1.73-21.71A279.69,279.69,0,0,0,51.53,35.12,250.66,250.66,0,0,0,9.36,17.45,584.32,584.32,0,0,1,39.62,69.31a230,230,0,0,1,59.05-9.53q-2.43,12.48-4.37,25,4.55-12.45,10.09-24.67a230.54,230.54,0,0,1,49.28,5.08q-4.62,12-8.81,24.22"/></clipPath><clipPath id="clip-path-32"><path class="cls-1" d="M207.69,19.51a331.25,331.25,0,0,0-65.12,76.55c-1.11,0-2.22,0-3.33,0a332.67,332.67,0,0,1,64-77.65C204.69,18.75,206.19,19.12,207.69,19.51Z"/></clipPath><clipPath id="clip-path-33"><path class="cls-1" d="M142.57,96.06c-1.11,0-2.22,0-3.33,0l-.86-.82h3.35Z"/></clipPath><clipPath id="clip-path-34"><path class="cls-1" d="M141.73,95.23h-3.35q4.31-14.32,9.15-28.52c1.25,0,2.49.1,3.74.16Q146.23,81,141.73,95.23Z"/></clipPath><clipPath id="clip-path-35"><path class="cls-1" d="M151.27,66.86c-1.25-.06-2.49-.12-3.74-.16a227.52,227.52,0,0,0-45.89-3.85c1.23-.21,2.46-.41,3.69-.59A228.51,228.51,0,0,1,151.27,66.86Z"/></clipPath><clipPath id="clip-path-36"><path class="cls-1" d="M105.33,62.26Q98.42,77.46,93.06,93l-3.25.79q5.14-15.63,11.83-31C102.87,62.64,104.1,62.44,105.33,62.26Z"/></clipPath><clipPath id="clip-path-37"><path class="cls-1" d="M93.06,93l-3.25.79-1-.61c1.08-.28,2.16-.54,3.25-.8Z"/></clipPath><clipPath id="clip-path-38"><path class="cls-1" d="M92.07,92.41c-1.09.26-2.17.52-3.25.8q1.7-15.27,4.08-30.51L96.58,62Q94,77.16,92.07,92.41Z"/></clipPath><clipPath id="clip-path-39"><path class="cls-1" d="M96.58,62l-3.68.74A228.14,228.14,0,0,0,35.58,73.35c1.14-.56,2.28-1.12,3.43-1.66A228.62,228.62,0,0,1,96.58,62Z"/></clipPath><clipPath id="clip-path-40"><path class="cls-1" d="M39,71.69c-1.15.54-2.29,1.1-3.43,1.66A575.61,575.61,0,0,0,.33,16.06q2.1-1.14,4.2-2.23A579.35,579.35,0,0,1,39,71.69Z"/></clipPath><clipPath id="clip-path-41"><path class="cls-1" d="M4.53,13.83A252.07,252.07,0,0,1,51,32.61c-1.34.48-2.67,1-4,1.47a250.53,250.53,0,0,0-46.68-18Q2.43,14.92,4.53,13.83Z"/></clipPath><clipPath id="clip-path-42"><path class="cls-1" d="M51,32.61c-1.34.48-2.67,1-4,1.47A280.79,280.79,0,0,1,78.35,1.27c1.5-.34,3-.66,4.5-1A281,281,0,0,0,51,32.61Z"/></clipPath><clipPath id="clip-path-43"><path class="cls-1" d="M82.85.3q-1.29,12.81-2.27,25.63c-1.39.32-2.77.65-4.15,1q.79-12.84,1.92-25.66C79.85.93,81.35.61,82.85.3Z"/></clipPath><clipPath id="clip-path-44"><path class="cls-1" d="M80.58,25.93Q90.71,33.45,99.82,41.7c-1.33.22-2.65.45-4,.69q-9.19-8.1-19.42-15.46C77.81,26.58,79.19,26.25,80.58,25.93Z"/></clipPath><clipPath id="clip-path-45"><path class="cls-1" d="M99.82,41.7c-1.33.22-2.65.45-4,.69q2.55-7.2,5.36-14.34c1.39-.21,2.78-.41,4.18-.6Q102.47,34.55,99.82,41.7Z"/></clipPath><clipPath id="clip-path-46"><path class="cls-1" d="M105.39,27.45c-1.4.19-2.79.39-4.18.6-4.68-3.11-9.51-6.11-14.47-9,1.42-.29,2.84-.56,4.27-.83Q98.41,22.66,105.39,27.45Z"/></clipPath><clipPath id="clip-path-47"><path class="cls-1" d="M91,18.26q12.12-.66,24.28-.22l-4.32.44q-12.12-.24-24.23.61C88.16,18.8,89.58,18.53,91,18.26Z"/></clipPath><clipPath id="clip-path-48"><path class="cls-1" d="M115.29,18l-4.32.44q6.78-8.84,14.32-17.32c1.52-.08,3-.15,4.58-.21Q122.21,9.3,115.29,18Z"/></clipPath><clipPath id="clip-path-49"><path class="cls-1" d="M129.87,1Q128.11,12,126.49,23.12c-1.43.07-2.86.16-4.28.26q1.49-11.13,3.08-22.22C126.81,1.08,128.34,1,129.87,1Z"/></clipPath><clipPath id="clip-path-50"><path class="cls-1" d="M126.49,23.12q-.22,9.73-.51,19.48c-1.34.08-2.67.16-4,.26q.15-9.73.24-19.48C123.63,23.28,125.06,23.19,126.49,23.12Z"/></clipPath><clipPath id="clip-path-51"><path class="cls-1" d="M126,42.6q11.83,1,23.56,3.12c-1.34,0-2.68-.1-4-.13Q133.81,43.65,122,42.86C123.31,42.76,124.64,42.68,126,42.6Z"/></clipPath><clipPath id="clip-path-52"><path class="cls-1" d="M149.54,45.72c-1.34,0-2.68-.1-4-.13a317.83,317.83,0,0,0-18-33.65c1.48-.07,3-.13,4.44-.17A321,321,0,0,1,149.54,45.72Z"/></clipPath><clipPath id="clip-path-53"><path class="cls-1" d="M131.94,11.77c-1.48,0-3,.1-4.44.17l1.05-1c1.49-.06,3-.11,4.46-.15C132.65,11.12,132.29,11.44,131.94,11.77Z"/></clipPath><clipPath id="clip-path-54"><path class="cls-1" d="M133,10.8a284,284,0,0,1,21,25.92c-1.38-.08-2.76-.14-4.15-.2A281.07,281.07,0,0,0,128.55,11C130,10.89,131.52,10.84,133,10.8Z"/></clipPath><clipPath id="clip-path-55"><path class="cls-1" d="M154,36.72q4.17,6.12,8,12.38c-1.33-.13-2.67-.24-4-.34q-3.87-6.18-8.11-12.24C151.27,36.58,152.65,36.64,154,36.72Z"/></clipPath><clipPath id="clip-path-56"><path class="cls-1" d="M162,49.1c-1.33-.13-2.67-.24-4-.34q6.42-5.48,13.27-10.6c1.39.17,2.78.36,4.17.56Q168.5,43.73,162,49.1Z"/></clipPath><clipPath id="clip-path-57"><path class="cls-1" d="M175.43,38.72c-1.39-.2-2.78-.39-4.17-.56A275.7,275.7,0,0,1,202.37,17c1.51.36,3,.72,4.52,1.1A272.67,272.67,0,0,0,175.43,38.72Z"/></clipPath><clipPath id="clip-path-58"><path class="cls-1" d="M206.89,18.13c.26.46.53.92.8,1.38-1.5-.39-3-.76-4.49-1.12L202.37,17C203.88,17.39,205.38,17.75,206.89,18.13Z"/></clipPath><clipPath id="clip-path-59"><path class="cls-1" d="M144.86,89.43l-3.43-.06a330.5,330.5,0,0,1,52.95-65c1.47.31,2.93.63,4.4,1A328.94,328.94,0,0,0,144.86,89.43Z"/></clipPath><clipPath id="clip-path-60"><path class="cls-1" d="M198.78,25.33q-11.72,7.13-22.41,15.21c-1.39-.2-2.77-.4-4.15-.58a270.82,270.82,0,0,1,22.16-15.59C195.85,24.68,197.31,25,198.78,25.33Z"/></clipPath><clipPath id="clip-path-61"><path class="cls-1" d="M176.37,40.54Q168.72,46,161.59,52l-4-.33q7-6,14.59-11.68C173.6,40.14,175,40.34,176.37,40.54Z"/></clipPath><clipPath id="clip-path-62"><path class="cls-1" d="M161.59,52l-4-.33q-4.31-7-9.07-13.75l4.13.18Q157.39,44.94,161.59,52Z"/></clipPath><clipPath id="clip-path-63"><path class="cls-1" d="M152.69,38.07l-4.13-.18q-6.72-9.34-14.34-18.32c1.44,0,2.89-.05,4.34-.06Q146.09,28.6,152.69,38.07Z"/></clipPath><clipPath id="clip-path-64"><path class="cls-1" d="M138.56,19.51a321.4,321.4,0,0,1,14.1,29q-2-.1-4-.18a321.22,321.22,0,0,0-14.45-28.71C135.66,19.54,137.11,19.52,138.56,19.51Z"/></clipPath><clipPath id="clip-path-65"><path class="cls-1" d="M152.66,48.46q-2-.1-4-.18a243.18,243.18,0,0,0-28.42-3.4c1.32-.11,2.65-.21,4-.29A244.22,244.22,0,0,1,152.66,48.46Z"/></clipPath><clipPath id="clip-path-66"><path class="cls-1" d="M124.23,44.59c-1.33.08-2.66.18-4,.29q.1-10.92.15-21.84c1.43-.11,2.85-.21,4.28-.29Q124.48,33.67,124.23,44.59Z"/></clipPath><clipPath id="clip-path-67"><path class="cls-1" d="M124.68,22.75c-1.43.08-2.85.18-4.28.29q1-7.74,2-15.46c1.49-.1,3-.18,4.48-.25C126.15,12.46,125.4,17.61,124.68,22.75Z"/></clipPath><clipPath id="clip-path-68"><path class="cls-1" d="M126.91,7.33q-5.59,6.32-10.77,12.87c-1.43.13-2.87.27-4.29.42q5.07-6.61,10.58-13C123.92,7.48,125.42,7.4,126.91,7.33Z"/></clipPath><clipPath id="clip-path-69"><path class="cls-1" d="M116.14,20.2c-1.43.13-2.87.27-4.29.42q-9.15-.21-18.29.2c1.42-.26,2.84-.5,4.26-.73Q107,19.84,116.14,20.2Z"/></clipPath><clipPath id="clip-path-70"><path class="cls-1" d="M97.82,20.09q5.07,3.21,9.92,6.6l-4.18.56q-4.89-3.3-10-6.43C95,20.56,96.4,20.32,97.82,20.09Z"/></clipPath><clipPath id="clip-path-71"><path class="cls-1" d="M107.74,26.69q-3.81,9.06-7.19,18.23c-1.31.22-2.62.44-3.92.68q3.24-9.23,6.93-18.35Z"/></clipPath><clipPath id="clip-path-72"><path class="cls-1" d="M100.55,44.92c-1.31.22-2.62.44-3.92.68A253.5,253.5,0,0,0,74.54,28c1.38-.36,2.75-.7,4.13-1A253.93,253.93,0,0,1,100.55,44.92Z"/></clipPath><clipPath id="clip-path-73"><path class="cls-1" d="M78.67,27c-1.38.33-2.75.67-4.13,1Q75.14,17.11,76,6.24c1.47-.34,3-.68,4.43-1Q79.43,16.09,78.67,27Z"/></clipPath><clipPath id="clip-path-74"><path class="cls-1" d="M80.4,5.24A279.69,279.69,0,0,0,51.53,35.12c-1.32.48-2.65,1-4,1.47A278.62,278.62,0,0,1,76,6.24C77.44,5.9,78.92,5.56,80.4,5.24Z"/></clipPath><clipPath id="clip-path-75"><path class="cls-1" d="M51.53,35.12c-1.32.48-2.65,1-4,1.47a247.8,247.8,0,0,0-42.37-17q2.07-1.09,4.16-2.16A250.66,250.66,0,0,1,51.53,35.12Z"/></clipPath><clipPath id="clip-path-76"><path class="cls-1" d="M9.36,17.45A584.32,584.32,0,0,1,39.62,69.31c-1.16.54-2.32,1.09-3.47,1.65A576,576,0,0,0,5.2,19.61Q7.27,18.52,9.36,17.45Z"/></clipPath><clipPath id="clip-path-77"><path class="cls-1" d="M39.62,69.31a230,230,0,0,1,59.05-9.53c-1.24.22-2.48.46-3.71.7A230,230,0,0,0,36.15,71C37.3,70.4,38.46,69.85,39.62,69.31Z"/></clipPath><clipPath id="clip-path-78"><path class="cls-1" d="M98.67,59.78q-2.43,12.48-4.37,25c-1.12.24-2.24.5-3.36.77Q92.71,73,95,60.48C96.19,60.24,97.43,60,98.67,59.78Z"/></clipPath><clipPath id="clip-path-79"><path class="cls-1" d="M94.3,84.8c-1.12.24-2.24.5-3.36.77q4.36-12.51,9.73-24.83c1.24-.21,2.48-.42,3.72-.61Q98.86,72.34,94.3,84.8Z"/></clipPath><clipPath id="clip-path-80"><path class="cls-1" d="M104.39,60.13a230.54,230.54,0,0,1,49.28,5.08c-1.26-.08-2.51-.15-3.77-.2a229.58,229.58,0,0,0-49.23-4.27C101.91,60.53,103.15,60.32,104.39,60.13Z"/></clipPath><clipPath id="clip-path-81"><path class="cls-1" d="M153.67,65.21q-4.62,12-8.81,24.22l-3.43-.06q4-12.25,8.47-24.36C151.16,65.06,152.41,65.13,153.67,65.21Z"/></clipPath><clipPath id="clip-path-82"><path class="cls-1" d="M51.05,50.38Q56.38,43.09,62.27,36q2.16,11.34,4.23,22.71a236.37,236.37,0,0,0-25.74,5.86Q32.6,49.81,23.44,35.49A243.44,243.44,0,0,1,51.05,50.38ZM64.5,57q-1.57-8.31-3.19-16.62Q56.23,46.55,51.59,53a241.89,241.89,0,0,0-23.1-12.89Q35.21,51,41.37,62.25A235,235,0,0,1,64.5,57"/></clipPath><clipPath id="clip-path-83"><path class="cls-1" d="M54.83,49q5.43-7.22,11.44-14.16,2,11.38,3.92,22.78A232.77,232.77,0,0,0,44.32,63q-8-14.94-16.93-29.41A245.83,245.83,0,0,1,54.83,49Zm13.38,6.79q-1.47-8.34-3-16.67-5.17,6.13-9.91,12.48A239.46,239.46,0,0,0,32.38,38.31Q39,49.35,45,60.68q11.51-3,23.24-4.92"/></clipPath><clipPath id="clip-path-84"><path class="cls-1" d="M54.83,49l-3.78,1.41Q56.38,43.09,62.27,36c1.33-.42,2.66-.83,4-1.23Q60.26,41.76,54.83,49Z"/></clipPath><clipPath id="clip-path-85"><path class="cls-1" d="M66.27,34.81q2,11.38,3.92,22.78c-1.23.38-2.46.76-3.69,1.16Q64.43,47.4,62.27,36C63.6,35.62,64.93,35.21,66.27,34.81Z"/></clipPath><clipPath id="clip-path-86"><path class="cls-1" d="M70.19,57.59c-1.23.38-2.46.76-3.69,1.16a236.37,236.37,0,0,0-25.74,5.86c1.18-.53,2.37-1.06,3.56-1.57A232.77,232.77,0,0,1,70.19,57.59Z"/></clipPath><clipPath id="clip-path-87"><path class="cls-1" d="M44.32,63c-1.19.51-2.38,1-3.56,1.57Q32.6,49.81,23.44,35.49c1.31-.63,2.63-1.25,3.95-1.86Q36.35,48.09,44.32,63Z"/></clipPath><clipPath id="clip-path-88"><path class="cls-1" d="M27.39,33.63A245.83,245.83,0,0,1,54.83,49l-3.78,1.41A243.44,243.44,0,0,0,23.44,35.49C24.75,34.86,26.07,34.24,27.39,33.63Z"/></clipPath><clipPath id="clip-path-89"><path class="cls-1" d="M68.21,55.76c-1.24.38-2.48.78-3.71,1.19q-1.57-8.31-3.19-16.62c1.31-.42,2.62-.84,3.93-1.24Q66.76,47.42,68.21,55.76Z"/></clipPath><clipPath id="clip-path-90"><path class="cls-1" d="M65.24,39.09q-5.17,6.13-9.91,12.48L51.59,53q4.63-6.4,9.72-12.64C62.62,39.91,63.93,39.49,65.24,39.09Z"/></clipPath><clipPath id="clip-path-91"><path class="cls-1" d="M55.33,51.57,51.59,53a241.89,241.89,0,0,0-23.1-12.89c1.29-.6,2.59-1.19,3.89-1.77A239.46,239.46,0,0,1,55.33,51.57Z"/></clipPath><clipPath id="clip-path-92"><path class="cls-1" d="M32.38,38.31Q39,49.35,45,60.68c-1.21.52-2.41,1-3.6,1.57Q35.22,51,28.49,40.08C29.78,39.48,31.08,38.89,32.38,38.31Z"/></clipPath><clipPath id="clip-path-93"><path class="cls-1" d="M45,60.68q11.51-3,23.24-4.92c-1.24.38-2.48.78-3.71,1.19a235,235,0,0,0-23.13,5.3C42.56,61.72,43.76,61.2,45,60.68Z"/></clipPath><clipPath id="clip-path-94"><path class="cls-1" d="M71.73,35.25A248.1,248.1,0,0,1,96.82,55.63c-7.16.26-14.32.86-21.44,1.79Q73.6,46.34,71.73,35.25Zm2.46,4.15q1.26,7.86,2.49,15.72,7.62-.94,15.3-1.39Q83.52,46.25,74.19,39.4"/></clipPath><clipPath id="clip-path-95"><path class="cls-1" d="M75.75,34.18A248.54,248.54,0,0,1,100.61,55q-10.77.24-21.51,1.45Q77.48,45.29,75.75,34.18Zm2.4,4.18q1.17,7.88,2.28,15.76c5.1-.54,10.22-.93,15.35-1.14q-8.37-7.62-17.63-14.62"/></clipPath><clipPath id="clip-path-96"><path class="cls-1" d="M75.75,34.18A248.54,248.54,0,0,1,100.61,55c-1.26.22-2.53.44-3.79.68A248.1,248.1,0,0,0,71.73,35.25C73.06,34.88,74.41,34.52,75.75,34.18Z"/></clipPath><clipPath id="clip-path-97"><path class="cls-1" d="M100.61,55c-1.26.22-2.53.44-3.79.68-7.16.26-14.32.86-21.44,1.79l3.72-1Q89.83,55.19,100.61,55Z"/></clipPath><clipPath id="clip-path-98"><path class="cls-1" d="M79.1,56.4l-3.72,1Q73.6,46.34,71.73,35.25c1.33-.37,2.68-.73,4-1.07Q77.48,45.28,79.1,56.4Z"/></clipPath><clipPath id="clip-path-99"><path class="cls-1" d="M78.15,38.36q1.17,7.88,2.28,15.76l-3.75,1q-1.23-7.86-2.49-15.72C75.5,39,76.83,38.7,78.15,38.36Z"/></clipPath><clipPath id="clip-path-100"><path class="cls-1" d="M80.43,54.12c5.1-.54,10.22-.93,15.35-1.14-1.27.24-2.54.49-3.8.75q-7.68.45-15.3,1.39Z"/></clipPath><clipPath id="clip-path-101"><path class="cls-1" d="M95.78,53c-1.27.24-2.54.49-3.8.75Q83.52,46.25,74.19,39.4c1.31-.36,2.64-.7,4-1Q87.4,45.35,95.78,53Z"/></clipPath><clipPath id="clip-path-102"><path class="cls-1" d="M111.09,49.21a239.6,239.6,0,0,1,47.16,6.31q-4.19,3-8.21,6l-.29-.05a232.65,232.65,0,0,0-47.93-4.2q3.65-12.23,8-24.31l.45.14.8.26.44.15Q111.27,41.38,111.09,49.21Zm38.64,10.14q1.82-1.4,3.68-2.76a237.85,237.85,0,0,0-44-5.32q.12-6.15.22-12.32-2.82,8.07-5.35,16.22a234.28,234.28,0,0,1,45.48,4.18"/></clipPath><clipPath id="clip-path-103"><path class="cls-1" d="M115,48.77a239.94,239.94,0,0,1,47.18,7.09q-4.24,2.88-8.32,5.91l-.28-.06a233.7,233.7,0,0,0-48-5q3.81-12.15,8.3-24.17l.44.15.8.27.44.15Q115.29,40.94,115,48.77Zm38.58,10.78c1.23-.91,2.48-1.81,3.73-2.7a237.13,237.13,0,0,0-44.05-6l.39-12.33q-2.94,8-5.58,16.13a234.38,234.38,0,0,1,45.51,4.94"/></clipPath><clipPath id="clip-path-104"><path class="cls-1" d="M115,48.77a239.94,239.94,0,0,1,47.18,7.09c-1.31-.12-2.61-.24-3.92-.34a239.6,239.6,0,0,0-47.16-6.31C112.39,49.05,113.69,48.91,115,48.77Z"/></clipPath><clipPath id="clip-path-105"><path class="cls-1" d="M162.17,55.86q-4.24,2.88-8.32,5.91-1.9-.12-3.81-.21,4-3.09,8.21-6C159.56,55.62,160.86,55.74,162.17,55.86Z"/></clipPath><clipPath id="clip-path-106"><path class="cls-1" d="M153.85,61.77q-1.9-.12-3.81-.21l-.29-.05,3.82.2Z"/></clipPath><clipPath id="clip-path-107"><path class="cls-1" d="M153.57,61.71l-3.82-.2a232.65,232.65,0,0,0-47.93-4.2c1.25-.21,2.51-.41,3.77-.6A233.7,233.7,0,0,1,153.57,61.71Z"/></clipPath><clipPath id="clip-path-108"><path class="cls-1" d="M105.59,56.71c-1.26.19-2.52.39-3.77.6q3.65-12.23,8-24.31c1.37-.16,2.74-.32,4.12-.46Q109.41,44.55,105.59,56.71Z"/></clipPath><clipPath id="clip-path-109"><path class="cls-1" d="M113.89,32.54l.44.15q-2.06.21-4.11.45l-.45-.14C111.14,32.84,112.51,32.68,113.89,32.54Z"/></clipPath><clipPath id="clip-path-110"><path class="cls-1" d="M114.33,32.69l.8.27c-1.37.14-2.74.28-4.11.44l-.8-.26Q112.28,32.9,114.33,32.69Z"/></clipPath><clipPath id="clip-path-111"><path class="cls-1" d="M115.13,33l.44.15c-1.37.14-2.74.28-4.11.44L111,33.4C112.39,33.24,113.76,33.1,115.13,33Z"/></clipPath><clipPath id="clip-path-112"><path class="cls-1" d="M115.57,33.11q-.28,7.83-.58,15.66c-1.3.14-2.6.28-3.9.44q.18-7.83.37-15.66C112.83,33.39,114.2,33.25,115.57,33.11Z"/></clipPath><clipPath id="clip-path-113"><path class="cls-1" d="M153.57,59.55c-1.28-.08-2.56-.15-3.84-.2q1.82-1.4,3.68-2.76c1.29.07,2.59.16,3.89.26C156.05,57.74,154.8,58.64,153.57,59.55Z"/></clipPath><clipPath id="clip-path-114"><path class="cls-1" d="M157.3,56.85c-1.3-.1-2.6-.19-3.89-.26a237.85,237.85,0,0,0-44-5.32c1.29-.16,2.58-.32,3.87-.46A237.13,237.13,0,0,1,157.3,56.85Z"/></clipPath><clipPath id="clip-path-115"><path class="cls-1" d="M113.25,50.81c-1.29.14-2.58.3-3.87.46q.12-6.15.22-12.32c1.34-.17,2.69-.32,4-.47Z"/></clipPath><clipPath id="clip-path-116"><path class="cls-1" d="M113.64,38.48q-2.94,8-5.58,16.13c-1.27.18-2.54.36-3.81.56Q106.79,47,109.6,39C110.94,38.78,112.29,38.63,113.64,38.48Z"/></clipPath><clipPath id="clip-path-117"><path class="cls-1" d="M108.06,54.61a234.38,234.38,0,0,1,45.51,4.94c-1.28-.08-2.56-.15-3.84-.2a234.28,234.28,0,0,0-45.48-4.18C105.52,55,106.79,54.79,108.06,54.61Z"/></clipPath></defs><g id="Layer_2" data-name="Layer 2"><g id="Layer_2-2" data-name="Layer 2"><g class="cls-2"><g class="cls-2"><path class="cls-3" d="M203.25,17.71a.58.58,0,0,1-.05.68l-.55-.9a.45.45,0,0,1,.28,0A.55.55,0,0,1,203.25,17.71Z"/><g class="cls-4"><path class="cls-1" d="M203.25,17.71a.58.58,0,0,1-.05.68l-.55-.9a.45.45,0,0,1,.28,0A.55.55,0,0,1,203.25,17.71Z"/></g><path class="cls-5" d="M203.25,17.71a.58.58,0,0,1-.05.68l-.55-.9a.45.45,0,0,1,.28,0A.55.55,0,0,1,203.25,17.71Z"/></g><g class="cls-2"><path class="cls-3" d="M207.75,18.83a.57.57,0,0,1-.06.68l-.53-.91a.36.36,0,0,1,.27,0A.52.52,0,0,1,207.75,18.83Z"/><g class="cls-6"><path class="cls-1" d="M207.75,18.83a.57.57,0,0,1-.06.68l-.53-.91a.36.36,0,0,1,.27,0A.52.52,0,0,1,207.75,18.83Z"/></g><path class="cls-5" d="M207.75,18.83a.57.57,0,0,1-.06.68l-.53-.91a.36.36,0,0,1,.27,0A.52.52,0,0,1,207.75,18.83Z"/></g><g class="cls-2"><path class="cls-3" d="M207.75,18.83a.57.57,0,0,1-.06.68c-1.5-.39-3-.76-4.49-1.12a.58.58,0,0,0,.05-.68C204.75,18.07,206.25,18.44,207.75,18.83Z"/><g class="cls-7"><g class="cls-2"><path class="cls-1" d="M207.75,18.83c-1.5-.39-3-.76-4.5-1.12a.58.58,0,0,1-.05.68c1.49.36,3,.73,4.49,1.12A.57.57,0,0,0,207.75,18.83Z"/><path class="cls-1" d="M207.83,19.07c-1.5-.39-3-.76-4.5-1.12"/><path class="cls-1" d="M207.81,19.31c-1.5-.39-3-.76-4.5-1.12"/></g><path class="cls-1" d="M207.75,18.83a.57.57,0,0,1-.06.68c-1.5-.39-3-.76-4.49-1.12a.58.58,0,0,0,.05-.68C204.75,18.07,206.25,18.44,207.75,18.83Z"/></g><path class="cls-5" d="M207.75,18.83a.57.57,0,0,1-.06.68c-1.5-.39-3-.76-4.49-1.12a.58.58,0,0,0,.05-.68C204.75,18.07,206.25,18.44,207.75,18.83Z"/></g><g class="cls-2"><path class="cls-3" d="M207.69,19.51c-1.5-.39-3-.76-4.49-1.12l-.55-.9c1.51.36,3,.73,4.51,1.11Z"/><g class="cls-8"><path class="cls-1" d="M207.69,19.51c-1.5-.39-3-.76-4.49-1.12l-.55-.9c1.51.36,3,.73,4.51,1.11Z"/></g><path class="cls-5" d="M207.69,19.51c-1.5-.39-3-.76-4.49-1.12l-.55-.9c1.51.36,3,.73,4.51,1.11Z"/></g><g class="cls-2"><path class="cls-3" d="M207.16,18.6c-1.5-.38-3-.75-4.51-1.11a.45.45,0,0,1,.28,0c1.5.36,3,.73,4.5,1.12A.36.36,0,0,0,207.16,18.6Z"/><g class="cls-9"><g class="cls-2"><path class="cls-1" d="M207.16,18.6c-1.5-.38-3-.75-4.51-1.11a.45.45,0,0,1,.28,0c1.5.36,3,.73,4.5,1.12A.36.36,0,0,0,207.16,18.6Z"/><path class="cls-1" d="M207.25,18.57c-1.5-.38-3-.75-4.51-1.11"/><path class="cls-1" d="M207.34,18.56q-2.25-.57-4.5-1.11"/></g><path class="cls-1" d="M207.16,18.6c-1.5-.38-3-.75-4.51-1.11a.45.45,0,0,1,.28,0c1.5.36,3,.73,4.5,1.12A.36.36,0,0,0,207.16,18.6Z"/></g><path class="cls-5" d="M207.16,18.6c-1.5-.38-3-.75-4.51-1.11a.45.45,0,0,1,.28,0c1.5.36,3,.73,4.5,1.12A.36.36,0,0,0,207.16,18.6Z"/></g><g class="cls-2"><path class="cls-3" d="M207.43,18.58a.52.52,0,0,1,.32.25c-1.5-.39-3-.76-4.5-1.12a.55.55,0,0,0-.32-.25C204.28,17.79,206.08,18.23,207.43,18.58Z"/><g class="cls-10"><g class="cls-2"><path class="cls-1" d="M207.43,18.58c-1.5-.39-3-.76-4.5-1.12a.55.55,0,0,1,.32.25c1.5.36,3,.73,4.5,1.12A.52.52,0,0,0,207.43,18.58Z"/><path class="cls-1" d="M207.55,18.63c-1.5-.39-3-.76-4.5-1.12"/><path class="cls-1" d="M207.66,18.71c-1.5-.38-3-.76-4.5-1.12"/></g><path class="cls-1" d="M207.43,18.58a.52.52,0,0,1,.32.25c-1.5-.39-3-.76-4.5-1.12a.55.55,0,0,0-.32-.25C204.28,17.79,206.08,18.23,207.43,18.58Z"/></g><path class="cls-5" d="M207.43,18.58a.52.52,0,0,1,.32.25c-1.5-.39-3-.76-4.5-1.12a.55.55,0,0,0-.32-.25C204.28,17.79,206.08,18.23,207.43,18.58Z"/></g><g class="cls-2"><path class="cls-3" d="M138.52,95.8a.69.69,0,0,1-.14-.58l.56.53a.29.29,0,0,1-.23.13A.25.25,0,0,1,138.52,95.8Z"/><g class="cls-11"><path class="cls-1" d="M138.52,95.8a.69.69,0,0,1-.14-.58l.56.53a.29.29,0,0,1-.23.13A.25.25,0,0,1,138.52,95.8Z"/></g><path class="cls-5" d="M138.52,95.8a.69.69,0,0,1-.14-.58l.56.53a.29.29,0,0,1-.23.13A.25.25,0,0,1,138.52,95.8Z"/></g><g class="cls-2"><path class="cls-3" d="M141.86,95.81a.63.63,0,0,1-.13-.58l.55.54a.33.33,0,0,1-.24.12A.22.22,0,0,1,141.86,95.81Z"/><g class="cls-12"><path class="cls-1" d="M141.86,95.81a.63.63,0,0,1-.13-.58l.55.54a.33.33,0,0,1-.24.12A.22.22,0,0,1,141.86,95.81Z"/></g><path class="cls-5" d="M141.86,95.81a.63.63,0,0,1-.13-.58l.55.54a.33.33,0,0,1-.24.12A.22.22,0,0,1,141.86,95.81Z"/></g><g class="cls-2"><path class="cls-3" d="M141.86,95.81h-3.34a.69.69,0,0,1-.14-.58h3.35A.63.63,0,0,0,141.86,95.81Z"/><g class="cls-13"><g class="cls-2"><path class="cls-1" d="M141.86,95.81h-3.34a.69.69,0,0,1-.14-.58h3.35A.63.63,0,0,0,141.86,95.81Z"/><path class="cls-1" d="M141.76,95.66c-1.12,0-2.23,0-3.34,0"/><path class="cls-1" d="M141.71,95.45h-3.34"/></g><path class="cls-1" d="M141.86,95.81h-3.34a.69.69,0,0,1-.14-.58h3.35A.63.63,0,0,0,141.86,95.81Z"/></g><path class="cls-5" d="M141.86,95.81h-3.34a.69.69,0,0,1-.14-.58h3.35A.63.63,0,0,0,141.86,95.81Z"/></g><g class="cls-2"><path class="cls-3" d="M141.73,95.23l.55.54-3.34,0-.56-.53Z"/><g class="cls-14"><path class="cls-1" d="M141.73,95.23l.55.54-3.34,0-.56-.53Z"/></g><path class="cls-5" d="M141.73,95.23l.55.54-3.34,0-.56-.53Z"/></g><g class="cls-2"><path class="cls-3" d="M142.28,95.77a.33.33,0,0,1-.24.12c-1.11,0-2.23,0-3.33,0a.29.29,0,0,0,.23-.13Z"/><g class="cls-15"><g class="cls-2"><path class="cls-1" d="M142.28,95.77l-3.34,0a.29.29,0,0,1-.23.13c1.1,0,2.22,0,3.33,0A.33.33,0,0,0,142.28,95.77Z"/><path class="cls-1" d="M142.2,95.84c-1.11,0-2.22,0-3.33,0"/><path class="cls-1" d="M142.12,95.88c-1.11,0-2.22,0-3.33,0"/></g><path class="cls-1" d="M142.28,95.77a.33.33,0,0,1-.24.12c-1.11,0-2.23,0-3.33,0a.29.29,0,0,0,.23-.13Z"/></g><path class="cls-5" d="M142.28,95.77a.33.33,0,0,1-.24.12c-1.11,0-2.23,0-3.33,0a.29.29,0,0,0,.23-.13Z"/></g><g class="cls-2"><path class="cls-3" d="M142,95.89c-1.11,0-2.23,0-3.33,0a.25.25,0,0,1-.19-.08h3.34A.22.22,0,0,0,142,95.89Z"/><g class="cls-16"><g class="cls-2"><path class="cls-1" d="M142,95.89c-1.11,0-2.23,0-3.33,0a.25.25,0,0,1-.19-.08h3.34A.22.22,0,0,0,142,95.89Z"/><path class="cls-1" d="M142,95.88h-3.34"/><path class="cls-1" d="M141.91,95.86c-1.11,0-2.22,0-3.33,0"/></g><path class="cls-1" d="M142,95.89c-1.11,0-2.23,0-3.33,0a.25.25,0,0,1-.19-.08h3.34A.22.22,0,0,0,142,95.89Z"/></g><path class="cls-5" d="M142,95.89c-1.11,0-2.23,0-3.33,0a.25.25,0,0,1-.19-.08h3.34A.22.22,0,0,0,142,95.89Z"/></g><g class="cls-2"><path class="cls-3" d="M128,11a.37.37,0,0,1,.27-.12.41.41,0,0,1,.32.12l-.69.65A.55.55,0,0,1,128,11Z"/><g class="cls-17"><path class="cls-1" d="M128,11a.37.37,0,0,1,.27-.12.41.41,0,0,1,.32.12l-.69.65A.55.55,0,0,1,128,11Z"/></g><path class="cls-5" d="M128,11a.37.37,0,0,1,.27-.12.41.41,0,0,1,.32.12l-.69.65A.55.55,0,0,1,128,11Z"/></g><g class="cls-2"><path class="cls-3" d="M132.41,10.78a.43.43,0,0,1,.28-.11.47.47,0,0,1,.32.13l-.71.64A.57.57,0,0,1,132.41,10.78Z"/><g class="cls-18"><path class="cls-1" d="M132.41,10.78a.43.43,0,0,1,.28-.11.47.47,0,0,1,.32.13l-.71.64A.57.57,0,0,1,132.41,10.78Z"/></g><path class="cls-5" d="M132.41,10.78a.43.43,0,0,1,.28-.11.47.47,0,0,1,.32.13l-.71.64A.57.57,0,0,1,132.41,10.78Z"/></g><g class="cls-2"><path class="cls-3" d="M132.41,10.78c-1.48.05-3,.1-4.45.17a.37.37,0,0,1,.27-.12c1.48-.07,3-.12,4.46-.16A.43.43,0,0,0,132.41,10.78Z"/><g class="cls-19"><g class="cls-2"><path class="cls-1" d="M132.41,10.78c-1.48.05-3,.1-4.45.17a.37.37,0,0,1,.27-.12c1.48-.07,3-.12,4.46-.16A.43.43,0,0,0,132.41,10.78Z"/><path class="cls-1" d="M132.5,10.72c-1.49,0-3,.1-4.46.16"/><path class="cls-1" d="M132.59,10.69c-1.49,0-3,.09-4.45.15"/></g><path class="cls-1" d="M132.41,10.78c-1.48.05-3,.1-4.45.17a.37.37,0,0,1,.27-.12c1.48-.07,3-.12,4.46-.16A.43.43,0,0,0,132.41,10.78Z"/></g><path class="cls-5" d="M132.41,10.78c-1.48.05-3,.1-4.45.17a.37.37,0,0,1,.27-.12c1.48-.07,3-.12,4.46-.16A.43.43,0,0,0,132.41,10.78Z"/></g><g class="cls-2"><path class="cls-3" d="M132.69,10.67a.47.47,0,0,1,.32.13c-1.49,0-3,.09-4.46.15a.41.41,0,0,0-.32-.12C129.57,10.77,131.35,10.71,132.69,10.67Z"/><g class="cls-20"><g class="cls-2"><path class="cls-1" d="M132.69,10.67c-1.49,0-3,.09-4.46.16a.41.41,0,0,1,.32.12c1.49-.06,3-.11,4.46-.15A.47.47,0,0,0,132.69,10.67Z"/><path class="cls-1" d="M132.8,10.68c-1.49,0-3,.09-4.46.16"/><path class="cls-1" d="M132.91,10.73c-1.49,0-3,.09-4.46.15"/></g><path class="cls-1" d="M132.69,10.67a.47.47,0,0,1,.32.13c-1.49,0-3,.09-4.46.15a.41.41,0,0,0-.32-.12C129.57,10.77,131.35,10.71,132.69,10.67Z"/></g><path class="cls-5" d="M132.69,10.67a.47.47,0,0,1,.32.13c-1.49,0-3,.09-4.46.15a.41.41,0,0,0-.32-.12C129.57,10.77,131.35,10.71,132.69,10.67Z"/></g><g class="cls-2"><path class="cls-3" d="M133,10.8l-.71.64c-1.48,0-3,.09-4.44.16l.69-.65C130,10.89,131.52,10.84,133,10.8Z"/><g class="cls-21"><path class="cls-1" d="M133,10.8l-.71.64c-1.48,0-3,.09-4.44.16l.69-.65C130,10.89,131.52,10.84,133,10.8Z"/></g><path class="cls-5" d="M133,10.8l-.71.64c-1.48,0-3,.09-4.44.16l.69-.65C130,10.89,131.52,10.84,133,10.8Z"/></g><g class="cls-2"><path class="cls-3" d="M132.3,11.44c-1.48,0-3,.09-4.44.16A.55.55,0,0,1,128,11c1.48-.07,3-.12,4.45-.17A.57.57,0,0,0,132.3,11.44Z"/><g class="cls-22"><g class="cls-2"><path class="cls-1" d="M132.3,11.44c-1.48,0-3,.09-4.44.16A.55.55,0,0,1,128,11c1.48-.07,3-.12,4.45-.17A.57.57,0,0,0,132.3,11.44Z"/><path class="cls-1" d="M132.24,11.2c-1.48,0-3,.1-4.44.17"/><path class="cls-1" d="M132.28,11c-1.48,0-3,.1-4.45.17"/></g><path class="cls-1" d="M132.3,11.44c-1.48,0-3,.09-4.44.16A.55.55,0,0,1,128,11c1.48-.07,3-.12,4.45-.17A.57.57,0,0,0,132.3,11.44Z"/></g><path class="cls-5" d="M132.3,11.44c-1.48,0-3,.09-4.44.16A.55.55,0,0,1,128,11c1.48-.07,3-.12,4.45-.17A.57.57,0,0,0,132.3,11.44Z"/></g><g class="cls-2"><path class="cls-3" d="M89.06,93.78a.67.67,0,0,1-.24-.57l.66.41a.34.34,0,0,1-.22.19A.25.25,0,0,1,89.06,93.78Z"/><g class="cls-23"><path class="cls-1" d="M89.06,93.78a.67.67,0,0,1-.24-.57l.66.41a.34.34,0,0,1-.22.19A.25.25,0,0,1,89.06,93.78Z"/></g><path class="cls-5" d="M89.06,93.78a.67.67,0,0,1-.24-.57l.66.41a.34.34,0,0,1-.22.19A.25.25,0,0,1,89.06,93.78Z"/></g><g class="cls-2"><path class="cls-3" d="M92.31,93a.67.67,0,0,1-.24-.57l.65.41a.3.3,0,0,1-.21.19A.25.25,0,0,1,92.31,93Z"/><g class="cls-24"><path class="cls-1" d="M92.31,93a.67.67,0,0,1-.24-.57l.65.41a.3.3,0,0,1-.21.19A.25.25,0,0,1,92.31,93Z"/></g><path class="cls-5" d="M92.31,93a.67.67,0,0,1-.24-.57l.65.41a.3.3,0,0,1-.21.19A.25.25,0,0,1,92.31,93Z"/></g><g class="cls-2"><path class="cls-3" d="M92.31,93c-1.09.26-2.17.52-3.25.8a.67.67,0,0,1-.24-.57c1.08-.28,2.16-.54,3.25-.8A.67.67,0,0,0,92.31,93Z"/><g class="cls-25"><g class="cls-2"><path class="cls-1" d="M92.31,93c-1.09.26-2.17.52-3.25.8a.67.67,0,0,1-.24-.57c1.08-.28,2.16-.54,3.25-.8A.67.67,0,0,0,92.31,93Z"/><path class="cls-1" d="M92.18,92.84l-3.25.8"/><path class="cls-1" d="M92.09,92.64l-3.25.8"/></g><path class="cls-1" d="M92.31,93c-1.09.26-2.17.52-3.25.8a.67.67,0,0,1-.24-.57c1.08-.28,2.16-.54,3.25-.8A.67.67,0,0,0,92.31,93Z"/></g><path class="cls-5" d="M92.31,93c-1.09.26-2.17.52-3.25.8a.67.67,0,0,1-.24-.57c1.08-.28,2.16-.54,3.25-.8A.67.67,0,0,0,92.31,93Z"/></g><g class="cls-2"><path class="cls-3" d="M92.07,92.41l.65.41c-1.08.26-2.17.52-3.24.8l-.66-.41C89.9,92.93,91,92.67,92.07,92.41Z"/><g class="cls-26"><path class="cls-1" d="M92.07,92.41l.65.41c-1.08.26-2.17.52-3.24.8l-.66-.41C89.9,92.93,91,92.67,92.07,92.41Z"/></g><path class="cls-5" d="M92.07,92.41l.65.41c-1.08.26-2.17.52-3.24.8l-.66-.41C89.9,92.93,91,92.67,92.07,92.41Z"/></g><g class="cls-2"><path class="cls-3" d="M92.72,92.82a.3.3,0,0,1-.21.19l-3.25.8a.34.34,0,0,0,.22-.19C90.45,93.37,91.75,93.05,92.72,92.82Z"/><g class="cls-27"><g class="cls-2"><path class="cls-1" d="M92.72,92.82c-1.08.26-2.17.52-3.24.8a.34.34,0,0,1-.22.19l3.25-.8A.3.3,0,0,0,92.72,92.82Z"/><path class="cls-1" d="M92.66,92.91l-3.24.8"/><path class="cls-1" d="M92.59,93c-1.08.26-2.16.52-3.24.8"/></g><path class="cls-1" d="M92.72,92.82a.3.3,0,0,1-.21.19l-3.25.8a.34.34,0,0,0,.22-.19C90.45,93.37,91.75,93.05,92.72,92.82Z"/></g><path class="cls-5" d="M92.72,92.82a.3.3,0,0,1-.21.19l-3.25.8a.34.34,0,0,0,.22-.19C90.45,93.37,91.75,93.05,92.72,92.82Z"/></g><g class="cls-2"><path class="cls-3" d="M92.51,93l-3.25.8a.25.25,0,0,1-.2,0c1.08-.28,2.16-.54,3.25-.8A.25.25,0,0,0,92.51,93Z"/><g class="cls-28"><g class="cls-2"><path class="cls-1" d="M92.51,93l-3.25.8a.25.25,0,0,1-.2,0c1.08-.28,2.16-.54,3.25-.8A.25.25,0,0,0,92.51,93Z"/><path class="cls-1" d="M92.44,93l-3.24.8"/><path class="cls-1" d="M92.38,93c-1.09.26-2.17.52-3.25.8"/></g><path class="cls-1" d="M92.51,93l-3.25.8a.25.25,0,0,1-.2,0c1.08-.28,2.16-.54,3.25-.8A.25.25,0,0,0,92.51,93Z"/></g><path class="cls-5" d="M92.51,93l-3.25.8a.25.25,0,0,1-.2,0c1.08-.28,2.16-.54,3.25-.8A.25.25,0,0,0,92.51,93Z"/></g><g class="cls-2"><path class="cls-3" d="M110.51,32.94a.42.42,0,0,1,.16,0,.55.55,0,0,1,.35.45l-.8-.26A.37.37,0,0,1,110.51,32.94Z"/><g class="cls-29"><path class="cls-1" d="M110.51,32.94a.42.42,0,0,1,.16,0,.55.55,0,0,1,.35.45l-.8-.26A.37.37,0,0,1,110.51,32.94Z"/></g><path class="cls-5" d="M110.51,32.94a.42.42,0,0,1,.16,0,.55.55,0,0,1,.35.45l-.8-.26A.37.37,0,0,1,110.51,32.94Z"/></g><g class="cls-2"><path class="cls-3" d="M114.64,32.49a.26.26,0,0,1,.15,0,.53.53,0,0,1,.34.45l-.8-.27A.42.42,0,0,1,114.64,32.49Z"/><g class="cls-30"><path class="cls-1" d="M114.64,32.49a.26.26,0,0,1,.15,0,.53.53,0,0,1,.34.45l-.8-.27A.42.42,0,0,1,114.64,32.49Z"/></g><path class="cls-5" d="M114.64,32.49a.26.26,0,0,1,.15,0,.53.53,0,0,1,.34.45l-.8-.27A.42.42,0,0,1,114.64,32.49Z"/></g><g class="cls-2"><path class="cls-3" d="M114.64,32.49a.26.26,0,0,1,.15,0,.53.53,0,0,1,.34.45c-1.37.14-2.74.28-4.11.44a.55.55,0,0,0-.35-.45.42.42,0,0,0-.16,0C111.75,32.79,113.4,32.61,114.64,32.49Z"/><g class="cls-31"><g class="cls-2"><path class="cls-1" d="M114.64,32.49c-1.38.14-2.75.29-4.13.45a.42.42,0,0,1,.16,0c1.37-.16,2.75-.31,4.12-.44A.26.26,0,0,0,114.64,32.49Z"/><path class="cls-1" d="M114.69,32.49c-1.38.13-2.75.28-4.12.44"/><path class="cls-1" d="M114.74,32.49c-1.38.14-2.75.29-4.12.45"/><path class="cls-1" d="M114.79,32.51c-1.37.13-2.75.28-4.12.44a.55.55,0,0,1,.35.45c1.37-.16,2.74-.3,4.11-.44A.53.53,0,0,0,114.79,32.51Z"/><path class="cls-1" d="M115,32.6l-4.12.45"/><path class="cls-1" d="M115.07,32.76c-1.37.14-2.75.28-4.12.44"/></g><path class="cls-1" d="M114.64,32.49a.26.26,0,0,1,.15,0,.53.53,0,0,1,.34.45c-1.37.14-2.74.28-4.11.44a.55.55,0,0,0-.35-.45.42.42,0,0,0-.16,0C111.75,32.79,113.4,32.61,114.64,32.49Z"/></g><path class="cls-5" d="M114.64,32.49a.26.26,0,0,1,.15,0,.53.53,0,0,1,.34.45c-1.37.14-2.74.28-4.11.44a.55.55,0,0,0-.35-.45.42.42,0,0,0-.16,0C111.75,32.79,113.4,32.61,114.64,32.49Z"/></g><g class="cls-2"><path class="cls-3" d="M115.13,33c-1.37.14-2.74.28-4.11.44l-.8-.26q2.06-.24,4.11-.45Z"/><g class="cls-32"><path class="cls-1" d="M115.13,33c-1.37.14-2.74.28-4.11.44l-.8-.26q2.06-.24,4.11-.45Z"/></g><path class="cls-5" d="M115.13,33c-1.37.14-2.74.28-4.11.44l-.8-.26q2.06-.24,4.11-.45Z"/></g><g class="cls-2"><path class="cls-3" d="M114.33,32.69q-2.06.21-4.11.45a.37.37,0,0,1,.29-.2c1.38-.16,2.75-.31,4.13-.45A.42.42,0,0,0,114.33,32.69Z"/><g class="cls-33"><g class="cls-2"><path class="cls-1" d="M114.33,32.69q-2.06.21-4.11.45a.37.37,0,0,1,.29-.2c1.38-.16,2.75-.31,4.13-.45A.42.42,0,0,0,114.33,32.69Z"/><path class="cls-1" d="M114.42,32.59c-1.38.14-2.75.29-4.12.45"/><path class="cls-1" d="M114.52,32.52c-1.38.14-2.75.29-4.12.45"/></g><path class="cls-1" d="M114.33,32.69q-2.06.21-4.11.45a.37.37,0,0,1,.29-.2c1.38-.16,2.75-.31,4.13-.45A.42.42,0,0,0,114.33,32.69Z"/></g><path class="cls-5" d="M114.33,32.69q-2.06.21-4.11.45a.37.37,0,0,1,.29-.2c1.38-.16,2.75-.31,4.13-.45A.42.42,0,0,0,114.33,32.69Z"/></g><g class="cls-2"><path class="cls-3" d="M203.2,18.39a332.67,332.67,0,0,0-64,77.65l-.86-.82q4.31-14.32,9.15-28.52a227.52,227.52,0,0,0-45.89-3.85Q95,78.17,89.81,93.82l-1-.61q1.7-15.27,4.08-30.51A228.14,228.14,0,0,0,35.58,73.35,575.61,575.61,0,0,0,.33,16.06,250.53,250.53,0,0,1,47,34.08,280.79,280.79,0,0,1,78.35,1.27Q77.22,14.1,76.43,26.93q10.21,7.35,19.42,15.46,2.55-7.2,5.36-14.34c-4.68-3.11-9.51-6.11-14.47-9q12.09-.86,24.23-.61,6.78-8.84,14.32-17.32-1.61,11.1-3.08,22.22-.09,9.74-.24,19.48,11.82.8,23.55,2.73a317.83,317.83,0,0,0-18-33.65l1.05-1a281.07,281.07,0,0,1,21.33,25.57q4.25,6.06,8.11,12.24,6.42-5.48,13.27-10.6A275.7,275.7,0,0,1,202.37,17Zm-61.77,71a330.5,330.5,0,0,1,52.95-65A270.82,270.82,0,0,0,172.22,40q-7.56,5.63-14.59,11.68-4.31-7-9.07-13.75-6.72-9.34-14.34-18.32a321.22,321.22,0,0,1,14.45,28.71,243.18,243.18,0,0,0-28.42-3.4q.1-10.92.15-21.84,1-7.74,2-15.46-5.5,6.42-10.58,13-9.15-.21-18.29.2,5.1,3.12,10,6.43-3.69,9.14-6.93,18.35A253.5,253.5,0,0,0,74.54,28Q75.14,17.11,76,6.24a278.62,278.62,0,0,0-28.4,30.35,247.8,247.8,0,0,0-42.37-17A576,576,0,0,1,36.15,71,230,230,0,0,1,95,60.48Q92.7,73,90.94,85.57q4.36-12.51,9.73-24.83A229.58,229.58,0,0,1,149.9,65q-4.46,12.1-8.47,24.36"/><g class="cls-34"><path class="cls-1" d="M203.2,18.39a332.67,332.67,0,0,0-64,77.65l-.86-.82q4.31-14.32,9.15-28.52a227.52,227.52,0,0,0-45.89-3.85Q95,78.17,89.81,93.82l-1-.61q1.7-15.27,4.08-30.51A228.14,228.14,0,0,0,35.58,73.35,575.61,575.61,0,0,0,.33,16.06,250.53,250.53,0,0,1,47,34.08,280.79,280.79,0,0,1,78.35,1.27Q77.22,14.1,76.43,26.93q10.21,7.35,19.42,15.46,2.55-7.2,5.36-14.34c-4.68-3.11-9.51-6.11-14.47-9q12.09-.86,24.23-.61,6.78-8.84,14.32-17.32-1.61,11.1-3.08,22.22-.09,9.74-.24,19.48,11.82.8,23.55,2.73a317.83,317.83,0,0,0-18-33.65l1.05-1a281.07,281.07,0,0,1,21.33,25.57q4.25,6.06,8.11,12.24,6.42-5.48,13.27-10.6A275.7,275.7,0,0,1,202.37,17Zm-61.77,71a330.5,330.5,0,0,1,52.95-65A270.82,270.82,0,0,0,172.22,40q-7.56,5.63-14.59,11.68-4.31-7-9.07-13.75-6.72-9.34-14.34-18.32a321.22,321.22,0,0,1,14.45,28.71,243.18,243.18,0,0,0-28.42-3.4q.1-10.92.15-21.84,1-7.74,2-15.46-5.5,6.42-10.58,13-9.15-.21-18.29.2,5.1,3.12,10,6.43-3.69,9.14-6.93,18.35A253.5,253.5,0,0,0,74.54,28Q75.14,17.11,76,6.24a278.62,278.62,0,0,0-28.4,30.35,247.8,247.8,0,0,0-42.37-17A576,576,0,0,1,36.15,71,230,230,0,0,1,95,60.48Q92.7,73,90.94,85.57q4.36-12.51,9.73-24.83A229.58,229.58,0,0,1,149.9,65q-4.46,12.1-8.47,24.36"/></g><path class="cls-5" d="M203.2,18.39a332.67,332.67,0,0,0-64,77.65l-.86-.82q4.31-14.32,9.15-28.52a227.52,227.52,0,0,0-45.89-3.85Q95,78.17,89.81,93.82l-1-.61q1.7-15.27,4.08-30.51A228.14,228.14,0,0,0,35.58,73.35,575.61,575.61,0,0,0,.33,16.06,250.53,250.53,0,0,1,47,34.08,280.79,280.79,0,0,1,78.35,1.27Q77.22,14.1,76.43,26.93q10.21,7.35,19.42,15.46,2.55-7.2,5.36-14.34c-4.68-3.11-9.51-6.11-14.47-9q12.09-.86,24.23-.61,6.78-8.84,14.32-17.32-1.61,11.1-3.08,22.22-.09,9.74-.24,19.48,11.82.8,23.55,2.73a317.83,317.83,0,0,0-18-33.65l1.05-1a281.07,281.07,0,0,1,21.33,25.57q4.25,6.06,8.11,12.24,6.42-5.48,13.27-10.6A275.7,275.7,0,0,1,202.37,17Zm-61.77,71a330.5,330.5,0,0,1,52.95-65A270.82,270.82,0,0,0,172.22,40q-7.56,5.63-14.59,11.68-4.31-7-9.07-13.75-6.72-9.34-14.34-18.32a321.22,321.22,0,0,1,14.45,28.71,243.18,243.18,0,0,0-28.42-3.4q.1-10.92.15-21.84,1-7.74,2-15.46-5.5,6.42-10.58,13-9.15-.21-18.29.2,5.1,3.12,10,6.43-3.69,9.14-6.93,18.35A253.5,253.5,0,0,0,74.54,28Q75.14,17.11,76,6.24a278.62,278.62,0,0,0-28.4,30.35,247.8,247.8,0,0,0-42.37-17A576,576,0,0,1,36.15,71,230,230,0,0,1,95,60.48Q92.7,73,90.94,85.57q4.36-12.51,9.73-24.83A229.58,229.58,0,0,1,149.9,65q-4.46,12.1-8.47,24.36"/></g><g class="cls-2"><path class="cls-3" d="M207.69,19.51a331.25,331.25,0,0,0-65.12,76.55l-.84-.83q4.5-14.26,9.54-28.37a228.51,228.51,0,0,0-45.94-4.6Q98.42,77.46,93.06,93l-1-.62Q94,77.16,96.58,62A228.62,228.62,0,0,0,39,71.69,579.35,579.35,0,0,0,4.53,13.83,252.07,252.07,0,0,1,51,32.61,281,281,0,0,1,82.85.3q-1.29,12.81-2.27,25.63Q90.71,33.45,99.82,41.7q2.64-7.16,5.57-14.25-7-4.78-14.38-9.19,12.12-.66,24.28-.22Q122.21,9.31,129.87,1,128.11,12,126.49,23.12q-.22,9.73-.51,19.48,11.83,1,23.56,3.12a321,321,0,0,0-17.6-33.95c.35-.33.71-.65,1.07-1a284,284,0,0,1,21,25.92q4.17,6.12,8,12.38,6.51-5.37,13.44-10.38a272.67,272.67,0,0,1,31.46-20.59C207.15,18.59,207.42,19.05,207.69,19.51ZM144.86,89.43a328.94,328.94,0,0,1,53.92-64.1q-11.72,7.13-22.41,15.21Q168.72,46,161.59,52q-4.22-7-8.9-13.9-6.6-9.46-14.13-18.56a321.4,321.4,0,0,1,14.1,29,244.22,244.22,0,0,0-28.43-3.87q.26-10.92.45-21.84c.72-5.14,1.47-10.29,2.23-15.42q-5.59,6.32-10.77,12.87-9.17-.37-18.32-.11,5.07,3.21,9.92,6.6-3.81,9.06-7.19,18.23A253.93,253.93,0,0,0,78.67,27q.75-10.86,1.73-21.71A279.69,279.69,0,0,0,51.53,35.12,250.66,250.66,0,0,0,9.36,17.45,584.32,584.32,0,0,1,39.62,69.31a230,230,0,0,1,59.05-9.53q-2.43,12.48-4.37,25,4.55-12.45,10.09-24.67a230.54,230.54,0,0,1,49.28,5.08q-4.62,12-8.81,24.22"/><g class="cls-35"><path class="cls-1" d="M207.69,19.51a331.25,331.25,0,0,0-65.12,76.55l-.84-.83q4.5-14.26,9.54-28.37a228.51,228.51,0,0,0-45.94-4.6Q98.42,77.46,93.06,93l-1-.62Q94,77.16,96.58,62A228.62,228.62,0,0,0,39,71.69,579.35,579.35,0,0,0,4.53,13.83,252.07,252.07,0,0,1,51,32.61,281,281,0,0,1,82.85.3q-1.29,12.81-2.27,25.63Q90.71,33.45,99.82,41.7q2.64-7.16,5.57-14.25-7-4.78-14.38-9.19,12.12-.66,24.28-.22Q122.21,9.31,129.87,1,128.11,12,126.49,23.12q-.22,9.73-.51,19.48,11.83,1,23.56,3.12a321,321,0,0,0-17.6-33.95c.35-.33.71-.65,1.07-1a284,284,0,0,1,21,25.92q4.17,6.12,8,12.38,6.51-5.37,13.44-10.38a272.67,272.67,0,0,1,31.46-20.59C207.15,18.59,207.42,19.05,207.69,19.51ZM144.86,89.43a328.94,328.94,0,0,1,53.92-64.1q-11.72,7.13-22.41,15.21Q168.72,46,161.59,52q-4.22-7-8.9-13.9-6.6-9.46-14.13-18.56a321.4,321.4,0,0,1,14.1,29,244.22,244.22,0,0,0-28.43-3.87q.26-10.92.45-21.84c.72-5.14,1.47-10.29,2.23-15.42q-5.59,6.32-10.77,12.87-9.17-.37-18.32-.11,5.07,3.21,9.92,6.6-3.81,9.06-7.19,18.23A253.93,253.93,0,0,0,78.67,27q.75-10.86,1.73-21.71A279.69,279.69,0,0,0,51.53,35.12,250.66,250.66,0,0,0,9.36,17.45,584.32,584.32,0,0,1,39.62,69.31a230,230,0,0,1,59.05-9.53q-2.43,12.48-4.37,25,4.55-12.45,10.09-24.67a230.54,230.54,0,0,1,49.28,5.08q-4.62,12-8.81,24.22"/></g><path class="cls-5" d="M207.69,19.51a331.25,331.25,0,0,0-65.12,76.55l-.84-.83q4.5-14.26,9.54-28.37a228.51,228.51,0,0,0-45.94-4.6Q98.42,77.46,93.06,93l-1-.62Q94,77.16,96.58,62A228.62,228.62,0,0,0,39,71.69,579.35,579.35,0,0,0,4.53,13.83,252.07,252.07,0,0,1,51,32.61,281,281,0,0,1,82.85.3q-1.29,12.81-2.27,25.63Q90.71,33.45,99.82,41.7q2.64-7.16,5.57-14.25-7-4.78-14.38-9.19,12.12-.66,24.28-.22Q122.21,9.31,129.87,1,128.11,12,126.49,23.12q-.22,9.73-.51,19.48,11.83,1,23.56,3.12a321,321,0,0,0-17.6-33.95c.35-.33.71-.65,1.07-1a284,284,0,0,1,21,25.92q4.17,6.12,8,12.38,6.51-5.37,13.44-10.38a272.67,272.67,0,0,1,31.46-20.59C207.15,18.59,207.42,19.05,207.69,19.51ZM144.86,89.43a328.94,328.94,0,0,1,53.92-64.1q-11.72,7.13-22.41,15.21Q168.72,46,161.59,52q-4.22-7-8.9-13.9-6.6-9.46-14.13-18.56a321.4,321.4,0,0,1,14.1,29,244.22,244.22,0,0,0-28.43-3.87q.26-10.92.45-21.84c.72-5.14,1.47-10.29,2.23-15.42q-5.59,6.32-10.77,12.87-9.17-.37-18.32-.11,5.07,3.21,9.92,6.6-3.81,9.06-7.19,18.23A253.93,253.93,0,0,0,78.67,27q.75-10.86,1.73-21.71A279.69,279.69,0,0,0,51.53,35.12,250.66,250.66,0,0,0,9.36,17.45,584.32,584.32,0,0,1,39.62,69.31a230,230,0,0,1,59.05-9.53q-2.43,12.48-4.37,25,4.55-12.45,10.09-24.67a230.54,230.54,0,0,1,49.28,5.08q-4.62,12-8.81,24.22"/></g><g class="cls-2"><path class="cls-3" d="M207.69,19.51a331.25,331.25,0,0,0-65.12,76.55c-1.11,0-2.22,0-3.33,0a332.67,332.67,0,0,1,64-77.65C204.69,18.75,206.19,19.12,207.69,19.51Z"/><g class="cls-36"><path class="cls-1" d="M207.69,19.51a331.25,331.25,0,0,0-65.12,76.55c-1.11,0-2.22,0-3.33,0a332.67,332.67,0,0,1,64-77.65C204.69,18.75,206.19,19.12,207.69,19.51Z"/></g><path class="cls-5" d="M207.69,19.51a331.25,331.25,0,0,0-65.12,76.55c-1.11,0-2.22,0-3.33,0a332.67,332.67,0,0,1,64-77.65C204.69,18.75,206.19,19.12,207.69,19.51Z"/></g><g class="cls-2"><path class="cls-3" d="M142.57,96.06c-1.11,0-2.22,0-3.33,0l-.86-.82h3.35Z"/><g class="cls-37"><path class="cls-1" d="M142.57,96.06c-1.11,0-2.22,0-3.33,0l-.86-.82h3.35Z"/></g><path class="cls-5" d="M142.57,96.06c-1.11,0-2.22,0-3.33,0l-.86-.82h3.35Z"/></g><g class="cls-2"><path class="cls-3" d="M141.73,95.23h-3.35q4.31-14.32,9.15-28.52c1.25,0,2.49.1,3.74.16Q146.23,81,141.73,95.23Z"/><g class="cls-38"><path class="cls-1" d="M141.73,95.23h-3.35q4.31-14.32,9.15-28.52c1.25,0,2.49.1,3.74.16Q146.23,81,141.73,95.23Z"/></g><path class="cls-5" d="M141.73,95.23h-3.35q4.31-14.32,9.15-28.52c1.25,0,2.49.1,3.74.16Q146.23,81,141.73,95.23Z"/></g><g class="cls-2"><path class="cls-3" d="M151.27,66.86c-1.25-.06-2.49-.12-3.74-.16a227.52,227.52,0,0,0-45.89-3.85c1.23-.21,2.46-.41,3.69-.59A228.51,228.51,0,0,1,151.27,66.86Z"/><g class="cls-39"><path class="cls-1" d="M151.27,66.86c-1.25-.06-2.49-.12-3.74-.16a227.52,227.52,0,0,0-45.89-3.85c1.23-.21,2.46-.41,3.69-.59A228.51,228.51,0,0,1,151.27,66.86Z"/></g><path class="cls-5" d="M151.27,66.86c-1.25-.06-2.49-.12-3.74-.16a227.52,227.52,0,0,0-45.89-3.85c1.23-.21,2.46-.41,3.69-.59A228.51,228.51,0,0,1,151.27,66.86Z"/></g><g class="cls-2"><path class="cls-3" d="M105.33,62.26Q98.42,77.46,93.06,93l-3.25.79q5.14-15.63,11.83-31C102.87,62.64,104.1,62.44,105.33,62.26Z"/><g class="cls-40"><path class="cls-1" d="M105.33,62.26Q98.42,77.46,93.06,93l-3.25.79q5.14-15.63,11.83-31C102.87,62.64,104.1,62.44,105.33,62.26Z"/></g><path class="cls-5" d="M105.33,62.26Q98.42,77.46,93.06,93l-3.25.79q5.14-15.63,11.83-31C102.87,62.64,104.1,62.44,105.33,62.26Z"/></g><g class="cls-2"><path class="cls-3" d="M93.06,93l-3.25.79-1-.61c1.08-.28,2.16-.54,3.25-.8Z"/><g class="cls-41"><path class="cls-1" d="M93.06,93l-3.25.79-1-.61c1.08-.28,2.16-.54,3.25-.8Z"/></g><path class="cls-5" d="M93.06,93l-3.25.79-1-.61c1.08-.28,2.16-.54,3.25-.8Z"/></g><g class="cls-2"><path class="cls-3" d="M92.07,92.41c-1.09.26-2.17.52-3.25.8q1.7-15.27,4.08-30.51L96.58,62Q94,77.16,92.07,92.41Z"/><g class="cls-42"><path class="cls-1" d="M92.07,92.41c-1.09.26-2.17.52-3.25.8q1.7-15.27,4.08-30.51L96.58,62Q94,77.16,92.07,92.41Z"/></g><path class="cls-5" d="M92.07,92.41c-1.09.26-2.17.52-3.25.8q1.7-15.27,4.08-30.51L96.58,62Q94,77.16,92.07,92.41Z"/></g><g class="cls-2"><path class="cls-3" d="M96.58,62l-3.68.74A228.14,228.14,0,0,0,35.58,73.35c1.14-.56,2.28-1.12,3.43-1.66A228.62,228.62,0,0,1,96.58,62Z"/><g class="cls-43"><path class="cls-1" d="M96.58,62l-3.68.74A228.14,228.14,0,0,0,35.58,73.35c1.14-.56,2.28-1.12,3.43-1.66A228.62,228.62,0,0,1,96.58,62Z"/></g><path class="cls-5" d="M96.58,62l-3.68.74A228.14,228.14,0,0,0,35.58,73.35c1.14-.56,2.28-1.12,3.43-1.66A228.62,228.62,0,0,1,96.58,62Z"/></g><g class="cls-2"><path class="cls-3" d="M39,71.69c-1.15.54-2.29,1.1-3.43,1.66A575.61,575.61,0,0,0,.33,16.06q2.1-1.14,4.2-2.23A579.35,579.35,0,0,1,39,71.69Z"/><g class="cls-44"><path class="cls-1" d="M39,71.69c-1.15.54-2.29,1.1-3.43,1.66A575.61,575.61,0,0,0,.33,16.06q2.1-1.14,4.2-2.23A579.35,579.35,0,0,1,39,71.69Z"/></g><path class="cls-5" d="M39,71.69c-1.15.54-2.29,1.1-3.43,1.66A575.61,575.61,0,0,0,.33,16.06q2.1-1.14,4.2-2.23A579.35,579.35,0,0,1,39,71.69Z"/></g><g class="cls-2"><path class="cls-3" d="M4.53,13.83A252.07,252.07,0,0,1,51,32.61c-1.34.48-2.67,1-4,1.47a250.53,250.53,0,0,0-46.68-18Q2.43,14.92,4.53,13.83Z"/><g class="cls-45"><path class="cls-1" d="M4.53,13.83A252.07,252.07,0,0,1,51,32.61c-1.34.48-2.67,1-4,1.47a250.53,250.53,0,0,0-46.68-18Q2.43,14.92,4.53,13.83Z"/></g><path class="cls-5" d="M4.53,13.83A252.07,252.07,0,0,1,51,32.61c-1.34.48-2.67,1-4,1.47a250.53,250.53,0,0,0-46.68-18Q2.43,14.92,4.53,13.83Z"/></g><g class="cls-2"><path class="cls-3" d="M51,32.61c-1.34.48-2.67,1-4,1.47A280.79,280.79,0,0,1,78.35,1.27c1.5-.34,3-.66,4.5-1A281,281,0,0,0,51,32.61Z"/><g class="cls-46"><path class="cls-1" d="M51,32.61c-1.34.48-2.67,1-4,1.47A280.79,280.79,0,0,1,78.35,1.27c1.5-.34,3-.66,4.5-1A281,281,0,0,0,51,32.61Z"/></g><path class="cls-5" d="M51,32.61c-1.34.48-2.67,1-4,1.47A280.79,280.79,0,0,1,78.35,1.27c1.5-.34,3-.66,4.5-1A281,281,0,0,0,51,32.61Z"/></g><g class="cls-2"><path class="cls-3" d="M82.85.3q-1.29,12.81-2.27,25.63c-1.39.32-2.77.65-4.15,1q.79-12.84,1.92-25.66C79.85.93,81.35.61,82.85.3Z"/><g class="cls-47"><path class="cls-1" d="M82.85.3q-1.29,12.81-2.27,25.63c-1.39.32-2.77.65-4.15,1q.79-12.84,1.92-25.66C79.85.93,81.35.61,82.85.3Z"/></g><path class="cls-5" d="M82.85.3q-1.29,12.81-2.27,25.63c-1.39.32-2.77.65-4.15,1q.79-12.84,1.92-25.66C79.85.93,81.35.61,82.85.3Z"/></g><g class="cls-2"><path class="cls-3" d="M80.58,25.93Q90.71,33.45,99.82,41.7c-1.33.22-2.65.45-4,.69q-9.19-8.1-19.42-15.46C77.81,26.58,79.19,26.25,80.58,25.93Z"/><g class="cls-48"><path class="cls-1" d="M80.58,25.93Q90.71,33.45,99.82,41.7c-1.33.22-2.65.45-4,.69q-9.19-8.1-19.42-15.46C77.81,26.58,79.19,26.25,80.58,25.93Z"/></g><path class="cls-5" d="M80.58,25.93Q90.71,33.45,99.82,41.7c-1.33.22-2.65.45-4,.69q-9.19-8.1-19.42-15.46C77.81,26.58,79.19,26.25,80.58,25.93Z"/></g><g class="cls-2"><path class="cls-3" d="M99.82,41.7c-1.33.22-2.65.45-4,.69q2.55-7.2,5.36-14.34c1.39-.21,2.78-.41,4.18-.6Q102.47,34.55,99.82,41.7Z"/><g class="cls-49"><path class="cls-1" d="M99.82,41.7c-1.33.22-2.65.45-4,.69q2.55-7.2,5.36-14.34c1.39-.21,2.78-.41,4.18-.6Q102.47,34.55,99.82,41.7Z"/></g><path class="cls-5" d="M99.82,41.7c-1.33.22-2.65.45-4,.69q2.55-7.2,5.36-14.34c1.39-.21,2.78-.41,4.18-.6Q102.47,34.55,99.82,41.7Z"/></g><g class="cls-2"><path class="cls-3" d="M105.39,27.45c-1.4.19-2.79.39-4.18.6-4.68-3.11-9.51-6.11-14.47-9,1.42-.29,2.84-.56,4.27-.83Q98.41,22.66,105.39,27.45Z"/><g class="cls-50"><path class="cls-1" d="M105.39,27.45c-1.4.19-2.79.39-4.18.6-4.68-3.11-9.51-6.11-14.47-9,1.42-.29,2.84-.56,4.27-.83Q98.41,22.66,105.39,27.45Z"/></g><path class="cls-5" d="M105.39,27.45c-1.4.19-2.79.39-4.18.6-4.68-3.11-9.51-6.11-14.47-9,1.42-.29,2.84-.56,4.27-.83Q98.41,22.66,105.39,27.45Z"/></g><g class="cls-2"><path class="cls-3" d="M91,18.26q12.12-.66,24.28-.22l-4.32.44q-12.12-.24-24.23.61C88.16,18.8,89.58,18.53,91,18.26Z"/><g class="cls-51"><path class="cls-1" d="M91,18.26q12.12-.66,24.28-.22l-4.32.44q-12.12-.24-24.23.61C88.16,18.8,89.58,18.53,91,18.26Z"/></g><path class="cls-5" d="M91,18.26q12.12-.66,24.28-.22l-4.32.44q-12.12-.24-24.23.61C88.16,18.8,89.58,18.53,91,18.26Z"/></g><g class="cls-2"><path class="cls-3" d="M115.29,18l-4.32.44q6.78-8.84,14.32-17.32c1.52-.08,3-.15,4.58-.21Q122.21,9.3,115.29,18Z"/><g class="cls-52"><path class="cls-1" d="M115.29,18l-4.32.44q6.78-8.84,14.32-17.32c1.52-.08,3-.15,4.58-.21Q122.21,9.3,115.29,18Z"/></g><path class="cls-5" d="M115.29,18l-4.32.44q6.78-8.84,14.32-17.32c1.52-.08,3-.15,4.58-.21Q122.21,9.3,115.29,18Z"/></g><g class="cls-2"><path class="cls-3" d="M129.87,1Q128.11,12,126.49,23.12c-1.43.07-2.86.16-4.28.26q1.49-11.13,3.08-22.22C126.81,1.08,128.34,1,129.87,1Z"/><g class="cls-53"><path class="cls-1" d="M129.87,1Q128.11,12,126.49,23.12c-1.43.07-2.86.16-4.28.26q1.49-11.13,3.08-22.22C126.81,1.08,128.34,1,129.87,1Z"/></g><path class="cls-5" d="M129.87,1Q128.11,12,126.49,23.12c-1.43.07-2.86.16-4.28.26q1.49-11.13,3.08-22.22C126.81,1.08,128.34,1,129.87,1Z"/></g><g class="cls-2"><path class="cls-3" d="M126.49,23.12q-.22,9.73-.51,19.48c-1.34.08-2.67.16-4,.26q.15-9.73.24-19.48C123.63,23.28,125.06,23.19,126.49,23.12Z"/><g class="cls-54"><path class="cls-1" d="M126.49,23.12q-.22,9.73-.51,19.48c-1.34.08-2.67.16-4,.26q.15-9.73.24-19.48C123.63,23.28,125.06,23.19,126.49,23.12Z"/></g><path class="cls-5" d="M126.49,23.12q-.22,9.73-.51,19.48c-1.34.08-2.67.16-4,.26q.15-9.73.24-19.48C123.63,23.28,125.06,23.19,126.49,23.12Z"/></g><g class="cls-2"><path class="cls-3" d="M126,42.6q11.83,1,23.56,3.12c-1.34,0-2.68-.1-4-.13Q133.81,43.65,122,42.86C123.31,42.76,124.64,42.68,126,42.6Z"/><g class="cls-55"><path class="cls-1" d="M126,42.6q11.83,1,23.56,3.12c-1.34,0-2.68-.1-4-.13Q133.81,43.65,122,42.86C123.31,42.76,124.64,42.68,126,42.6Z"/></g><path class="cls-5" d="M126,42.6q11.83,1,23.56,3.12c-1.34,0-2.68-.1-4-.13Q133.81,43.65,122,42.86C123.31,42.76,124.64,42.68,126,42.6Z"/></g><g class="cls-2"><path class="cls-3" d="M149.54,45.72c-1.34,0-2.68-.1-4-.13a317.83,317.83,0,0,0-18-33.65c1.48-.07,3-.13,4.44-.17A321,321,0,0,1,149.54,45.72Z"/><g class="cls-56"><path class="cls-1" d="M149.54,45.72c-1.34,0-2.68-.1-4-.13a317.83,317.83,0,0,0-18-33.65c1.48-.07,3-.13,4.44-.17A321,321,0,0,1,149.54,45.72Z"/></g><path class="cls-5" d="M149.54,45.72c-1.34,0-2.68-.1-4-.13a317.83,317.83,0,0,0-18-33.65c1.48-.07,3-.13,4.44-.17A321,321,0,0,1,149.54,45.72Z"/></g><g class="cls-2"><path class="cls-3" d="M131.94,11.77c-1.48,0-3,.1-4.44.17l1.05-1c1.49-.06,3-.11,4.46-.15C132.65,11.12,132.29,11.44,131.94,11.77Z"/><g class="cls-57"><path class="cls-1" d="M131.94,11.77c-1.48,0-3,.1-4.44.17l1.05-1c1.49-.06,3-.11,4.46-.15C132.65,11.12,132.29,11.44,131.94,11.77Z"/></g><path class="cls-5" d="M131.94,11.77c-1.48,0-3,.1-4.44.17l1.05-1c1.49-.06,3-.11,4.46-.15C132.65,11.12,132.29,11.44,131.94,11.77Z"/></g><g class="cls-2"><path class="cls-3" d="M133,10.8a284,284,0,0,1,21,25.92c-1.38-.08-2.76-.14-4.15-.2A281.07,281.07,0,0,0,128.55,11C130,10.89,131.52,10.84,133,10.8Z"/><g class="cls-58"><path class="cls-1" d="M133,10.8a284,284,0,0,1,21,25.92c-1.38-.08-2.76-.14-4.15-.2A281.07,281.07,0,0,0,128.55,11C130,10.89,131.52,10.84,133,10.8Z"/></g><path class="cls-5" d="M133,10.8a284,284,0,0,1,21,25.92c-1.38-.08-2.76-.14-4.15-.2A281.07,281.07,0,0,0,128.55,11C130,10.89,131.52,10.84,133,10.8Z"/></g><g class="cls-2"><path class="cls-3" d="M154,36.72q4.17,6.12,8,12.38c-1.33-.13-2.67-.24-4-.34q-3.87-6.18-8.11-12.24C151.27,36.58,152.65,36.64,154,36.72Z"/><g class="cls-59"><path class="cls-1" d="M154,36.72q4.17,6.12,8,12.38c-1.33-.13-2.67-.24-4-.34q-3.87-6.18-8.11-12.24C151.27,36.58,152.65,36.64,154,36.72Z"/></g><path class="cls-5" d="M154,36.72q4.17,6.12,8,12.38c-1.33-.13-2.67-.24-4-.34q-3.87-6.18-8.11-12.24C151.27,36.58,152.65,36.64,154,36.72Z"/></g><g class="cls-2"><path class="cls-3" d="M162,49.1c-1.33-.13-2.67-.24-4-.34q6.42-5.48,13.27-10.6c1.39.17,2.78.36,4.17.56Q168.5,43.73,162,49.1Z"/><g class="cls-60"><path class="cls-1" d="M162,49.1c-1.33-.13-2.67-.24-4-.34q6.42-5.48,13.27-10.6c1.39.17,2.78.36,4.17.56Q168.5,43.73,162,49.1Z"/></g><path class="cls-5" d="M162,49.1c-1.33-.13-2.67-.24-4-.34q6.42-5.48,13.27-10.6c1.39.17,2.78.36,4.17.56Q168.5,43.73,162,49.1Z"/></g><g class="cls-2"><path class="cls-3" d="M175.43,38.72c-1.39-.2-2.78-.39-4.17-.56A275.7,275.7,0,0,1,202.37,17c1.51.36,3,.72,4.52,1.1A272.67,272.67,0,0,0,175.43,38.72Z"/><g class="cls-61"><path class="cls-1" d="M175.43,38.72c-1.39-.2-2.78-.39-4.17-.56A275.7,275.7,0,0,1,202.37,17c1.51.36,3,.72,4.52,1.1A272.67,272.67,0,0,0,175.43,38.72Z"/></g><path class="cls-5" d="M175.43,38.72c-1.39-.2-2.78-.39-4.17-.56A275.7,275.7,0,0,1,202.37,17c1.51.36,3,.72,4.52,1.1A272.67,272.67,0,0,0,175.43,38.72Z"/></g><g class="cls-2"><path class="cls-3" d="M206.89,18.13c.26.46.53.92.8,1.38-1.5-.39-3-.76-4.49-1.12L202.37,17C203.88,17.39,205.38,17.75,206.89,18.13Z"/><g class="cls-62"><path class="cls-1" d="M206.89,18.13c.26.46.53.92.8,1.38-1.5-.39-3-.76-4.49-1.12L202.37,17C203.88,17.39,205.38,17.75,206.89,18.13Z"/></g><path class="cls-5" d="M206.89,18.13c.26.46.53.92.8,1.38-1.5-.39-3-.76-4.49-1.12L202.37,17C203.88,17.39,205.38,17.75,206.89,18.13Z"/></g><g class="cls-2"><path class="cls-3" d="M144.86,89.43l-3.43-.06a330.5,330.5,0,0,1,52.95-65c1.47.31,2.93.63,4.4,1A328.94,328.94,0,0,0,144.86,89.43Z"/><g class="cls-63"><path class="cls-1" d="M144.86,89.43l-3.43-.06a330.5,330.5,0,0,1,52.95-65c1.47.31,2.93.63,4.4,1A328.94,328.94,0,0,0,144.86,89.43Z"/></g><path class="cls-5" d="M144.86,89.43l-3.43-.06a330.5,330.5,0,0,1,52.95-65c1.47.31,2.93.63,4.4,1A328.94,328.94,0,0,0,144.86,89.43Z"/></g><g class="cls-2"><path class="cls-3" d="M198.78,25.33q-11.72,7.13-22.41,15.21c-1.39-.2-2.77-.4-4.15-.58a270.82,270.82,0,0,1,22.16-15.59C195.85,24.68,197.31,25,198.78,25.33Z"/><g class="cls-64"><path class="cls-1" d="M198.78,25.33q-11.72,7.13-22.41,15.21c-1.39-.2-2.77-.4-4.15-.58a270.82,270.82,0,0,1,22.16-15.59C195.85,24.68,197.31,25,198.78,25.33Z"/></g><path class="cls-5" d="M198.78,25.33q-11.72,7.13-22.41,15.21c-1.39-.2-2.77-.4-4.15-.58a270.82,270.82,0,0,1,22.16-15.59C195.85,24.68,197.31,25,198.78,25.33Z"/></g><g class="cls-2"><path class="cls-3" d="M176.37,40.54Q168.72,46,161.59,52l-4-.33q7-6,14.59-11.68C173.6,40.14,175,40.34,176.37,40.54Z"/><g class="cls-65"><path class="cls-1" d="M176.37,40.54Q168.72,46,161.59,52l-4-.33q7-6,14.59-11.68C173.6,40.14,175,40.34,176.37,40.54Z"/></g><path class="cls-5" d="M176.37,40.54Q168.72,46,161.59,52l-4-.33q7-6,14.59-11.68C173.6,40.14,175,40.34,176.37,40.54Z"/></g><g class="cls-2"><path class="cls-3" d="M161.59,52l-4-.33q-4.31-7-9.07-13.75l4.13.18Q157.39,44.94,161.59,52Z"/><g class="cls-66"><path class="cls-1" d="M161.59,52l-4-.33q-4.31-7-9.07-13.75l4.13.18Q157.39,44.94,161.59,52Z"/></g><path class="cls-5" d="M161.59,52l-4-.33q-4.31-7-9.07-13.75l4.13.18Q157.39,44.94,161.59,52Z"/></g><g class="cls-2"><path class="cls-3" d="M152.69,38.07l-4.13-.18q-6.72-9.34-14.34-18.32c1.44,0,2.89-.05,4.34-.06Q146.09,28.6,152.69,38.07Z"/><g class="cls-67"><path class="cls-1" d="M152.69,38.07l-4.13-.18q-6.72-9.34-14.34-18.32c1.44,0,2.89-.05,4.34-.06Q146.09,28.6,152.69,38.07Z"/></g><path class="cls-5" d="M152.69,38.07l-4.13-.18q-6.72-9.34-14.34-18.32c1.44,0,2.89-.05,4.34-.06Q146.09,28.6,152.69,38.07Z"/></g><g class="cls-2"><path class="cls-3" d="M138.56,19.51a321.4,321.4,0,0,1,14.1,29q-2-.1-4-.18a321.22,321.22,0,0,0-14.45-28.71C135.66,19.54,137.11,19.52,138.56,19.51Z"/><g class="cls-68"><path class="cls-1" d="M138.56,19.51a321.4,321.4,0,0,1,14.1,29q-2-.1-4-.18a321.22,321.22,0,0,0-14.45-28.71C135.66,19.54,137.11,19.52,138.56,19.51Z"/></g><path class="cls-5" d="M138.56,19.51a321.4,321.4,0,0,1,14.1,29q-2-.1-4-.18a321.22,321.22,0,0,0-14.45-28.71C135.66,19.54,137.11,19.52,138.56,19.51Z"/></g><g class="cls-2"><path class="cls-3" d="M152.66,48.46q-2-.1-4-.18a243.18,243.18,0,0,0-28.42-3.4c1.32-.11,2.65-.21,4-.29A244.22,244.22,0,0,1,152.66,48.46Z"/><g class="cls-69"><path class="cls-1" d="M152.66,48.46q-2-.1-4-.18a243.18,243.18,0,0,0-28.42-3.4c1.32-.11,2.65-.21,4-.29A244.22,244.22,0,0,1,152.66,48.46Z"/></g><path class="cls-5" d="M152.66,48.46q-2-.1-4-.18a243.18,243.18,0,0,0-28.42-3.4c1.32-.11,2.65-.21,4-.29A244.22,244.22,0,0,1,152.66,48.46Z"/></g><g class="cls-2"><path class="cls-3" d="M124.23,44.59c-1.33.08-2.66.18-4,.29q.1-10.92.15-21.84c1.43-.11,2.85-.21,4.28-.29Q124.48,33.67,124.23,44.59Z"/><g class="cls-70"><path class="cls-1" d="M124.23,44.59c-1.33.08-2.66.18-4,.29q.1-10.92.15-21.84c1.43-.11,2.85-.21,4.28-.29Q124.48,33.67,124.23,44.59Z"/></g><path class="cls-5" d="M124.23,44.59c-1.33.08-2.66.18-4,.29q.1-10.92.15-21.84c1.43-.11,2.85-.21,4.28-.29Q124.48,33.67,124.23,44.59Z"/></g><g class="cls-2"><path class="cls-3" d="M124.68,22.75c-1.43.08-2.85.18-4.28.29q1-7.74,2-15.46c1.49-.1,3-.18,4.48-.25C126.15,12.46,125.4,17.61,124.68,22.75Z"/><g class="cls-71"><path class="cls-1" d="M124.68,22.75c-1.43.08-2.85.18-4.28.29q1-7.74,2-15.46c1.49-.1,3-.18,4.48-.25C126.15,12.46,125.4,17.61,124.68,22.75Z"/></g><path class="cls-5" d="M124.68,22.75c-1.43.08-2.85.18-4.28.29q1-7.74,2-15.46c1.49-.1,3-.18,4.48-.25C126.15,12.46,125.4,17.61,124.68,22.75Z"/></g><g class="cls-2"><path class="cls-3" d="M126.91,7.33q-5.59,6.32-10.77,12.87c-1.43.13-2.87.27-4.29.42q5.07-6.61,10.58-13C123.92,7.48,125.42,7.4,126.91,7.33Z"/><g class="cls-72"><path class="cls-1" d="M126.91,7.33q-5.59,6.32-10.77,12.87c-1.43.13-2.87.27-4.29.42q5.07-6.61,10.58-13C123.92,7.48,125.42,7.4,126.91,7.33Z"/></g><path class="cls-5" d="M126.91,7.33q-5.59,6.32-10.77,12.87c-1.43.13-2.87.27-4.29.42q5.07-6.61,10.58-13C123.92,7.48,125.42,7.4,126.91,7.33Z"/></g><g class="cls-2"><path class="cls-3" d="M116.14,20.2c-1.43.13-2.87.27-4.29.42q-9.15-.21-18.29.2c1.42-.26,2.84-.5,4.26-.73Q107,19.84,116.14,20.2Z"/><g class="cls-73"><path class="cls-1" d="M116.14,20.2c-1.43.13-2.87.27-4.29.42q-9.15-.21-18.29.2c1.42-.26,2.84-.5,4.26-.73Q107,19.84,116.14,20.2Z"/></g><path class="cls-5" d="M116.14,20.2c-1.43.13-2.87.27-4.29.42q-9.15-.21-18.29.2c1.42-.26,2.84-.5,4.26-.73Q107,19.84,116.14,20.2Z"/></g><g class="cls-2"><path class="cls-3" d="M97.82,20.09q5.07,3.21,9.92,6.6l-4.18.56q-4.89-3.3-10-6.43C95,20.56,96.4,20.32,97.82,20.09Z"/><g class="cls-74"><path class="cls-1" d="M97.82,20.09q5.07,3.21,9.92,6.6l-4.18.56q-4.89-3.3-10-6.43C95,20.56,96.4,20.32,97.82,20.09Z"/></g><path class="cls-5" d="M97.82,20.09q5.07,3.21,9.92,6.6l-4.18.56q-4.89-3.3-10-6.43C95,20.56,96.4,20.32,97.82,20.09Z"/></g><g class="cls-2"><path class="cls-3" d="M107.74,26.69q-3.81,9.06-7.19,18.23c-1.31.22-2.62.44-3.92.68q3.24-9.23,6.93-18.35Z"/><g class="cls-75"><path class="cls-1" d="M107.74,26.69q-3.81,9.06-7.19,18.23c-1.31.22-2.62.44-3.92.68q3.24-9.23,6.93-18.35Z"/></g><path class="cls-5" d="M107.74,26.69q-3.81,9.06-7.19,18.23c-1.31.22-2.62.44-3.92.68q3.24-9.23,6.93-18.35Z"/></g><g class="cls-2"><path class="cls-3" d="M100.55,44.92c-1.31.22-2.62.44-3.92.68A253.5,253.5,0,0,0,74.54,28c1.38-.36,2.75-.7,4.13-1A253.93,253.93,0,0,1,100.55,44.92Z"/><g class="cls-76"><path class="cls-1" d="M100.55,44.92c-1.31.22-2.62.44-3.92.68A253.5,253.5,0,0,0,74.54,28c1.38-.36,2.75-.7,4.13-1A253.93,253.93,0,0,1,100.55,44.92Z"/></g><path class="cls-5" d="M100.55,44.92c-1.31.22-2.62.44-3.92.68A253.5,253.5,0,0,0,74.54,28c1.38-.36,2.75-.7,4.13-1A253.93,253.93,0,0,1,100.55,44.92Z"/></g><g class="cls-2"><path class="cls-3" d="M78.67,27c-1.38.33-2.75.67-4.13,1Q75.14,17.11,76,6.24c1.47-.34,3-.68,4.43-1Q79.43,16.09,78.67,27Z"/><g class="cls-77"><path class="cls-1" d="M78.67,27c-1.38.33-2.75.67-4.13,1Q75.14,17.11,76,6.24c1.47-.34,3-.68,4.43-1Q79.43,16.09,78.67,27Z"/></g><path class="cls-5" d="M78.67,27c-1.38.33-2.75.67-4.13,1Q75.14,17.11,76,6.24c1.47-.34,3-.68,4.43-1Q79.43,16.09,78.67,27Z"/></g><g class="cls-2"><path class="cls-3" d="M80.4,5.24A279.69,279.69,0,0,0,51.53,35.12c-1.32.48-2.65,1-4,1.47A278.62,278.62,0,0,1,76,6.24C77.44,5.9,78.92,5.56,80.4,5.24Z"/><g class="cls-78"><path class="cls-1" d="M80.4,5.24A279.69,279.69,0,0,0,51.53,35.12c-1.32.48-2.65,1-4,1.47A278.62,278.62,0,0,1,76,6.24C77.44,5.9,78.92,5.56,80.4,5.24Z"/></g><path class="cls-5" d="M80.4,5.24A279.69,279.69,0,0,0,51.53,35.12c-1.32.48-2.65,1-4,1.47A278.62,278.62,0,0,1,76,6.24C77.44,5.9,78.92,5.56,80.4,5.24Z"/></g><g class="cls-2"><path class="cls-3" d="M51.53,35.12c-1.32.48-2.65,1-4,1.47a247.8,247.8,0,0,0-42.37-17q2.07-1.09,4.16-2.16A250.66,250.66,0,0,1,51.53,35.12Z"/><g class="cls-79"><path class="cls-1" d="M51.53,35.12c-1.32.48-2.65,1-4,1.47a247.8,247.8,0,0,0-42.37-17q2.07-1.09,4.16-2.16A250.66,250.66,0,0,1,51.53,35.12Z"/></g><path class="cls-5" d="M51.53,35.12c-1.32.48-2.65,1-4,1.47a247.8,247.8,0,0,0-42.37-17q2.07-1.09,4.16-2.16A250.66,250.66,0,0,1,51.53,35.12Z"/></g><g class="cls-2"><path class="cls-3" d="M9.36,17.45A584.32,584.32,0,0,1,39.62,69.31c-1.16.54-2.32,1.09-3.47,1.65A576,576,0,0,0,5.2,19.61Q7.27,18.52,9.36,17.45Z"/><g class="cls-80"><path class="cls-1" d="M9.36,17.45A584.32,584.32,0,0,1,39.62,69.31c-1.16.54-2.32,1.09-3.47,1.65A576,576,0,0,0,5.2,19.61Q7.27,18.52,9.36,17.45Z"/></g><path class="cls-5" d="M9.36,17.45A584.32,584.32,0,0,1,39.62,69.31c-1.16.54-2.32,1.09-3.47,1.65A576,576,0,0,0,5.2,19.61Q7.27,18.52,9.36,17.45Z"/></g><g class="cls-2"><path class="cls-3" d="M39.62,69.31a230,230,0,0,1,59.05-9.53c-1.24.22-2.48.46-3.71.7A230,230,0,0,0,36.15,71C37.3,70.4,38.46,69.85,39.62,69.31Z"/><g class="cls-81"><path class="cls-1" d="M39.62,69.31a230,230,0,0,1,59.05-9.53c-1.24.22-2.48.46-3.71.7A230,230,0,0,0,36.15,71C37.3,70.4,38.46,69.85,39.62,69.31Z"/></g><path class="cls-5" d="M39.62,69.31a230,230,0,0,1,59.05-9.53c-1.24.22-2.48.46-3.71.7A230,230,0,0,0,36.15,71C37.3,70.4,38.46,69.85,39.62,69.31Z"/></g><g class="cls-2"><path class="cls-3" d="M98.67,59.78q-2.43,12.48-4.37,25c-1.12.24-2.24.5-3.36.77Q92.71,73,95,60.48C96.19,60.24,97.43,60,98.67,59.78Z"/><g class="cls-82"><path class="cls-1" d="M98.67,59.78q-2.43,12.48-4.37,25c-1.12.24-2.24.5-3.36.77Q92.71,73,95,60.48C96.19,60.24,97.43,60,98.67,59.78Z"/></g><path class="cls-5" d="M98.67,59.78q-2.43,12.48-4.37,25c-1.12.24-2.24.5-3.36.77Q92.71,73,95,60.48C96.19,60.24,97.43,60,98.67,59.78Z"/></g><g class="cls-2"><path class="cls-3" d="M94.3,84.8c-1.12.24-2.24.5-3.36.77q4.36-12.51,9.73-24.83c1.24-.21,2.48-.42,3.72-.61Q98.86,72.34,94.3,84.8Z"/><g class="cls-83"><path class="cls-1" d="M94.3,84.8c-1.12.24-2.24.5-3.36.77q4.36-12.51,9.73-24.83c1.24-.21,2.48-.42,3.72-.61Q98.86,72.34,94.3,84.8Z"/></g><path class="cls-5" d="M94.3,84.8c-1.12.24-2.24.5-3.36.77q4.36-12.51,9.73-24.83c1.24-.21,2.48-.42,3.72-.61Q98.86,72.34,94.3,84.8Z"/></g><g class="cls-2"><path class="cls-3" d="M104.39,60.13a230.54,230.54,0,0,1,49.28,5.08c-1.26-.08-2.51-.15-3.77-.2a229.58,229.58,0,0,0-49.23-4.27C101.91,60.53,103.15,60.32,104.39,60.13Z"/><g class="cls-84"><path class="cls-1" d="M104.39,60.13a230.54,230.54,0,0,1,49.28,5.08c-1.26-.08-2.51-.15-3.77-.2a229.58,229.58,0,0,0-49.23-4.27C101.91,60.53,103.15,60.32,104.39,60.13Z"/></g><path class="cls-5" d="M104.39,60.13a230.54,230.54,0,0,1,49.28,5.08c-1.26-.08-2.51-.15-3.77-.2a229.58,229.58,0,0,0-49.23-4.27C101.91,60.53,103.15,60.32,104.39,60.13Z"/></g><g class="cls-2"><path class="cls-3" d="M153.67,65.21q-4.62,12-8.81,24.22l-3.43-.06q4-12.25,8.47-24.36C151.16,65.06,152.41,65.13,153.67,65.21Z"/><g class="cls-85"><path class="cls-1" d="M153.67,65.21q-4.62,12-8.81,24.22l-3.43-.06q4-12.25,8.47-24.36C151.16,65.06,152.41,65.13,153.67,65.21Z"/></g><path class="cls-5" d="M153.67,65.21q-4.62,12-8.81,24.22l-3.43-.06q4-12.25,8.47-24.36C151.16,65.06,152.41,65.13,153.67,65.21Z"/></g><g class="cls-2"><path class="cls-3" d="M51.05,50.38Q56.38,43.09,62.27,36q2.16,11.34,4.23,22.71a236.37,236.37,0,0,0-25.74,5.86Q32.6,49.81,23.44,35.49A243.44,243.44,0,0,1,51.05,50.38ZM64.5,57q-1.57-8.31-3.19-16.62Q56.23,46.55,51.59,53a241.89,241.89,0,0,0-23.1-12.89Q35.21,51,41.37,62.25A235,235,0,0,1,64.5,57"/><g class="cls-86"><path class="cls-1" d="M51.05,50.38Q56.38,43.09,62.27,36q2.16,11.34,4.23,22.71a236.37,236.37,0,0,0-25.74,5.86Q32.6,49.81,23.44,35.49A243.44,243.44,0,0,1,51.05,50.38ZM64.5,57q-1.57-8.31-3.19-16.62Q56.23,46.55,51.59,53a241.89,241.89,0,0,0-23.1-12.89Q35.21,51,41.37,62.25A235,235,0,0,1,64.5,57"/></g><path class="cls-5" d="M51.05,50.38Q56.38,43.09,62.27,36q2.16,11.34,4.23,22.71a236.37,236.37,0,0,0-25.74,5.86Q32.6,49.81,23.44,35.49A243.44,243.44,0,0,1,51.05,50.38ZM64.5,57q-1.57-8.31-3.19-16.62Q56.23,46.55,51.59,53a241.89,241.89,0,0,0-23.1-12.89Q35.21,51,41.37,62.25A235,235,0,0,1,64.5,57"/></g><g class="cls-2"><path class="cls-3" d="M54.83,49q5.43-7.22,11.44-14.16,2,11.38,3.92,22.78A232.77,232.77,0,0,0,44.32,63q-8-14.94-16.93-29.41A245.83,245.83,0,0,1,54.83,49Zm13.38,6.79q-1.47-8.34-3-16.67-5.17,6.13-9.91,12.48A239.46,239.46,0,0,0,32.38,38.31Q39,49.35,45,60.68q11.51-3,23.24-4.92"/><g class="cls-87"><path class="cls-1" d="M54.83,49q5.43-7.22,11.44-14.16,2,11.38,3.92,22.78A232.77,232.77,0,0,0,44.32,63q-8-14.94-16.93-29.41A245.83,245.83,0,0,1,54.83,49Zm13.38,6.79q-1.47-8.34-3-16.67-5.17,6.13-9.91,12.48A239.46,239.46,0,0,0,32.38,38.31Q39,49.35,45,60.68q11.51-3,23.24-4.92"/></g><path class="cls-5" d="M54.83,49q5.43-7.22,11.44-14.16,2,11.38,3.92,22.78A232.77,232.77,0,0,0,44.32,63q-8-14.94-16.93-29.41A245.83,245.83,0,0,1,54.83,49Zm13.38,6.79q-1.47-8.34-3-16.67-5.17,6.13-9.91,12.48A239.46,239.46,0,0,0,32.38,38.31Q39,49.35,45,60.68q11.51-3,23.24-4.92"/></g><g class="cls-2"><path class="cls-3" d="M54.83,49l-3.78,1.41Q56.38,43.09,62.27,36c1.33-.42,2.66-.83,4-1.23Q60.26,41.76,54.83,49Z"/><g class="cls-88"><path class="cls-1" d="M54.83,49l-3.78,1.41Q56.38,43.09,62.27,36c1.33-.42,2.66-.83,4-1.23Q60.26,41.76,54.83,49Z"/></g><path class="cls-5" d="M54.83,49l-3.78,1.41Q56.38,43.09,62.27,36c1.33-.42,2.66-.83,4-1.23Q60.26,41.76,54.83,49Z"/></g><g class="cls-2"><path class="cls-3" d="M66.27,34.81q2,11.38,3.92,22.78c-1.23.38-2.46.76-3.69,1.16Q64.43,47.4,62.27,36C63.6,35.62,64.93,35.21,66.27,34.81Z"/><g class="cls-89"><path class="cls-1" d="M66.27,34.81q2,11.38,3.92,22.78c-1.23.38-2.46.76-3.69,1.16Q64.43,47.4,62.27,36C63.6,35.62,64.93,35.21,66.27,34.81Z"/></g><path class="cls-5" d="M66.27,34.81q2,11.38,3.92,22.78c-1.23.38-2.46.76-3.69,1.16Q64.43,47.4,62.27,36C63.6,35.62,64.93,35.21,66.27,34.81Z"/></g><g class="cls-2"><path class="cls-3" d="M70.19,57.59c-1.23.38-2.46.76-3.69,1.16a236.37,236.37,0,0,0-25.74,5.86c1.18-.53,2.37-1.06,3.56-1.57A232.77,232.77,0,0,1,70.19,57.59Z"/><g class="cls-90"><path class="cls-1" d="M70.19,57.59c-1.23.38-2.46.76-3.69,1.16a236.37,236.37,0,0,0-25.74,5.86c1.18-.53,2.37-1.06,3.56-1.57A232.77,232.77,0,0,1,70.19,57.59Z"/></g><path class="cls-5" d="M70.19,57.59c-1.23.38-2.46.76-3.69,1.16a236.37,236.37,0,0,0-25.74,5.86c1.18-.53,2.37-1.06,3.56-1.57A232.77,232.77,0,0,1,70.19,57.59Z"/></g><g class="cls-2"><path class="cls-3" d="M44.32,63c-1.19.51-2.38,1-3.56,1.57Q32.6,49.81,23.44,35.49c1.31-.63,2.63-1.25,3.95-1.86Q36.35,48.09,44.32,63Z"/><g class="cls-91"><path class="cls-1" d="M44.32,63c-1.19.51-2.38,1-3.56,1.57Q32.6,49.81,23.44,35.49c1.31-.63,2.63-1.25,3.95-1.86Q36.35,48.09,44.32,63Z"/></g><path class="cls-5" d="M44.32,63c-1.19.51-2.38,1-3.56,1.57Q32.6,49.81,23.44,35.49c1.31-.63,2.63-1.25,3.95-1.86Q36.35,48.09,44.32,63Z"/></g><g class="cls-2"><path class="cls-3" d="M27.39,33.63A245.83,245.83,0,0,1,54.83,49l-3.78,1.41A243.44,243.44,0,0,0,23.44,35.49C24.75,34.86,26.07,34.24,27.39,33.63Z"/><g class="cls-92"><path class="cls-1" d="M27.39,33.63A245.83,245.83,0,0,1,54.83,49l-3.78,1.41A243.44,243.44,0,0,0,23.44,35.49C24.75,34.86,26.07,34.24,27.39,33.63Z"/></g><path class="cls-5" d="M27.39,33.63A245.83,245.83,0,0,1,54.83,49l-3.78,1.41A243.44,243.44,0,0,0,23.44,35.49C24.75,34.86,26.07,34.24,27.39,33.63Z"/></g><g class="cls-2"><path class="cls-3" d="M68.21,55.76c-1.24.38-2.48.78-3.71,1.19q-1.57-8.31-3.19-16.62c1.31-.42,2.62-.84,3.93-1.24Q66.76,47.42,68.21,55.76Z"/><g class="cls-93"><path class="cls-1" d="M68.21,55.76c-1.24.38-2.48.78-3.71,1.19q-1.57-8.31-3.19-16.62c1.31-.42,2.62-.84,3.93-1.24Q66.76,47.42,68.21,55.76Z"/></g><path class="cls-5" d="M68.21,55.76c-1.24.38-2.48.78-3.71,1.19q-1.57-8.31-3.19-16.62c1.31-.42,2.62-.84,3.93-1.24Q66.76,47.42,68.21,55.76Z"/></g><g class="cls-2"><path class="cls-3" d="M65.24,39.09q-5.17,6.13-9.91,12.48L51.59,53q4.63-6.4,9.72-12.64C62.62,39.91,63.93,39.49,65.24,39.09Z"/><g class="cls-94"><path class="cls-1" d="M65.24,39.09q-5.17,6.13-9.91,12.48L51.59,53q4.63-6.4,9.72-12.64C62.62,39.91,63.93,39.49,65.24,39.09Z"/></g><path class="cls-5" d="M65.24,39.09q-5.17,6.13-9.91,12.48L51.59,53q4.63-6.4,9.72-12.64C62.62,39.91,63.93,39.49,65.24,39.09Z"/></g><g class="cls-2"><path class="cls-3" d="M55.33,51.57,51.59,53a241.89,241.89,0,0,0-23.1-12.89c1.29-.6,2.59-1.19,3.89-1.77A239.46,239.46,0,0,1,55.33,51.57Z"/><g class="cls-95"><path class="cls-1" d="M55.33,51.57,51.59,53a241.89,241.89,0,0,0-23.1-12.89c1.29-.6,2.59-1.19,3.89-1.77A239.46,239.46,0,0,1,55.33,51.57Z"/></g><path class="cls-5" d="M55.33,51.57,51.59,53a241.89,241.89,0,0,0-23.1-12.89c1.29-.6,2.59-1.19,3.89-1.77A239.46,239.46,0,0,1,55.33,51.57Z"/></g><g class="cls-2"><path class="cls-3" d="M32.38,38.31Q39,49.35,45,60.68c-1.21.52-2.41,1-3.6,1.57Q35.22,51,28.49,40.08C29.78,39.48,31.08,38.89,32.38,38.31Z"/><g class="cls-96"><path class="cls-1" d="M32.38,38.31Q39,49.35,45,60.68c-1.21.52-2.41,1-3.6,1.57Q35.22,51,28.49,40.08C29.78,39.48,31.08,38.89,32.38,38.31Z"/></g><path class="cls-5" d="M32.38,38.31Q39,49.35,45,60.68c-1.21.52-2.41,1-3.6,1.57Q35.22,51,28.49,40.08C29.78,39.48,31.08,38.89,32.38,38.31Z"/></g><g class="cls-2"><path class="cls-3" d="M45,60.68q11.51-3,23.24-4.92c-1.24.38-2.48.78-3.71,1.19a235,235,0,0,0-23.13,5.3C42.56,61.72,43.76,61.2,45,60.68Z"/><g class="cls-97"><path class="cls-1" d="M45,60.68q11.51-3,23.24-4.92c-1.24.38-2.48.78-3.71,1.19a235,235,0,0,0-23.13,5.3C42.56,61.72,43.76,61.2,45,60.68Z"/></g><path class="cls-5" d="M45,60.68q11.51-3,23.24-4.92c-1.24.38-2.48.78-3.71,1.19a235,235,0,0,0-23.13,5.3C42.56,61.72,43.76,61.2,45,60.68Z"/></g><g class="cls-2"><path class="cls-3" d="M71.73,35.25A248.1,248.1,0,0,1,96.82,55.63c-7.16.26-14.32.86-21.44,1.79Q73.6,46.34,71.73,35.25Zm2.46,4.15q1.26,7.86,2.49,15.72,7.62-.94,15.3-1.39Q83.52,46.25,74.19,39.4"/><g class="cls-98"><path class="cls-1" d="M71.73,35.25A248.1,248.1,0,0,1,96.82,55.63c-7.16.26-14.32.86-21.44,1.79Q73.6,46.34,71.73,35.25Zm2.46,4.15q1.26,7.86,2.49,15.72,7.62-.94,15.3-1.39Q83.52,46.25,74.19,39.4"/></g><path class="cls-5" d="M71.73,35.25A248.1,248.1,0,0,1,96.82,55.63c-7.16.26-14.32.86-21.44,1.79Q73.6,46.34,71.73,35.25Zm2.46,4.15q1.26,7.86,2.49,15.72,7.62-.94,15.3-1.39Q83.52,46.25,74.19,39.4"/></g><g class="cls-2"><path class="cls-3" d="M75.75,34.18A248.54,248.54,0,0,1,100.61,55q-10.77.24-21.51,1.45Q77.48,45.29,75.75,34.18Zm2.4,4.18q1.17,7.88,2.28,15.76c5.1-.54,10.22-.93,15.35-1.14q-8.37-7.62-17.63-14.62"/><g class="cls-99"><path class="cls-1" d="M75.75,34.18A248.54,248.54,0,0,1,100.61,55q-10.77.24-21.51,1.45Q77.48,45.29,75.75,34.18Zm2.4,4.18q1.17,7.88,2.28,15.76c5.1-.54,10.22-.93,15.35-1.14q-8.37-7.62-17.63-14.62"/></g><path class="cls-5" d="M75.75,34.18A248.54,248.54,0,0,1,100.61,55q-10.77.24-21.51,1.45Q77.48,45.29,75.75,34.18Zm2.4,4.18q1.17,7.88,2.28,15.76c5.1-.54,10.22-.93,15.35-1.14q-8.37-7.62-17.63-14.62"/></g><g class="cls-2"><path class="cls-3" d="M75.75,34.18A248.54,248.54,0,0,1,100.61,55c-1.26.22-2.53.44-3.79.68A248.1,248.1,0,0,0,71.73,35.25C73.06,34.88,74.41,34.52,75.75,34.18Z"/><g class="cls-100"><path class="cls-1" d="M75.75,34.18A248.54,248.54,0,0,1,100.61,55c-1.26.22-2.53.44-3.79.68A248.1,248.1,0,0,0,71.73,35.25C73.06,34.88,74.41,34.52,75.75,34.18Z"/></g><path class="cls-5" d="M75.75,34.18A248.54,248.54,0,0,1,100.61,55c-1.26.22-2.53.44-3.79.68A248.1,248.1,0,0,0,71.73,35.25C73.06,34.88,74.41,34.52,75.75,34.18Z"/></g><g class="cls-2"><path class="cls-3" d="M100.61,55c-1.26.22-2.53.44-3.79.68-7.16.26-14.32.86-21.44,1.79l3.72-1Q89.83,55.19,100.61,55Z"/><g class="cls-101"><path class="cls-1" d="M100.61,55c-1.26.22-2.53.44-3.79.68-7.16.26-14.32.86-21.44,1.79l3.72-1Q89.83,55.19,100.61,55Z"/></g><path class="cls-5" d="M100.61,55c-1.26.22-2.53.44-3.79.68-7.16.26-14.32.86-21.44,1.79l3.72-1Q89.83,55.19,100.61,55Z"/></g><g class="cls-2"><path class="cls-3" d="M79.1,56.4l-3.72,1Q73.6,46.34,71.73,35.25c1.33-.37,2.68-.73,4-1.07Q77.48,45.28,79.1,56.4Z"/><g class="cls-102"><path class="cls-1" d="M79.1,56.4l-3.72,1Q73.6,46.34,71.73,35.25c1.33-.37,2.68-.73,4-1.07Q77.48,45.28,79.1,56.4Z"/></g><path class="cls-5" d="M79.1,56.4l-3.72,1Q73.6,46.34,71.73,35.25c1.33-.37,2.68-.73,4-1.07Q77.48,45.28,79.1,56.4Z"/></g><g class="cls-2"><path class="cls-3" d="M78.15,38.36q1.17,7.88,2.28,15.76l-3.75,1q-1.23-7.86-2.49-15.72C75.5,39,76.83,38.7,78.15,38.36Z"/><g class="cls-103"><path class="cls-1" d="M78.15,38.36q1.17,7.88,2.28,15.76l-3.75,1q-1.23-7.86-2.49-15.72C75.5,39,76.83,38.7,78.15,38.36Z"/></g><path class="cls-5" d="M78.15,38.36q1.17,7.88,2.28,15.76l-3.75,1q-1.23-7.86-2.49-15.72C75.5,39,76.83,38.7,78.15,38.36Z"/></g><g class="cls-2"><path class="cls-3" d="M80.43,54.12c5.1-.54,10.22-.93,15.35-1.14-1.27.24-2.54.49-3.8.75q-7.68.45-15.3,1.39Z"/><g class="cls-104"><path class="cls-1" d="M80.43,54.12c5.1-.54,10.22-.93,15.35-1.14-1.27.24-2.54.49-3.8.75q-7.68.45-15.3,1.39Z"/></g><path class="cls-5" d="M80.43,54.12c5.1-.54,10.22-.93,15.35-1.14-1.27.24-2.54.49-3.8.75q-7.68.45-15.3,1.39Z"/></g><g class="cls-2"><path class="cls-3" d="M95.78,53c-1.27.24-2.54.49-3.8.75Q83.52,46.25,74.19,39.4c1.31-.36,2.64-.7,4-1Q87.4,45.35,95.78,53Z"/><g class="cls-105"><path class="cls-1" d="M95.78,53c-1.27.24-2.54.49-3.8.75Q83.52,46.25,74.19,39.4c1.31-.36,2.64-.7,4-1Q87.4,45.35,95.78,53Z"/></g><path class="cls-5" d="M95.78,53c-1.27.24-2.54.49-3.8.75Q83.52,46.25,74.19,39.4c1.31-.36,2.64-.7,4-1Q87.4,45.35,95.78,53Z"/></g><g class="cls-2"><path class="cls-3" d="M111.09,49.21a239.6,239.6,0,0,1,47.16,6.31q-4.19,3-8.21,6l-.29-.05a232.65,232.65,0,0,0-47.93-4.2q3.65-12.23,8-24.31l.45.14.8.26.44.15Q111.27,41.38,111.09,49.21Zm38.64,10.14q1.82-1.4,3.68-2.76a237.85,237.85,0,0,0-44-5.32q.12-6.15.22-12.32-2.82,8.07-5.35,16.22a234.28,234.28,0,0,1,45.48,4.18"/><g class="cls-106"><path class="cls-1" d="M111.09,49.21a239.6,239.6,0,0,1,47.16,6.31q-4.19,3-8.21,6l-.29-.05a232.65,232.65,0,0,0-47.93-4.2q3.65-12.23,8-24.31l.45.14.8.26.44.15Q111.27,41.38,111.09,49.21Zm38.64,10.14q1.82-1.4,3.68-2.76a237.85,237.85,0,0,0-44-5.32q.12-6.15.22-12.32-2.82,8.07-5.35,16.22a234.28,234.28,0,0,1,45.48,4.18"/></g><path class="cls-5" d="M111.09,49.21a239.6,239.6,0,0,1,47.16,6.31q-4.19,3-8.21,6l-.29-.05a232.65,232.65,0,0,0-47.93-4.2q3.65-12.23,8-24.31l.45.14.8.26.44.15Q111.27,41.38,111.09,49.21Zm38.64,10.14q1.82-1.4,3.68-2.76a237.85,237.85,0,0,0-44-5.32q.12-6.15.22-12.32-2.82,8.07-5.35,16.22a234.28,234.28,0,0,1,45.48,4.18"/></g><g class="cls-2"><path class="cls-3" d="M115,48.77a239.94,239.94,0,0,1,47.18,7.09q-4.24,2.88-8.32,5.91l-.28-.06a233.7,233.7,0,0,0-48-5q3.81-12.15,8.3-24.17l.44.15.8.27.44.15Q115.29,40.94,115,48.77Zm38.58,10.78c1.23-.91,2.48-1.81,3.73-2.7a237.13,237.13,0,0,0-44.05-6l.39-12.33q-2.94,8-5.58,16.13a234.38,234.38,0,0,1,45.51,4.94"/><g class="cls-107"><path class="cls-1" d="M115,48.77a239.94,239.94,0,0,1,47.18,7.09q-4.24,2.88-8.32,5.91l-.28-.06a233.7,233.7,0,0,0-48-5q3.81-12.15,8.3-24.17l.44.15.8.27.44.15Q115.29,40.94,115,48.77Zm38.58,10.78c1.23-.91,2.48-1.81,3.73-2.7a237.13,237.13,0,0,0-44.05-6l.39-12.33q-2.94,8-5.58,16.13a234.38,234.38,0,0,1,45.51,4.94"/></g><path class="cls-5" d="M115,48.77a239.94,239.94,0,0,1,47.18,7.09q-4.24,2.88-8.32,5.91l-.28-.06a233.7,233.7,0,0,0-48-5q3.81-12.15,8.3-24.17l.44.15.8.27.44.15Q115.29,40.94,115,48.77Zm38.58,10.78c1.23-.91,2.48-1.81,3.73-2.7a237.13,237.13,0,0,0-44.05-6l.39-12.33q-2.94,8-5.58,16.13a234.38,234.38,0,0,1,45.51,4.94"/></g><g class="cls-2"><path class="cls-3" d="M115,48.77a239.94,239.94,0,0,1,47.18,7.09c-1.31-.12-2.61-.24-3.92-.34a239.6,239.6,0,0,0-47.16-6.31C112.39,49.05,113.69,48.91,115,48.77Z"/><g class="cls-108"><path class="cls-1" d="M115,48.77a239.94,239.94,0,0,1,47.18,7.09c-1.31-.12-2.61-.24-3.92-.34a239.6,239.6,0,0,0-47.16-6.31C112.39,49.05,113.69,48.91,115,48.77Z"/></g><path class="cls-5" d="M115,48.77a239.94,239.94,0,0,1,47.18,7.09c-1.31-.12-2.61-.24-3.92-.34a239.6,239.6,0,0,0-47.16-6.31C112.39,49.05,113.69,48.91,115,48.77Z"/></g><g class="cls-2"><path class="cls-3" d="M162.17,55.86q-4.24,2.88-8.32,5.91-1.9-.12-3.81-.21,4-3.09,8.21-6C159.56,55.62,160.86,55.74,162.17,55.86Z"/><g class="cls-109"><path class="cls-1" d="M162.17,55.86q-4.24,2.88-8.32,5.91-1.9-.12-3.81-.21,4-3.09,8.21-6C159.56,55.62,160.86,55.74,162.17,55.86Z"/></g><path class="cls-5" d="M162.17,55.86q-4.24,2.88-8.32,5.91-1.9-.12-3.81-.21,4-3.09,8.21-6C159.56,55.62,160.86,55.74,162.17,55.86Z"/></g><g class="cls-2"><path class="cls-3" d="M153.85,61.77q-1.9-.12-3.81-.21l-.29-.05,3.82.2Z"/><g class="cls-110"><path class="cls-1" d="M153.85,61.77q-1.9-.12-3.81-.21l-.29-.05,3.82.2Z"/></g><path class="cls-5" d="M153.85,61.77q-1.9-.12-3.81-.21l-.29-.05,3.82.2Z"/></g><g class="cls-2"><path class="cls-3" d="M153.57,61.71l-3.82-.2a232.65,232.65,0,0,0-47.93-4.2c1.25-.21,2.51-.41,3.77-.6A233.7,233.7,0,0,1,153.57,61.71Z"/><g class="cls-111"><path class="cls-1" d="M153.57,61.71l-3.82-.2a232.65,232.65,0,0,0-47.93-4.2c1.25-.21,2.51-.41,3.77-.6A233.7,233.7,0,0,1,153.57,61.71Z"/></g><path class="cls-5" d="M153.57,61.71l-3.82-.2a232.65,232.65,0,0,0-47.93-4.2c1.25-.21,2.51-.41,3.77-.6A233.7,233.7,0,0,1,153.57,61.71Z"/></g><g class="cls-2"><path class="cls-3" d="M105.59,56.71c-1.26.19-2.52.39-3.77.6q3.65-12.23,8-24.31c1.37-.16,2.74-.32,4.12-.46Q109.41,44.55,105.59,56.71Z"/><g class="cls-112"><path class="cls-1" d="M105.59,56.71c-1.26.19-2.52.39-3.77.6q3.65-12.23,8-24.31c1.37-.16,2.74-.32,4.12-.46Q109.41,44.55,105.59,56.71Z"/></g><path class="cls-5" d="M105.59,56.71c-1.26.19-2.52.39-3.77.6q3.65-12.23,8-24.31c1.37-.16,2.74-.32,4.12-.46Q109.41,44.55,105.59,56.71Z"/></g><g class="cls-2"><path class="cls-3" d="M113.89,32.54l.44.15q-2.06.21-4.11.45l-.45-.14C111.14,32.84,112.51,32.68,113.89,32.54Z"/><g class="cls-113"><path class="cls-1" d="M113.89,32.54l.44.15q-2.06.21-4.11.45l-.45-.14C111.14,32.84,112.51,32.68,113.89,32.54Z"/></g><path class="cls-5" d="M113.89,32.54l.44.15q-2.06.21-4.11.45l-.45-.14C111.14,32.84,112.51,32.68,113.89,32.54Z"/></g><g class="cls-2"><path class="cls-3" d="M114.33,32.69l.8.27c-1.37.14-2.74.28-4.11.44l-.8-.26Q112.28,32.9,114.33,32.69Z"/><g class="cls-114"><path class="cls-1" d="M114.33,32.69l.8.27c-1.37.14-2.74.28-4.11.44l-.8-.26Q112.28,32.9,114.33,32.69Z"/></g><path class="cls-5" d="M114.33,32.69l.8.27c-1.37.14-2.74.28-4.11.44l-.8-.26Q112.28,32.9,114.33,32.69Z"/></g><g class="cls-2"><path class="cls-3" d="M115.13,33l.44.15c-1.37.14-2.74.28-4.11.44L111,33.4C112.39,33.24,113.76,33.1,115.13,33Z"/><g class="cls-115"><path class="cls-1" d="M115.13,33l.44.15c-1.37.14-2.74.28-4.11.44L111,33.4C112.39,33.24,113.76,33.1,115.13,33Z"/></g><path class="cls-5" d="M115.13,33l.44.15c-1.37.14-2.74.28-4.11.44L111,33.4C112.39,33.24,113.76,33.1,115.13,33Z"/></g><g class="cls-2"><path class="cls-3" d="M115.57,33.11q-.28,7.83-.58,15.66c-1.3.14-2.6.28-3.9.44q.18-7.83.37-15.66C112.83,33.39,114.2,33.25,115.57,33.11Z"/><g class="cls-116"><path class="cls-1" d="M115.57,33.11q-.28,7.83-.58,15.66c-1.3.14-2.6.28-3.9.44q.18-7.83.37-15.66C112.83,33.39,114.2,33.25,115.57,33.11Z"/></g><path class="cls-5" d="M115.57,33.11q-.28,7.83-.58,15.66c-1.3.14-2.6.28-3.9.44q.18-7.83.37-15.66C112.83,33.39,114.2,33.25,115.57,33.11Z"/></g><g class="cls-2"><path class="cls-3" d="M153.57,59.55c-1.28-.08-2.56-.15-3.84-.2q1.82-1.4,3.68-2.76c1.29.07,2.59.16,3.89.26C156.05,57.74,154.8,58.64,153.57,59.55Z"/><g class="cls-117"><path class="cls-1" d="M153.57,59.55c-1.28-.08-2.56-.15-3.84-.2q1.82-1.4,3.68-2.76c1.29.07,2.59.16,3.89.26C156.05,57.74,154.8,58.64,153.57,59.55Z"/></g><path class="cls-5" d="M153.57,59.55c-1.28-.08-2.56-.15-3.84-.2q1.82-1.4,3.68-2.76c1.29.07,2.59.16,3.89.26C156.05,57.74,154.8,58.64,153.57,59.55Z"/></g><g class="cls-2"><path class="cls-3" d="M157.3,56.85c-1.3-.1-2.6-.19-3.89-.26a237.85,237.85,0,0,0-44-5.32c1.29-.16,2.58-.32,3.87-.46A237.13,237.13,0,0,1,157.3,56.85Z"/><g class="cls-118"><path class="cls-1" d="M157.3,56.85c-1.3-.1-2.6-.19-3.89-.26a237.85,237.85,0,0,0-44-5.32c1.29-.16,2.58-.32,3.87-.46A237.13,237.13,0,0,1,157.3,56.85Z"/></g><path class="cls-5" d="M157.3,56.85c-1.3-.1-2.6-.19-3.89-.26a237.85,237.85,0,0,0-44-5.32c1.29-.16,2.58-.32,3.87-.46A237.13,237.13,0,0,1,157.3,56.85Z"/></g><g class="cls-2"><path class="cls-3" d="M113.25,50.81c-1.29.14-2.58.3-3.87.46q.12-6.15.22-12.32c1.34-.17,2.69-.32,4-.47Z"/><g class="cls-119"><path class="cls-1" d="M113.25,50.81c-1.29.14-2.58.3-3.87.46q.12-6.15.22-12.32c1.34-.17,2.69-.32,4-.47Z"/></g><path class="cls-5" d="M113.25,50.81c-1.29.14-2.58.3-3.87.46q.12-6.15.22-12.32c1.34-.17,2.69-.32,4-.47Z"/></g><g class="cls-2"><path class="cls-3" d="M113.64,38.48q-2.94,8-5.58,16.13c-1.27.18-2.54.36-3.81.56Q106.79,47,109.6,39C110.94,38.78,112.29,38.63,113.64,38.48Z"/><g class="cls-120"><path class="cls-1" d="M113.64,38.48q-2.94,8-5.58,16.13c-1.27.18-2.54.36-3.81.56Q106.79,47,109.6,39C110.94,38.78,112.29,38.63,113.64,38.48Z"/></g><path class="cls-5" d="M113.64,38.48q-2.94,8-5.58,16.13c-1.27.18-2.54.36-3.81.56Q106.79,47,109.6,39C110.94,38.78,112.29,38.63,113.64,38.48Z"/></g><g class="cls-2"><path class="cls-3" d="M108.06,54.61a234.38,234.38,0,0,1,45.51,4.94c-1.28-.08-2.56-.15-3.84-.2a234.28,234.28,0,0,0-45.48-4.18C105.52,55,106.79,54.79,108.06,54.61Z"/><g class="cls-121"><path class="cls-1" d="M108.06,54.61a234.38,234.38,0,0,1,45.51,4.94c-1.28-.08-2.56-.15-3.84-.2a234.28,234.28,0,0,0-45.48-4.18C105.52,55,106.79,54.79,108.06,54.61Z"/></g><path class="cls-5" d="M108.06,54.61a234.38,234.38,0,0,1,45.51,4.94c-1.28-.08-2.56-.15-3.84-.2a234.28,234.28,0,0,0-45.48-4.18C105.52,55,106.79,54.79,108.06,54.61Z"/></g></g></g></g></svg>