<svg xmlns="http://www.w3.org/2000/svg" xmlns:xlink="http://www.w3.org/1999/xlink" viewBox="0 0 179.25 92.36"><defs><style>.cls-1,.cls-4{fill:none;}.cls-2{isolation:isolate;}.cls-3{clip-path:url(#clip-path);}.cls-4{stroke:#000;stroke-miterlimit:10;stroke-width:0.25px;}.cls-5{clip-path:url(#clip-path-2);}.cls-6{clip-path:url(#clip-path-3);}.cls-7{clip-path:url(#clip-path-4);}.cls-8{clip-path:url(#clip-path-5);}.cls-9{clip-path:url(#clip-path-6);}.cls-10{clip-path:url(#clip-path-7);}.cls-11{clip-path:url(#clip-path-8);}.cls-12{clip-path:url(#clip-path-9);}.cls-13{clip-path:url(#clip-path-10);}.cls-14{clip-path:url(#clip-path-11);}.cls-15{clip-path:url(#clip-path-12);}.cls-16{clip-path:url(#clip-path-13);}.cls-17{clip-path:url(#clip-path-14);}.cls-18{clip-path:url(#clip-path-15);}.cls-19{clip-path:url(#clip-path-16);}.cls-20{clip-path:url(#clip-path-17);}.cls-21{clip-path:url(#clip-path-18);}.cls-22{clip-path:url(#clip-path-19);}.cls-23{clip-path:url(#clip-path-20);}.cls-24{clip-path:url(#clip-path-21);}.cls-25{clip-path:url(#clip-path-22);}.cls-26{clip-path:url(#clip-path-23);}.cls-27{clip-path:url(#clip-path-24);}.cls-28{clip-path:url(#clip-path-25);}.cls-29{clip-path:url(#clip-path-26);}.cls-30{clip-path:url(#clip-path-27);}.cls-31{clip-path:url(#clip-path-28);}.cls-32{clip-path:url(#clip-path-29);}.cls-33{clip-path:url(#clip-path-30);}.cls-34{clip-path:url(#clip-path-31);}.cls-35{clip-path:url(#clip-path-32);}.cls-36{clip-path:url(#clip-path-33);}.cls-37{clip-path:url(#clip-path-34);}.cls-38{clip-path:url(#clip-path-35);}.cls-39{clip-path:url(#clip-path-36);}.cls-40{clip-path:url(#clip-path-37);}.cls-41{clip-path:url(#clip-path-38);}.cls-42{clip-path:url(#clip-path-39);}.cls-43{clip-path:url(#clip-path-40);}.cls-44{clip-path:url(#clip-path-41);}.cls-45{clip-path:url(#clip-path-42);}.cls-46{clip-path:url(#clip-path-43);}.cls-47{clip-path:url(#clip-path-44);}.cls-48{clip-path:url(#clip-path-45);}.cls-49{clip-path:url(#clip-path-46);}.cls-50{clip-path:url(#clip-path-47);}.cls-51{clip-path:url(#clip-path-48);}.cls-52{clip-path:url(#clip-path-49);}.cls-53{clip-path:url(#clip-path-50);}.cls-54{clip-path:url(#clip-path-51);}.cls-55{clip-path:url(#clip-path-52);}.cls-56{clip-path:url(#clip-path-53);}.cls-57{clip-path:url(#clip-path-54);}.cls-58{clip-path:url(#clip-path-55);}.cls-59{clip-path:url(#clip-path-56);}.cls-60{clip-path:url(#clip-path-57);}.cls-61{clip-path:url(#clip-path-58);}.cls-62{clip-path:url(#clip-path-59);}.cls-63{clip-path:url(#clip-path-60);}.cls-64{clip-path:url(#clip-path-61);}.cls-65{clip-path:url(#clip-path-62);}.cls-66{clip-path:url(#clip-path-63);}.cls-67{clip-path:url(#clip-path-64);}.cls-68{clip-path:url(#clip-path-65);}.cls-69{clip-path:url(#clip-path-66);}.cls-70{clip-path:url(#clip-path-67);}.cls-71{clip-path:url(#clip-path-68);}.cls-72{clip-path:url(#clip-path-69);}.cls-73{clip-path:url(#clip-path-70);}.cls-74{clip-path:url(#clip-path-71);}.cls-75{clip-path:url(#clip-path-72);}.cls-76{clip-path:url(#clip-path-73);}.cls-77{clip-path:url(#clip-path-74);}.cls-78{clip-path:url(#clip-path-75);}.cls-79{clip-path:url(#clip-path-76);}.cls-80{clip-path:url(#clip-path-77);}.cls-81{clip-path:url(#clip-path-78);}.cls-82{clip-path:url(#clip-path-79);}.cls-83{clip-path:url(#clip-path-80);}.cls-84{clip-path:url(#clip-path-81);}.cls-85{clip-path:url(#clip-path-82);}.cls-86{clip-path:url(#clip-path-83);}.cls-87{clip-path:url(#clip-path-84);}.cls-88{clip-path:url(#clip-path-85);}.cls-89{clip-path:url(#clip-path-86);}.cls-90{clip-path:url(#clip-path-87);}.cls-91{clip-path:url(#clip-path-88);}.cls-92{clip-path:url(#clip-path-89);}.cls-93{clip-path:url(#clip-path-90);}.cls-94{clip-path:url(#clip-path-91);}.cls-95{clip-path:url(#clip-path-92);}.cls-96{clip-path:url(#clip-path-93);}.cls-97{clip-path:url(#clip-path-94);}.cls-98{clip-path:url(#clip-path-95);}.cls-99{clip-path:url(#clip-path-96);}.cls-100{clip-path:url(#clip-path-97);}.cls-101{clip-path:url(#clip-path-98);}.cls-102{clip-path:url(#clip-path-99);}.cls-103{clip-path:url(#clip-path-100);}.cls-104{clip-path:url(#clip-path-101);}.cls-105{clip-path:url(#clip-path-102);}.cls-106{clip-path:url(#clip-path-103);}.cls-107{clip-path:url(#clip-path-104);}.cls-108{clip-path:url(#clip-path-105);}.cls-109{clip-path:url(#clip-path-106);}.cls-110{clip-path:url(#clip-path-107);}.cls-111{clip-path:url(#clip-path-108);}.cls-112{clip-path:url(#clip-path-109);}.cls-113{clip-path:url(#clip-path-110);}.cls-114{clip-path:url(#clip-path-111);}.cls-115{clip-path:url(#clip-path-112);}.cls-116{clip-path:url(#clip-path-113);}.cls-117{clip-path:url(#clip-path-114);}.cls-118{clip-path:url(#clip-path-115);}.cls-119{clip-path:url(#clip-path-116);}.cls-120{clip-path:url(#clip-path-117);}</style><clipPath id="clip-path" transform="translate(-8.01 -9.84)"><path class="cls-1" d="M183,14.09a.54.54,0,0,1,.13.62l-.66-.62a.33.33,0,0,1,.22-.11A.36.36,0,0,1,183,14.09Z"/></clipPath><clipPath id="clip-path-2" transform="translate(-8.01 -9.84)"><path class="cls-1" d="M186.85,13.54a.58.58,0,0,1,.13.63l-.66-.62a.35.35,0,0,1,.21-.12A.41.41,0,0,1,186.85,13.54Z"/></clipPath><clipPath id="clip-path-3" transform="translate(-8.01 -9.84)"><path class="cls-1" d="M186.85,13.54a.58.58,0,0,1,.13.63l-3.88.54a.54.54,0,0,0-.13-.62Z"/></clipPath><clipPath id="clip-path-4" transform="translate(-8.01 -9.84)"><polygon class="cls-1" points="186.98 14.16 183.1 14.71 182.44 14.09 186.32 13.54 186.98 14.16"/></clipPath><clipPath id="clip-path-5" transform="translate(-8.01 -9.84)"><path class="cls-1" d="M186.32,13.55l-3.88.54a.33.33,0,0,1,.22-.11l3.87-.55A.35.35,0,0,0,186.32,13.55Z"/></clipPath><clipPath id="clip-path-6" transform="translate(-8.01 -9.84)"><path class="cls-1" d="M186.53,13.43a.41.41,0,0,1,.32.11l-3.88.55a.36.36,0,0,0-.31-.11Z"/></clipPath><clipPath id="clip-path-7" transform="translate(-8.01 -9.84)"><path class="cls-1" d="M137.87,101.7a.58.58,0,0,1-.26-.52l.74.4a.4.4,0,0,1-.25.16A.38.38,0,0,1,137.87,101.7Z"/></clipPath><clipPath id="clip-path-8" transform="translate(-8.01 -9.84)"><path class="cls-1" d="M141.75,101.15a.55.55,0,0,1-.26-.52l.74.41a.37.37,0,0,1-.26.15A.35.35,0,0,1,141.75,101.15Z"/></clipPath><clipPath id="clip-path-9" transform="translate(-8.01 -9.84)"><path class="cls-1" d="M141.75,101.15l-3.88.55a.58.58,0,0,1-.26-.52l3.88-.55A.55.55,0,0,0,141.75,101.15Z"/></clipPath><clipPath id="clip-path-10" transform="translate(-8.01 -9.84)"><polygon class="cls-1" points="141.49 100.63 142.23 101.04 138.35 101.58 137.61 101.18 141.49 100.63"/></clipPath><clipPath id="clip-path-11" transform="translate(-8.01 -9.84)"><path class="cls-1" d="M142.23,101a.37.37,0,0,1-.26.15l-3.87.55a.4.4,0,0,0,.25-.16Z"/></clipPath><clipPath id="clip-path-12" transform="translate(-8.01 -9.84)"><path class="cls-1" d="M142,101.19l-3.87.55a.38.38,0,0,1-.23,0l3.88-.55A.35.35,0,0,0,142,101.19Z"/></clipPath><clipPath id="clip-path-13" transform="translate(-8.01 -9.84)"><path class="cls-1" d="M118.18,23.61a.36.36,0,0,1,.23-.13.4.4,0,0,1,.29.09l-.57.66A.56.56,0,0,1,118.18,23.61Z"/></clipPath><clipPath id="clip-path-14" transform="translate(-8.01 -9.84)"><path class="cls-1" d="M122.06,23.07a.37.37,0,0,1,.23-.14.42.42,0,0,1,.29.09l-.57.67A.56.56,0,0,1,122.06,23.07Z"/></clipPath><clipPath id="clip-path-15" transform="translate(-8.01 -9.84)"><path class="cls-1" d="M122.06,23.07l-3.88.54a.36.36,0,0,1,.23-.13l3.88-.55A.37.37,0,0,0,122.06,23.07Z"/></clipPath><clipPath id="clip-path-16" transform="translate(-8.01 -9.84)"><path class="cls-1" d="M122.29,22.93a.42.42,0,0,1,.29.09l-3.88.55a.4.4,0,0,0-.29-.09Z"/></clipPath><clipPath id="clip-path-17" transform="translate(-8.01 -9.84)"><polygon class="cls-1" points="122.58 23.02 122.01 23.69 118.13 24.23 118.7 23.57 122.58 23.02"/></clipPath><clipPath id="clip-path-18" transform="translate(-8.01 -9.84)"><path class="cls-1" d="M122,23.69l-3.88.54a.56.56,0,0,1,.05-.62l3.88-.54A.56.56,0,0,0,122,23.69Z"/></clipPath><clipPath id="clip-path-19" transform="translate(-8.01 -9.84)"><path class="cls-1" d="M79.3,101.93a.57.57,0,0,1-.25-.55l.75.42a.37.37,0,0,1-.27.17A.33.33,0,0,1,79.3,101.93Z"/></clipPath><clipPath id="clip-path-20" transform="translate(-8.01 -9.84)"><path class="cls-1" d="M83.18,101.38a.54.54,0,0,1-.25-.55l.74.43a.35.35,0,0,1-.26.17A.32.32,0,0,1,83.18,101.38Z"/></clipPath><clipPath id="clip-path-21" transform="translate(-8.01 -9.84)"><path class="cls-1" d="M83.18,101.38l-3.88.55a.57.57,0,0,1-.25-.55l3.88-.55A.54.54,0,0,0,83.18,101.38Z"/></clipPath><clipPath id="clip-path-22" transform="translate(-8.01 -9.84)"><polygon class="cls-1" points="82.93 100.83 83.67 101.26 79.8 101.8 79.05 101.38 82.93 100.83"/></clipPath><clipPath id="clip-path-23" transform="translate(-8.01 -9.84)"><path class="cls-1" d="M83.67,101.26a.35.35,0,0,1-.26.17l-3.88.54a.37.37,0,0,0,.27-.17Z"/></clipPath><clipPath id="clip-path-24" transform="translate(-8.01 -9.84)"><path class="cls-1" d="M83.41,101.43l-3.88.54a.33.33,0,0,1-.23,0l3.88-.55A.32.32,0,0,0,83.41,101.43Z"/></clipPath><clipPath id="clip-path-25" transform="translate(-8.01 -9.84)"><path class="cls-1" d="M103.25,45.18h.15a.51.51,0,0,1,.33.42l-.76-.23A.43.43,0,0,1,103.25,45.18Z"/></clipPath><clipPath id="clip-path-26" transform="translate(-8.01 -9.84)"><path class="cls-1" d="M107.13,44.64a.26.26,0,0,1,.15,0,.48.48,0,0,1,.33.41l-.76-.22A.34.34,0,0,1,107.13,44.64Z"/></clipPath><clipPath id="clip-path-27" transform="translate(-8.01 -9.84)"><path class="cls-1" d="M107.13,44.64a.26.26,0,0,1,.15,0,.48.48,0,0,1,.33.41l-3.88.55a.51.51,0,0,0-.33-.42h-.15Z"/></clipPath><clipPath id="clip-path-28" transform="translate(-8.01 -9.84)"><polygon class="cls-1" points="107.61 45.06 103.73 45.61 102.97 45.38 106.85 44.84 107.61 45.06"/></clipPath><clipPath id="clip-path-29" transform="translate(-8.01 -9.84)"><path class="cls-1" d="M106.85,44.84l-3.88.54a.43.43,0,0,1,.28-.2l3.88-.54A.34.34,0,0,0,106.85,44.84Z"/></clipPath><clipPath id="clip-path-30" transform="translate(-8.01 -9.84)"><path class="cls-1" d="M183.1,14.71,138.74,101.8l-1.13-.62,5.27-28-48.32.2L80.18,102l-1.13-.64L85.41,73l-61,.24L8.31,10.72,43.87,40.2,75.29,14.3,71.67,38.16,89.14,54l5.38-13.37-13-9,21.85-.08,11.9-16.95-1.53,21.06L114.61,54l23.08-.08L117.84,24.58l.86-1,21.85,21.21,9.6,9.8,10.29-12.73,21.67-28.08Zm-43,80.53L177.38,22.9l-15.7,20.35L150.32,57.31l-10.81-11L124.35,31.11,141.12,55.9,113,56l-.94-20.53,1.07-14.64-8.93,12.73-16.59.06,9,6.27L89.81,57l-20-18.1,3.06-20.2-29,23.89L11.27,15.54,25.63,71.22l62-.25L82.05,94.34l11.53-23L145,71.17l-4.91,24.07"/></clipPath><clipPath id="clip-path-31" transform="translate(-8.01 -9.84)"><path class="cls-1" d="M187,14.17l-44.36,87.08-1.13-.62,5.27-28-48.32.2L84.06,101.48l-1.13-.65,6.35-28.41-61,.25L12.18,10.18,47.74,39.65l31.42-25.9L75.55,37.61,93,53.45l5.37-13.36-13-9L107.28,31l11.9-17-1.54,21.07.85,18.31,23.07-.09L121.72,24l.86-1,21.84,21.21L154,54l10.3-12.74L186,13.23ZM144,94.7l37.26-72.35-15.7,20.36L154.2,56.77l-10.82-11L128.23,30.57,145,55.35l-28.07.11L116,34.94l1.07-14.64L108.11,33l-16.59.06,9,6.28L93.68,56.49l-20-18.1L76.78,18.2l-29,23.88L15.14,15,29.51,70.67l62-.24L85.92,93.8l11.53-23,51.45-.2L144,94.7"/></clipPath><clipPath id="clip-path-32" transform="translate(-8.01 -9.84)"><polygon class="cls-1" points="186.98 14.16 142.62 101.25 138.75 101.8 183.1 14.71 186.98 14.16"/></clipPath><clipPath id="clip-path-33" transform="translate(-8.01 -9.84)"><polygon class="cls-1" points="142.62 101.25 138.75 101.8 137.61 101.18 141.49 100.63 142.62 101.25"/></clipPath><clipPath id="clip-path-34" transform="translate(-8.01 -9.84)"><polygon class="cls-1" points="141.49 100.63 137.61 101.18 142.88 73.17 146.76 72.63 141.49 100.63"/></clipPath><clipPath id="clip-path-35" transform="translate(-8.01 -9.84)"><polygon class="cls-1" points="146.76 72.63 142.88 73.17 94.56 73.37 98.44 72.83 146.76 72.63"/></clipPath><clipPath id="clip-path-36" transform="translate(-8.01 -9.84)"><polygon class="cls-1" points="98.44 72.83 84.06 101.48 80.18 102.02 94.56 73.37 98.44 72.83"/></clipPath><clipPath id="clip-path-37" transform="translate(-8.01 -9.84)"><polygon class="cls-1" points="84.06 101.48 80.18 102.02 79.05 101.38 82.93 100.83 84.06 101.48"/></clipPath><clipPath id="clip-path-38" transform="translate(-8.01 -9.84)"><polygon class="cls-1" points="82.93 100.83 79.05 101.38 85.41 72.97 89.28 72.42 82.93 100.83"/></clipPath><clipPath id="clip-path-39" transform="translate(-8.01 -9.84)"><polygon class="cls-1" points="89.28 72.42 85.41 72.97 24.43 73.21 28.3 72.67 89.28 72.42"/></clipPath><clipPath id="clip-path-40" transform="translate(-8.01 -9.84)"><polygon class="cls-1" points="28.3 72.67 24.43 73.21 8.31 10.72 12.18 10.18 28.3 72.67"/></clipPath><clipPath id="clip-path-41" transform="translate(-8.01 -9.84)"><polygon class="cls-1" points="12.18 10.18 47.74 39.65 43.87 40.2 8.31 10.72 12.18 10.18"/></clipPath><clipPath id="clip-path-42" transform="translate(-8.01 -9.84)"><polygon class="cls-1" points="47.74 39.65 43.87 40.2 75.29 14.3 79.16 13.75 47.74 39.65"/></clipPath><clipPath id="clip-path-43" transform="translate(-8.01 -9.84)"><polygon class="cls-1" points="79.16 13.75 75.55 37.61 71.67 38.16 75.29 14.3 79.16 13.75"/></clipPath><clipPath id="clip-path-44" transform="translate(-8.01 -9.84)"><polygon class="cls-1" points="75.55 37.61 93.02 53.45 89.14 53.99 71.67 38.16 75.55 37.61"/></clipPath><clipPath id="clip-path-45" transform="translate(-8.01 -9.84)"><polygon class="cls-1" points="93.02 53.45 89.14 53.99 94.52 40.63 98.39 40.09 93.02 53.45"/></clipPath><clipPath id="clip-path-46" transform="translate(-8.01 -9.84)"><polygon class="cls-1" points="98.39 40.09 94.52 40.63 81.55 31.66 85.43 31.11 98.39 40.09"/></clipPath><clipPath id="clip-path-47" transform="translate(-8.01 -9.84)"><polygon class="cls-1" points="85.43 31.11 107.28 31.03 103.4 31.58 81.55 31.66 85.43 31.11"/></clipPath><clipPath id="clip-path-48" transform="translate(-8.01 -9.84)"><polygon class="cls-1" points="107.28 31.03 103.4 31.58 115.3 14.63 119.18 14.08 107.28 31.03"/></clipPath><clipPath id="clip-path-49" transform="translate(-8.01 -9.84)"><polygon class="cls-1" points="119.18 14.08 117.64 35.15 113.77 35.69 115.3 14.63 119.18 14.08"/></clipPath><clipPath id="clip-path-50" transform="translate(-8.01 -9.84)"><polygon class="cls-1" points="117.64 35.15 118.49 53.46 114.61 54.01 113.77 35.69 117.64 35.15"/></clipPath><clipPath id="clip-path-51" transform="translate(-8.01 -9.84)"><polygon class="cls-1" points="118.49 53.46 141.56 53.37 137.69 53.91 114.61 54.01 118.49 53.46"/></clipPath><clipPath id="clip-path-52" transform="translate(-8.01 -9.84)"><polygon class="cls-1" points="141.56 53.37 137.69 53.91 117.84 24.58 121.72 24.03 141.56 53.37"/></clipPath><clipPath id="clip-path-53" transform="translate(-8.01 -9.84)"><polygon class="cls-1" points="121.72 24.03 117.84 24.58 118.7 23.57 122.58 23.02 121.72 24.03"/></clipPath><clipPath id="clip-path-54" transform="translate(-8.01 -9.84)"><polygon class="cls-1" points="122.58 23.02 144.43 44.23 140.55 44.78 118.7 23.57 122.58 23.02"/></clipPath><clipPath id="clip-path-55" transform="translate(-8.01 -9.84)"><polygon class="cls-1" points="144.43 44.23 154.02 54.04 150.15 54.58 140.55 44.78 144.43 44.23"/></clipPath><clipPath id="clip-path-56" transform="translate(-8.01 -9.84)"><polygon class="cls-1" points="154.02 54.04 150.15 54.58 160.44 41.85 164.32 41.3 154.02 54.04"/></clipPath><clipPath id="clip-path-57" transform="translate(-8.01 -9.84)"><polygon class="cls-1" points="164.32 41.3 160.44 41.85 182.11 13.77 185.98 13.23 164.32 41.3"/></clipPath><clipPath id="clip-path-58" transform="translate(-8.01 -9.84)"><polygon class="cls-1" points="185.98 13.23 186.98 14.16 183.1 14.71 182.11 13.77 185.98 13.23"/></clipPath><clipPath id="clip-path-59" transform="translate(-8.01 -9.84)"><polygon class="cls-1" points="144 94.7 140.12 95.24 177.38 22.9 181.26 22.35 144 94.7"/></clipPath><clipPath id="clip-path-60" transform="translate(-8.01 -9.84)"><polygon class="cls-1" points="181.26 22.35 165.56 42.71 161.68 43.26 177.38 22.9 181.26 22.35"/></clipPath><clipPath id="clip-path-61" transform="translate(-8.01 -9.84)"><polygon class="cls-1" points="165.56 42.71 154.2 56.77 150.32 57.31 161.68 43.26 165.56 42.71"/></clipPath><clipPath id="clip-path-62" transform="translate(-8.01 -9.84)"><polygon class="cls-1" points="154.2 56.77 150.32 57.31 139.51 46.27 143.38 45.73 154.2 56.77"/></clipPath><clipPath id="clip-path-63" transform="translate(-8.01 -9.84)"><polygon class="cls-1" points="143.38 45.73 139.51 46.27 124.35 31.11 128.23 30.57 143.38 45.73"/></clipPath><clipPath id="clip-path-64" transform="translate(-8.01 -9.84)"><polygon class="cls-1" points="128.23 30.57 144.99 55.35 141.12 55.9 124.35 31.11 128.23 30.57"/></clipPath><clipPath id="clip-path-65" transform="translate(-8.01 -9.84)"><polygon class="cls-1" points="144.99 55.35 141.12 55.9 113.04 56.01 116.92 55.46 144.99 55.35"/></clipPath><clipPath id="clip-path-66" transform="translate(-8.01 -9.84)"><polygon class="cls-1" points="116.92 55.46 113.04 56.01 112.1 35.48 115.98 34.94 116.92 55.46"/></clipPath><clipPath id="clip-path-67" transform="translate(-8.01 -9.84)"><polygon class="cls-1" points="115.98 34.94 112.1 35.48 113.17 20.84 117.05 20.3 115.98 34.94"/></clipPath><clipPath id="clip-path-68" transform="translate(-8.01 -9.84)"><polygon class="cls-1" points="117.05 20.3 108.11 33.02 104.24 33.57 113.17 20.84 117.05 20.3"/></clipPath><clipPath id="clip-path-69" transform="translate(-8.01 -9.84)"><polygon class="cls-1" points="108.11 33.02 104.24 33.57 87.65 33.63 91.52 33.08 108.11 33.02"/></clipPath><clipPath id="clip-path-70" transform="translate(-8.01 -9.84)"><polygon class="cls-1" points="91.52 33.08 100.57 39.35 96.7 39.9 87.65 33.63 91.52 33.08"/></clipPath><clipPath id="clip-path-71" transform="translate(-8.01 -9.84)"><polygon class="cls-1" points="100.57 39.35 93.68 56.49 89.81 57.04 96.7 39.9 100.57 39.35"/></clipPath><clipPath id="clip-path-72" transform="translate(-8.01 -9.84)"><polygon class="cls-1" points="93.68 56.49 89.81 57.04 69.84 38.94 73.72 38.39 93.68 56.49"/></clipPath><clipPath id="clip-path-73" transform="translate(-8.01 -9.84)"><polygon class="cls-1" points="73.72 38.39 69.84 38.94 72.91 18.74 76.78 18.2 73.72 38.39"/></clipPath><clipPath id="clip-path-74" transform="translate(-8.01 -9.84)"><polygon class="cls-1" points="76.78 18.2 47.81 42.08 43.94 42.63 72.91 18.74 76.78 18.2"/></clipPath><clipPath id="clip-path-75" transform="translate(-8.01 -9.84)"><polygon class="cls-1" points="47.81 42.08 43.94 42.63 11.27 15.54 15.14 15 47.81 42.08"/></clipPath><clipPath id="clip-path-76" transform="translate(-8.01 -9.84)"><polygon class="cls-1" points="15.14 15 29.51 70.67 25.63 71.22 11.27 15.54 15.14 15"/></clipPath><clipPath id="clip-path-77" transform="translate(-8.01 -9.84)"><polygon class="cls-1" points="29.51 70.67 91.52 70.43 87.64 70.97 25.63 71.22 29.51 70.67"/></clipPath><clipPath id="clip-path-78" transform="translate(-8.01 -9.84)"><polygon class="cls-1" points="91.52 70.43 85.92 93.8 82.05 94.34 87.64 70.97 91.52 70.43"/></clipPath><clipPath id="clip-path-79" transform="translate(-8.01 -9.84)"><polygon class="cls-1" points="85.92 93.8 82.05 94.34 93.58 71.38 97.45 70.83 85.92 93.8"/></clipPath><clipPath id="clip-path-80" transform="translate(-8.01 -9.84)"><polygon class="cls-1" points="97.45 70.83 148.9 70.63 145.03 71.17 93.58 71.38 97.45 70.83"/></clipPath><clipPath id="clip-path-81" transform="translate(-8.01 -9.84)"><polygon class="cls-1" points="148.9 70.63 144 94.7 140.12 95.24 145.03 71.17 148.9 70.63"/></clipPath><clipPath id="clip-path-82" transform="translate(-8.01 -9.84)"><path class="cls-1" d="M44.74,56.05,57.6,44.82l1,21.78-26.84.1L22.6,35.53Zm12.11,8.56-.74-16-11.33,9.9L26,41.12l6.93,23.59,23.94-.1"/></clipPath><clipPath id="clip-path-83" transform="translate(-8.01 -9.84)"><path class="cls-1" d="M48.62,55.51,61.47,44.28l1,21.78-26.84.1L26.48,35Zm12.1,8.56-.73-16L48.66,58,29.86,40.58l6.93,23.58,23.93-.09"/></clipPath><clipPath id="clip-path-84" transform="translate(-8.01 -9.84)"><polygon class="cls-1" points="48.62 55.51 44.74 56.05 57.6 44.82 61.47 44.28 48.62 55.51"/></clipPath><clipPath id="clip-path-85" transform="translate(-8.01 -9.84)"><polygon class="cls-1" points="61.47 44.28 62.48 66.06 58.6 66.6 57.6 44.82 61.47 44.28"/></clipPath><clipPath id="clip-path-86" transform="translate(-8.01 -9.84)"><polygon class="cls-1" points="62.48 66.06 58.6 66.6 31.76 66.7 35.64 66.16 62.48 66.06"/></clipPath><clipPath id="clip-path-87" transform="translate(-8.01 -9.84)"><polygon class="cls-1" points="35.64 66.16 31.76 66.7 22.6 35.53 26.48 34.98 35.64 66.16"/></clipPath><clipPath id="clip-path-88" transform="translate(-8.01 -9.84)"><polygon class="cls-1" points="26.48 34.98 48.62 55.51 44.74 56.05 22.6 35.53 26.48 34.98"/></clipPath><clipPath id="clip-path-89" transform="translate(-8.01 -9.84)"><polygon class="cls-1" points="60.72 64.07 56.85 64.61 56.11 48.66 59.99 48.11 60.72 64.07"/></clipPath><clipPath id="clip-path-90" transform="translate(-8.01 -9.84)"><polygon class="cls-1" points="59.99 48.11 48.66 58.01 44.78 58.56 56.11 48.66 59.99 48.11"/></clipPath><clipPath id="clip-path-91" transform="translate(-8.01 -9.84)"><polygon class="cls-1" points="48.66 58.01 44.78 58.56 25.98 41.12 29.86 40.58 48.66 58.01"/></clipPath><clipPath id="clip-path-92" transform="translate(-8.01 -9.84)"><polygon class="cls-1" points="29.86 40.58 36.79 64.16 32.91 64.7 25.98 41.12 29.86 40.58"/></clipPath><clipPath id="clip-path-93" transform="translate(-8.01 -9.84)"><polygon class="cls-1" points="36.79 64.16 60.72 64.07 56.85 64.61 32.91 64.7 36.79 64.16"/></clipPath><clipPath id="clip-path-94" transform="translate(-8.01 -9.84)"><path class="cls-1" d="M66.53,45.41,89.72,66.47l-22,.09Zm1.9,4.17.87,15,15.57-.07L68.43,49.58"/></clipPath><clipPath id="clip-path-95" transform="translate(-8.01 -9.84)"><path class="cls-1" d="M70.4,44.87,93.6,65.93l-22,.09ZM72.31,49l.87,15L88.74,64,72.31,49"/></clipPath><clipPath id="clip-path-96" transform="translate(-8.01 -9.84)"><polygon class="cls-1" points="70.4 44.87 93.6 65.93 89.72 66.47 66.53 45.41 70.4 44.87"/></clipPath><clipPath id="clip-path-97" transform="translate(-8.01 -9.84)"><polygon class="cls-1" points="93.6 65.93 89.72 66.47 67.75 66.56 71.63 66.02 93.6 65.93"/></clipPath><clipPath id="clip-path-98" transform="translate(-8.01 -9.84)"><polygon class="cls-1" points="71.63 66.02 67.75 66.56 66.53 45.41 70.4 44.87 71.63 66.02"/></clipPath><clipPath id="clip-path-99" transform="translate(-8.01 -9.84)"><polygon class="cls-1" points="72.31 49.03 73.18 64.02 69.3 64.56 68.43 49.58 72.31 49.03"/></clipPath><clipPath id="clip-path-100" transform="translate(-8.01 -9.84)"><polygon class="cls-1" points="73.18 64.02 88.74 63.95 84.86 64.49 69.3 64.56 73.18 64.02"/></clipPath><clipPath id="clip-path-101" transform="translate(-8.01 -9.84)"><polygon class="cls-1" points="88.74 63.95 84.86 64.49 68.43 49.58 72.31 49.03 88.74 63.95"/></clipPath><clipPath id="clip-path-102" transform="translate(-8.01 -9.84)"><path class="cls-1" d="M104.15,60.47l47.5.28L144.58,68h-.3l-49.47.19,7.74-22.9.42.12.76.23.42.12ZM143.9,66l3.19-3.25-44.61-.27V50.86l-5.18,15.3L143.9,66"/></clipPath><clipPath id="clip-path-103" transform="translate(-8.01 -9.84)"><path class="cls-1" d="M108,59.93l47.5.28-7.07,7.21h-.29l-49.48.19,7.75-22.9.42.13.76.22.42.13Zm39.75,5.49L151,62.17l-44.6-.26V50.31l-5.17,15.31,46.58-.2"/></clipPath><clipPath id="clip-path-104" transform="translate(-8.01 -9.84)"><polygon class="cls-1" points="108.02 59.93 155.52 60.21 151.65 60.75 104.15 60.47 108.02 59.93"/></clipPath><clipPath id="clip-path-105" transform="translate(-8.01 -9.84)"><polygon class="cls-1" points="155.52 60.21 148.45 67.42 144.57 67.96 151.65 60.75 155.52 60.21"/></clipPath><clipPath id="clip-path-106" transform="translate(-8.01 -9.84)"><polygon class="cls-1" points="148.45 67.42 144.57 67.96 144.28 67.97 148.16 67.42 148.45 67.42"/></clipPath><clipPath id="clip-path-107" transform="translate(-8.01 -9.84)"><polygon class="cls-1" points="148.16 67.42 144.28 67.97 94.81 68.16 98.68 67.61 148.16 67.42"/></clipPath><clipPath id="clip-path-108" transform="translate(-8.01 -9.84)"><polygon class="cls-1" points="98.68 67.61 94.81 68.16 102.55 45.26 106.43 44.71 98.68 67.61"/></clipPath><clipPath id="clip-path-109" transform="translate(-8.01 -9.84)"><polygon class="cls-1" points="106.43 44.71 106.85 44.84 102.97 45.38 102.55 45.26 106.43 44.71"/></clipPath><clipPath id="clip-path-110" transform="translate(-8.01 -9.84)"><polygon class="cls-1" points="106.85 44.84 107.61 45.06 103.73 45.61 102.97 45.38 106.85 44.84"/></clipPath><clipPath id="clip-path-111" transform="translate(-8.01 -9.84)"><polygon class="cls-1" points="107.61 45.06 108.03 45.19 104.15 45.73 103.73 45.61 107.61 45.06"/></clipPath><clipPath id="clip-path-112" transform="translate(-8.01 -9.84)"><polygon class="cls-1" points="108.03 45.19 108.02 59.93 104.15 60.47 104.15 45.73 108.03 45.19"/></clipPath><clipPath id="clip-path-113" transform="translate(-8.01 -9.84)"><polygon class="cls-1" points="147.77 65.42 143.9 65.97 147.09 62.72 150.96 62.17 147.77 65.42"/></clipPath><clipPath id="clip-path-114" transform="translate(-8.01 -9.84)"><polygon class="cls-1" points="150.96 62.17 147.09 62.72 102.48 62.45 106.36 61.91 150.96 62.17"/></clipPath><clipPath id="clip-path-115" transform="translate(-8.01 -9.84)"><polygon class="cls-1" points="106.36 61.91 102.48 62.45 102.49 50.86 106.36 50.31 106.36 61.91"/></clipPath><clipPath id="clip-path-116" transform="translate(-8.01 -9.84)"><polygon class="cls-1" points="106.36 50.31 101.19 65.62 97.31 66.16 102.49 50.86 106.36 50.31"/></clipPath><clipPath id="clip-path-117" transform="translate(-8.01 -9.84)"><polygon class="cls-1" points="101.19 65.62 147.77 65.42 143.9 65.97 97.31 66.16 101.19 65.62"/></clipPath></defs><g id="Layer_2" data-name="Layer 2"><g id="Layer_2-2" data-name="Layer 2"><g class="cls-2"><g class="cls-2"><g class="cls-3"><path class="cls-4" d="M183,14.09a.54.54,0,0,1,.13.62l-.66-.62a.33.33,0,0,1,.22-.11A.36.36,0,0,1,183,14.09Z" transform="translate(-8.01 -9.84)"/></g></g><g class="cls-2"><g class="cls-5"><path class="cls-4" d="M186.85,13.54a.58.58,0,0,1,.13.63l-.66-.62a.35.35,0,0,1,.21-.12A.41.41,0,0,1,186.85,13.54Z" transform="translate(-8.01 -9.84)"/></g></g><g class="cls-2"><g class="cls-6"><g class="cls-2"><path class="cls-4" d="M186.85,13.54l-3.88.55a.54.54,0,0,1,.13.62l3.88-.54A.58.58,0,0,0,186.85,13.54Z" transform="translate(-8.01 -9.84)"/><line class="cls-4" x1="178.97" y1="3.89" x2="175.09" y2="4.43"/><line class="cls-4" x1="179.01" y1="4.11" x2="175.14" y2="4.65"/></g><path class="cls-4" d="M186.85,13.54a.58.58,0,0,1,.13.63l-3.88.54a.54.54,0,0,0-.13-.62Z" transform="translate(-8.01 -9.84)"/></g></g><g class="cls-2"><g class="cls-7"><polygon class="cls-4" points="178.97 4.33 175.1 4.87 174.44 4.25 178.31 3.71 178.97 4.33"/></g></g><g class="cls-2"><g class="cls-8"><g class="cls-2"><path class="cls-4" d="M186.32,13.55l-3.88.54a.33.33,0,0,1,.22-.11l3.87-.55A.35.35,0,0,0,186.32,13.55Z" transform="translate(-8.01 -9.84)"/><line class="cls-4" x1="178.38" y1="3.65" x2="174.5" y2="4.2"/><line class="cls-4" x1="178.45" y1="3.61" x2="174.57" y2="4.16"/></g><path class="cls-4" d="M186.32,13.55l-3.88.54a.33.33,0,0,1,.22-.11l3.87-.55A.35.35,0,0,0,186.32,13.55Z" transform="translate(-8.01 -9.84)"/></g></g><g class="cls-2"><g class="cls-9"><g class="cls-2"><path class="cls-4" d="M186.53,13.43l-3.87.55a.36.36,0,0,1,.31.11l3.88-.55A.41.41,0,0,0,186.53,13.43Z" transform="translate(-8.01 -9.84)"/><line class="cls-4" x1="178.63" y1="3.6" x2="174.76" y2="4.14"/><line class="cls-4" x1="178.74" y1="3.63" x2="174.86" y2="4.18"/></g><path class="cls-4" d="M186.53,13.43a.41.41,0,0,1,.32.11l-3.88.55a.36.36,0,0,0-.31-.11Z" transform="translate(-8.01 -9.84)"/></g></g><g class="cls-2"><g class="cls-10"><path class="cls-4" d="M137.87,101.7a.58.58,0,0,1-.26-.52l.74.4a.4.4,0,0,1-.25.16A.38.38,0,0,1,137.87,101.7Z" transform="translate(-8.01 -9.84)"/></g></g><g class="cls-2"><g class="cls-11"><path class="cls-4" d="M141.75,101.15a.55.55,0,0,1-.26-.52l.74.41a.37.37,0,0,1-.26.15A.35.35,0,0,1,141.75,101.15Z" transform="translate(-8.01 -9.84)"/></g></g><g class="cls-2"><g class="cls-12"><g class="cls-2"><path class="cls-4" d="M141.75,101.15l-3.88.55a.58.58,0,0,1-.26-.52l3.88-.55A.55.55,0,0,0,141.75,101.15Z" transform="translate(-8.01 -9.84)"/><line class="cls-4" x1="133.59" y1="91.19" x2="129.72" y2="91.73"/><line class="cls-4" x1="133.5" y1="91" x2="129.63" y2="91.55"/></g><path class="cls-4" d="M141.75,101.15l-3.88.55a.58.58,0,0,1-.26-.52l3.88-.55A.55.55,0,0,0,141.75,101.15Z" transform="translate(-8.01 -9.84)"/></g></g><g class="cls-2"><g class="cls-13"><polygon class="cls-4" points="133.48 90.8 134.22 91.2 130.34 91.75 129.6 91.34 133.48 90.8"/></g></g><g class="cls-2"><g class="cls-14"><g class="cls-2"><path class="cls-4" d="M142.23,101l-3.88.54a.4.4,0,0,1-.25.16l3.87-.55A.37.37,0,0,0,142.23,101Z" transform="translate(-8.01 -9.84)"/><line class="cls-4" x1="134.14" y1="91.28" x2="130.27" y2="91.82"/><line class="cls-4" x1="134.06" y1="91.33" x2="130.18" y2="91.87"/></g><path class="cls-4" d="M142.23,101a.37.37,0,0,1-.26.15l-3.87.55a.4.4,0,0,0,.25-.16Z" transform="translate(-8.01 -9.84)"/></g></g><g class="cls-2"><g class="cls-15"><g class="cls-2"><path class="cls-4" d="M142,101.19l-3.87.55a.38.38,0,0,1-.23,0l3.88-.55A.35.35,0,0,0,142,101.19Z" transform="translate(-8.01 -9.84)"/><line class="cls-4" x1="133.89" y1="91.36" x2="130.01" y2="91.9"/><line class="cls-4" x1="133.81" y1="91.35" x2="129.94" y2="91.89"/></g><path class="cls-4" d="M142,101.19l-3.87.55a.38.38,0,0,1-.23,0l3.88-.55A.35.35,0,0,0,142,101.19Z" transform="translate(-8.01 -9.84)"/></g></g><g class="cls-2"><g class="cls-16"><path class="cls-4" d="M118.18,23.61a.36.36,0,0,1,.23-.13.4.4,0,0,1,.29.09l-.57.66A.56.56,0,0,1,118.18,23.61Z" transform="translate(-8.01 -9.84)"/></g></g><g class="cls-2"><g class="cls-17"><path class="cls-4" d="M122.06,23.07a.37.37,0,0,1,.23-.14.42.42,0,0,1,.29.09l-.57.67A.56.56,0,0,1,122.06,23.07Z" transform="translate(-8.01 -9.84)"/></g></g><g class="cls-2"><g class="cls-18"><g class="cls-2"><path class="cls-4" d="M122.06,23.07l-3.88.54a.36.36,0,0,1,.23-.13l3.88-.55A.37.37,0,0,0,122.06,23.07Z" transform="translate(-8.01 -9.84)"/><line class="cls-4" x1="114.12" y1="13.16" x2="110.24" y2="13.71"/><line class="cls-4" x1="114.19" y1="13.12" x2="110.32" y2="13.66"/></g><path class="cls-4" d="M122.06,23.07l-3.88.54a.36.36,0,0,1,.23-.13l3.88-.55A.37.37,0,0,0,122.06,23.07Z" transform="translate(-8.01 -9.84)"/></g></g><g class="cls-2"><g class="cls-19"><g class="cls-2"><path class="cls-4" d="M122.29,22.93l-3.88.55a.4.4,0,0,1,.29.09l3.88-.55A.42.42,0,0,0,122.29,22.93Z" transform="translate(-8.01 -9.84)"/><line class="cls-4" x1="114.38" y1="13.1" x2="110.5" y2="13.64"/><line class="cls-4" x1="114.47" y1="13.13" x2="110.6" y2="13.67"/></g><path class="cls-4" d="M122.29,22.93a.42.42,0,0,1,.29.09l-3.88.55a.4.4,0,0,0-.29-.09Z" transform="translate(-8.01 -9.84)"/></g></g><g class="cls-2"><g class="cls-20"><polygon class="cls-4" points="114.57 13.19 114 13.85 110.13 14.4 110.69 13.73 114.57 13.19"/></g></g><g class="cls-2"><g class="cls-21"><g class="cls-2"><path class="cls-4" d="M122,23.69l-3.88.54a.56.56,0,0,1,.05-.62l3.88-.54A.56.56,0,0,0,122,23.69Z" transform="translate(-8.01 -9.84)"/><line class="cls-4" x1="113.93" y1="13.64" x2="110.06" y2="14.18"/><line class="cls-4" x1="113.95" y1="13.42" x2="110.07" y2="13.96"/></g><path class="cls-4" d="M122,23.69l-3.88.54a.56.56,0,0,1,.05-.62l3.88-.54A.56.56,0,0,0,122,23.69Z" transform="translate(-8.01 -9.84)"/></g></g><g class="cls-2"><g class="cls-22"><path class="cls-4" d="M79.3,101.93a.57.57,0,0,1-.25-.55l.75.42a.37.37,0,0,1-.27.17A.33.33,0,0,1,79.3,101.93Z" transform="translate(-8.01 -9.84)"/></g></g><g class="cls-2"><g class="cls-23"><path class="cls-4" d="M83.18,101.38a.54.54,0,0,1-.25-.55l.74.43a.35.35,0,0,1-.26.17A.32.32,0,0,1,83.18,101.38Z" transform="translate(-8.01 -9.84)"/></g></g><g class="cls-2"><g class="cls-24"><g class="cls-2"><path class="cls-4" d="M83.18,101.38l-3.88.55a.57.57,0,0,1-.25-.55l3.88-.55A.54.54,0,0,0,83.18,101.38Z" transform="translate(-8.01 -9.84)"/><line class="cls-4" x1="75.02" y1="91.41" x2="71.14" y2="91.95"/><line class="cls-4" x1="74.93" y1="91.22" x2="71.06" y2="91.76"/></g><path class="cls-4" d="M83.18,101.38l-3.88.55a.57.57,0,0,1-.25-.55l3.88-.55A.54.54,0,0,0,83.18,101.38Z" transform="translate(-8.01 -9.84)"/></g></g><g class="cls-2"><g class="cls-25"><polygon class="cls-4" points="74.92 91 75.66 91.42 71.79 91.97 71.04 91.54 74.92 91"/></g></g><g class="cls-2"><g class="cls-26"><g class="cls-2"><path class="cls-4" d="M83.67,101.26l-3.87.54a.37.37,0,0,1-.27.17l3.88-.54A.35.35,0,0,0,83.67,101.26Z" transform="translate(-8.01 -9.84)"/><line class="cls-4" x1="75.59" y1="91.51" x2="71.71" y2="92.05"/><line class="cls-4" x1="75.5" y1="91.56" x2="71.62" y2="92.11"/></g><path class="cls-4" d="M83.67,101.26a.35.35,0,0,1-.26.17l-3.88.54a.37.37,0,0,0,.27-.17Z" transform="translate(-8.01 -9.84)"/></g></g><g class="cls-2"><g class="cls-27"><g class="cls-2"><path class="cls-4" d="M83.41,101.43l-3.88.54a.33.33,0,0,1-.23,0l3.88-.55A.32.32,0,0,0,83.41,101.43Z" transform="translate(-8.01 -9.84)"/><line class="cls-4" x1="75.32" y1="91.6" x2="71.45" y2="92.14"/><line class="cls-4" x1="75.24" y1="91.58" x2="71.37" y2="92.12"/></g><path class="cls-4" d="M83.41,101.43l-3.88.54a.33.33,0,0,1-.23,0l3.88-.55A.32.32,0,0,0,83.41,101.43Z" transform="translate(-8.01 -9.84)"/></g></g><g class="cls-2"><g class="cls-28"><path class="cls-4" d="M103.25,45.18h.15a.51.51,0,0,1,.33.42l-.76-.23A.43.43,0,0,1,103.25,45.18Z" transform="translate(-8.01 -9.84)"/></g></g><g class="cls-2"><g class="cls-29"><path class="cls-4" d="M107.13,44.64a.26.26,0,0,1,.15,0,.48.48,0,0,1,.33.41l-.76-.22A.34.34,0,0,1,107.13,44.64Z" transform="translate(-8.01 -9.84)"/></g></g><g class="cls-2"><g class="cls-30"><g class="cls-2"><path class="cls-4" d="M107.13,44.64l-3.88.54h.15l3.88-.54A.26.26,0,0,0,107.13,44.64Z" transform="translate(-8.01 -9.84)"/><line class="cls-4" x1="99.17" y1="34.8" x2="95.29" y2="35.34"/><line class="cls-4" x1="99.22" y1="34.8" x2="95.34" y2="35.34"/><path class="cls-4" d="M107.28,44.65l-3.88.54a.51.51,0,0,1,.33.42l3.88-.55A.48.48,0,0,0,107.28,44.65Z" transform="translate(-8.01 -9.84)"/><line class="cls-4" x1="99.42" y1="34.89" x2="95.55" y2="35.44"/><line class="cls-4" x1="99.54" y1="35.04" x2="95.66" y2="35.58"/></g><path class="cls-4" d="M107.13,44.64a.26.26,0,0,1,.15,0,.48.48,0,0,1,.33.41l-3.88.55a.51.51,0,0,0-.33-.42h-.15Z" transform="translate(-8.01 -9.84)"/></g></g><g class="cls-2"><g class="cls-31"><polygon class="cls-4" points="99.6 35.23 95.73 35.77 94.97 35.55 98.84 35 99.6 35.23"/></g></g><g class="cls-2"><g class="cls-32"><g class="cls-2"><path class="cls-4" d="M106.85,44.84l-3.88.54a.43.43,0,0,1,.28-.2l3.88-.54A.34.34,0,0,0,106.85,44.84Z" transform="translate(-8.01 -9.84)"/><line class="cls-4" x1="98.92" y1="34.9" x2="95.04" y2="35.45"/><line class="cls-4" x1="99.01" y1="34.83" x2="95.13" y2="35.38"/></g><path class="cls-4" d="M106.85,44.84l-3.88.54a.43.43,0,0,1,.28-.2l3.88-.54A.34.34,0,0,0,106.85,44.84Z" transform="translate(-8.01 -9.84)"/></g></g><g class="cls-2"><g class="cls-33"><path class="cls-4" d="M183.1,14.71,138.74,101.8l-1.13-.62,5.27-28-48.32.2L80.18,102l-1.13-.64L85.41,73l-61,.24L8.31,10.72,43.87,40.2,75.29,14.3,71.67,38.16,89.14,54l5.38-13.37-13-9,21.85-.08,11.9-16.95-1.53,21.06L114.61,54l23.08-.08L117.84,24.58l.86-1,21.85,21.21,9.6,9.8,10.29-12.73,21.67-28.08Zm-43,80.53L177.38,22.9l-15.7,20.35L150.32,57.31l-10.81-11L124.35,31.11,141.12,55.9,113,56l-.94-20.53,1.07-14.64-8.93,12.73-16.59.06,9,6.27L89.81,57l-20-18.1,3.06-20.2-29,23.89L11.27,15.54,25.63,71.22l62-.25L82.05,94.34l11.53-23L145,71.17l-4.91,24.07" transform="translate(-8.01 -9.84)"/></g></g><g class="cls-2"><g class="cls-34"><path class="cls-4" d="M187,14.17l-44.36,87.08-1.13-.62,5.27-28-48.32.2L84.06,101.48l-1.13-.65,6.35-28.41-61,.25L12.18,10.18,47.74,39.65l31.42-25.9L75.55,37.61,93,53.45l5.37-13.36-13-9L107.28,31l11.9-17-1.54,21.07.85,18.31,23.07-.09L121.72,24l.86-1,21.84,21.21L154,54l10.3-12.74L186,13.23ZM144,94.7l37.26-72.35-15.7,20.36L154.2,56.77l-10.82-11L128.23,30.57,145,55.35l-28.07.11L116,34.94l1.07-14.64L108.11,33l-16.59.06,9,6.28L93.68,56.49l-20-18.1L76.78,18.2l-29,23.88L15.14,15,29.51,70.67l62-.24L85.92,93.8l11.53-23,51.45-.2L144,94.7" transform="translate(-8.01 -9.84)"/></g></g><g class="cls-2"><g class="cls-35"><polygon class="cls-4" points="178.97 4.33 134.61 91.42 130.74 91.96 175.1 4.87 178.97 4.33"/></g></g><g class="cls-2"><g class="cls-36"><polygon class="cls-4" points="134.61 91.42 130.74 91.96 129.6 91.34 133.48 90.8 134.61 91.42"/></g></g><g class="cls-2"><g class="cls-37"><polygon class="cls-4" points="133.48 90.8 129.6 91.34 134.87 63.33 138.75 62.79 133.48 90.8"/></g></g><g class="cls-2"><g class="cls-38"><polygon class="cls-4" points="138.75 62.79 134.87 63.33 86.55 63.54 90.43 62.99 138.75 62.79"/></g></g><g class="cls-2"><g class="cls-39"><polygon class="cls-4" points="90.43 62.99 76.05 91.64 72.17 92.19 86.55 63.54 90.43 62.99"/></g></g><g class="cls-2"><g class="cls-40"><polygon class="cls-4" points="76.05 91.64 72.17 92.19 71.04 91.54 74.92 91 76.05 91.64"/></g></g><g class="cls-2"><g class="cls-41"><polygon class="cls-4" points="74.92 91 71.04 91.54 77.4 63.13 81.28 62.59 74.92 91"/></g></g><g class="cls-2"><g class="cls-42"><polygon class="cls-4" points="81.28 62.59 77.4 63.13 16.42 63.38 20.3 62.83 81.28 62.59"/></g></g><g class="cls-2"><g class="cls-43"><polygon class="cls-4" points="20.3 62.83 16.42 63.38 0.3 0.89 4.17 0.34 20.3 62.83"/></g></g><g class="cls-2"><g class="cls-44"><polygon class="cls-4" points="4.17 0.34 39.74 29.82 35.86 30.36 0.3 0.89 4.17 0.34"/></g></g><g class="cls-2"><g class="cls-45"><polygon class="cls-4" points="39.74 29.82 35.86 30.36 67.28 4.46 71.16 3.92 39.74 29.82"/></g></g><g class="cls-2"><g class="cls-46"><polygon class="cls-4" points="71.16 3.92 67.54 27.77 63.66 28.32 67.28 4.46 71.16 3.92"/></g></g><g class="cls-2"><g class="cls-47"><polygon class="cls-4" points="67.54 27.77 85.01 43.61 81.13 44.16 63.66 28.32 67.54 27.77"/></g></g><g class="cls-2"><g class="cls-48"><polygon class="cls-4" points="85.01 43.61 81.13 44.16 86.51 30.8 90.39 30.25 85.01 43.61"/></g></g><g class="cls-2"><g class="cls-49"><polygon class="cls-4" points="90.39 30.25 86.51 30.8 73.55 21.82 77.42 21.28 90.39 30.25"/></g></g><g class="cls-2"><g class="cls-50"><polygon class="cls-4" points="77.42 21.28 99.27 21.2 95.39 21.74 73.55 21.82 77.42 21.28"/></g></g><g class="cls-2"><g class="cls-51"><polygon class="cls-4" points="99.27 21.2 95.39 21.74 107.3 4.79 111.17 4.25 99.27 21.2"/></g></g><g class="cls-2"><g class="cls-52"><polygon class="cls-4" points="111.17 4.25 109.64 25.31 105.76 25.86 107.3 4.79 111.17 4.25"/></g></g><g class="cls-2"><g class="cls-53"><polygon class="cls-4" points="109.64 25.31 110.48 43.62 106.61 44.17 105.76 25.86 109.64 25.31"/></g></g><g class="cls-2"><g class="cls-54"><polygon class="cls-4" points="110.48 43.62 133.56 43.53 129.68 44.08 106.61 44.17 110.48 43.62"/></g></g><g class="cls-2"><g class="cls-55"><polygon class="cls-4" points="133.56 43.53 129.68 44.08 109.83 14.74 113.71 14.2 133.56 43.53"/></g></g><g class="cls-2"><g class="cls-56"><polygon class="cls-4" points="113.71 14.2 109.83 14.74 110.69 13.73 114.57 13.19 113.71 14.2"/></g></g><g class="cls-2"><g class="cls-57"><polygon class="cls-4" points="114.57 13.19 136.42 34.4 132.54 34.94 110.69 13.73 114.57 13.19"/></g></g><g class="cls-2"><g class="cls-58"><polygon class="cls-4" points="136.42 34.4 146.01 44.2 142.14 44.74 132.54 34.94 136.42 34.4"/></g></g><g class="cls-2"><g class="cls-59"><polygon class="cls-4" points="146.01 44.2 142.14 44.74 152.43 32.01 156.31 31.46 146.01 44.2"/></g></g><g class="cls-2"><g class="cls-60"><polygon class="cls-4" points="156.31 31.46 152.43 32.01 174.1 3.94 177.97 3.39 156.31 31.46"/></g></g><g class="cls-2"><g class="cls-61"><polygon class="cls-4" points="177.97 3.39 178.97 4.33 175.1 4.87 174.1 3.94 177.97 3.39"/></g></g><g class="cls-2"><g class="cls-62"><polygon class="cls-4" points="135.99 84.86 132.11 85.41 169.38 13.06 173.25 12.52 135.99 84.86"/></g></g><g class="cls-2"><g class="cls-63"><polygon class="cls-4" points="173.25 12.52 157.55 32.87 153.67 33.42 169.38 13.06 173.25 12.52"/></g></g><g class="cls-2"><g class="cls-64"><polygon class="cls-4" points="157.55 32.87 146.19 46.93 142.31 47.47 153.67 33.42 157.55 32.87"/></g></g><g class="cls-2"><g class="cls-65"><polygon class="cls-4" points="146.19 46.93 142.31 47.47 131.5 36.43 135.38 35.89 146.19 46.93"/></g></g><g class="cls-2"><g class="cls-66"><polygon class="cls-4" points="135.38 35.89 131.5 36.43 116.34 21.28 120.22 20.73 135.38 35.89"/></g></g><g class="cls-2"><g class="cls-67"><polygon class="cls-4" points="120.22 20.73 136.98 45.52 133.11 46.06 116.34 21.28 120.22 20.73"/></g></g><g class="cls-2"><g class="cls-68"><polygon class="cls-4" points="136.98 45.52 133.11 46.06 105.03 46.17 108.91 45.63 136.98 45.52"/></g></g><g class="cls-2"><g class="cls-69"><polygon class="cls-4" points="108.91 45.63 105.03 46.17 104.09 25.64 107.97 25.1 108.91 45.63"/></g></g><g class="cls-2"><g class="cls-70"><polygon class="cls-4" points="107.97 25.1 104.09 25.64 105.16 11.01 109.04 10.46 107.97 25.1"/></g></g><g class="cls-2"><g class="cls-71"><polygon class="cls-4" points="109.04 10.46 100.11 23.19 96.23 23.73 105.16 11.01 109.04 10.46"/></g></g><g class="cls-2"><g class="cls-72"><polygon class="cls-4" points="100.11 23.19 96.23 23.73 79.64 23.79 83.52 23.25 100.11 23.19"/></g></g><g class="cls-2"><g class="cls-73"><polygon class="cls-4" points="83.52 23.25 92.56 29.52 88.69 30.06 79.64 23.79 83.52 23.25"/></g></g><g class="cls-2"><g class="cls-74"><polygon class="cls-4" points="92.56 29.52 85.67 46.66 81.8 47.2 88.69 30.06 92.56 29.52"/></g></g><g class="cls-2"><g class="cls-75"><polygon class="cls-4" points="85.67 46.66 81.8 47.2 61.84 29.1 65.71 28.56 85.67 46.66"/></g></g><g class="cls-2"><g class="cls-76"><polygon class="cls-4" points="65.71 28.56 61.84 29.1 64.9 8.9 68.77 8.36 65.71 28.56"/></g></g><g class="cls-2"><g class="cls-77"><polygon class="cls-4" points="68.77 8.36 39.81 32.24 35.93 32.79 64.9 8.9 68.77 8.36"/></g></g><g class="cls-2"><g class="cls-78"><polygon class="cls-4" points="39.81 32.24 35.93 32.79 3.26 5.71 7.13 5.16 39.81 32.24"/></g></g><g class="cls-2"><g class="cls-79"><polygon class="cls-4" points="7.13 5.16 21.5 60.84 17.62 61.38 3.26 5.71 7.13 5.16"/></g></g><g class="cls-2"><g class="cls-80"><polygon class="cls-4" points="21.5 60.84 83.51 60.59 79.64 61.14 17.62 61.38 21.5 60.84"/></g></g><g class="cls-2"><g class="cls-81"><polygon class="cls-4" points="83.51 60.59 77.91 83.96 74.04 84.51 79.64 61.14 83.51 60.59"/></g></g><g class="cls-2"><g class="cls-82"><polygon class="cls-4" points="77.91 83.96 74.04 84.51 85.57 61.54 89.45 60.99 77.91 83.96"/></g></g><g class="cls-2"><g class="cls-83"><polygon class="cls-4" points="89.45 60.99 140.89 60.79 137.02 61.33 85.57 61.54 89.45 60.99"/></g></g><g class="cls-2"><g class="cls-84"><polygon class="cls-4" points="140.89 60.79 135.99 84.86 132.11 85.41 137.02 61.33 140.89 60.79"/></g></g><g class="cls-2"><g class="cls-85"><path class="cls-4" d="M44.74,56.05,57.6,44.82l1,21.78-26.84.1L22.6,35.53Zm12.11,8.56-.74-16-11.33,9.9L26,41.12l6.93,23.59,23.94-.1" transform="translate(-8.01 -9.84)"/></g></g><g class="cls-2"><g class="cls-86"><path class="cls-4" d="M48.62,55.51,61.47,44.28l1,21.78-26.84.1L26.48,35Zm12.1,8.56-.73-16L48.66,58,29.86,40.58l6.93,23.58,23.93-.09" transform="translate(-8.01 -9.84)"/></g></g><g class="cls-2"><g class="cls-87"><polygon class="cls-4" points="40.61 45.67 36.73 46.22 49.59 34.98 53.47 34.44 40.61 45.67"/></g></g><g class="cls-2"><g class="cls-88"><polygon class="cls-4" points="53.47 34.44 54.47 56.22 50.59 56.77 49.59 34.98 53.47 34.44"/></g></g><g class="cls-2"><g class="cls-89"><polygon class="cls-4" points="54.47 56.22 50.59 56.77 23.75 56.87 27.63 56.32 54.47 56.22"/></g></g><g class="cls-2"><g class="cls-90"><polygon class="cls-4" points="27.63 56.32 23.75 56.87 14.6 25.69 18.47 25.14 27.63 56.32"/></g></g><g class="cls-2"><g class="cls-91"><polygon class="cls-4" points="18.47 25.14 40.61 45.67 36.73 46.22 14.6 25.69 18.47 25.14"/></g></g><g class="cls-2"><g class="cls-92"><polygon class="cls-4" points="52.71 54.23 48.84 54.78 48.1 38.82 51.98 38.28 52.71 54.23"/></g></g><g class="cls-2"><g class="cls-93"><polygon class="cls-4" points="51.98 38.28 40.65 48.17 36.77 48.72 48.1 38.82 51.98 38.28"/></g></g><g class="cls-2"><g class="cls-94"><polygon class="cls-4" points="40.65 48.17 36.77 48.72 17.97 31.29 21.85 30.74 40.65 48.17"/></g></g><g class="cls-2"><g class="cls-95"><polygon class="cls-4" points="21.85 30.74 28.78 54.32 24.91 54.87 17.97 31.29 21.85 30.74"/></g></g><g class="cls-2"><g class="cls-96"><polygon class="cls-4" points="28.78 54.32 52.71 54.23 48.84 54.78 24.91 54.87 28.78 54.32"/></g></g><g class="cls-2"><g class="cls-97"><path class="cls-4" d="M66.53,45.41,89.72,66.47l-22,.09Zm1.9,4.17.87,15,15.57-.07L68.43,49.58" transform="translate(-8.01 -9.84)"/></g></g><g class="cls-2"><g class="cls-98"><path class="cls-4" d="M70.4,44.87,93.6,65.93l-22,.09ZM72.31,49l.87,15L88.74,64,72.31,49" transform="translate(-8.01 -9.84)"/></g></g><g class="cls-2"><g class="cls-99"><polygon class="cls-4" points="62.39 35.03 85.59 56.09 81.72 56.64 58.52 35.58 62.39 35.03"/></g></g><g class="cls-2"><g class="cls-100"><polygon class="cls-4" points="85.59 56.09 81.72 56.64 59.74 56.73 63.62 56.18 85.59 56.09"/></g></g><g class="cls-2"><g class="cls-101"><polygon class="cls-4" points="63.62 56.18 59.74 56.73 58.52 35.58 62.39 35.03 63.62 56.18"/></g></g><g class="cls-2"><g class="cls-102"><polygon class="cls-4" points="64.3 39.2 65.17 54.18 61.29 54.73 60.42 39.74 64.3 39.2"/></g></g><g class="cls-2"><g class="cls-103"><polygon class="cls-4" points="65.17 54.18 80.73 54.11 76.86 54.66 61.29 54.73 65.17 54.18"/></g></g><g class="cls-2"><g class="cls-104"><polygon class="cls-4" points="80.73 54.11 76.86 54.66 60.42 39.74 64.3 39.2 80.73 54.11"/></g></g><g class="cls-2"><g class="cls-105"><path class="cls-4" d="M104.15,60.47l47.5.28L144.58,68h-.3l-49.47.19,7.74-22.9.42.12.76.23.42.12ZM143.9,66l3.19-3.25-44.61-.27V50.86l-5.18,15.3L143.9,66" transform="translate(-8.01 -9.84)"/></g></g><g class="cls-2"><g class="cls-106"><path class="cls-4" d="M108,59.93l47.5.28-7.07,7.21h-.29l-49.48.19,7.75-22.9.42.13.76.22.42.13Zm39.75,5.49L151,62.17l-44.6-.26V50.31l-5.17,15.31,46.58-.2" transform="translate(-8.01 -9.84)"/></g></g><g class="cls-2"><g class="cls-107"><polygon class="cls-4" points="100.02 50.09 147.51 50.37 143.64 50.91 96.14 50.64 100.02 50.09"/></g></g><g class="cls-2"><g class="cls-108"><polygon class="cls-4" points="147.51 50.37 140.44 57.58 136.57 58.12 143.64 50.91 147.51 50.37"/></g></g><g class="cls-2"><g class="cls-109"><polygon class="cls-4" points="140.44 57.58 136.57 58.12 136.27 58.13 140.15 57.59 140.44 57.58"/></g></g><g class="cls-2"><g class="cls-110"><polygon class="cls-4" points="140.15 57.59 136.27 58.13 86.8 58.32 90.67 57.78 140.15 57.59"/></g></g><g class="cls-2"><g class="cls-111"><polygon class="cls-4" points="90.67 57.78 86.8 58.32 94.54 35.42 98.42 34.88 90.67 57.78"/></g></g><g class="cls-2"><g class="cls-112"><polygon class="cls-4" points="98.42 34.88 98.84 35 94.97 35.55 94.54 35.42 98.42 34.88"/></g></g><g class="cls-2"><g class="cls-113"><polygon class="cls-4" points="98.84 35 99.6 35.23 95.73 35.77 94.97 35.55 98.84 35"/></g></g><g class="cls-2"><g class="cls-114"><polygon class="cls-4" points="99.6 35.23 100.02 35.35 96.15 35.89 95.73 35.77 99.6 35.23"/></g></g><g class="cls-2"><g class="cls-115"><polygon class="cls-4" points="100.02 35.35 100.02 50.09 96.14 50.64 96.15 35.89 100.02 35.35"/></g></g><g class="cls-2"><g class="cls-116"><polygon class="cls-4" points="139.76 55.59 135.89 56.13 139.08 52.88 142.95 52.34 139.76 55.59"/></g></g><g class="cls-2"><g class="cls-117"><polygon class="cls-4" points="142.95 52.34 139.08 52.88 94.47 52.62 98.35 52.07 142.95 52.34"/></g></g><g class="cls-2"><g class="cls-118"><polygon class="cls-4" points="98.35 52.07 94.47 52.62 94.48 41.02 98.35 40.47 98.35 52.07"/></g></g><g class="cls-2"><g class="cls-119"><polygon class="cls-4" points="98.35 40.47 93.18 55.78 89.31 56.32 94.48 41.02 98.35 40.47"/></g></g><g class="cls-2"><g class="cls-120"><polygon class="cls-4" points="93.18 55.78 139.76 55.59 135.89 56.13 89.31 56.32 93.18 55.78"/></g></g></g></g></g></svg>