<svg width="1440" height="1024" viewBox="0 0 1440 1024" fill="none" xmlns="http://www.w3.org/2000/svg">
<g clip-path="url(#clip0)">
<rect width="1440" height="1024" fill="white"/>
<rect width="1440" height="1024" fill="#94372B"/>
<path fill-rule="evenodd" clip-rule="evenodd" d="M-462.599 433.297C-587.234 423.754 -403.591 426.042 -454.184 323.406C-502.897 224.585 -413.166 326.873 -424.055 224.631C-439.203 82.3985 -484.078 158.43 -410.32 45.2614C-336.747 -67.6246 -322.269 -145.243 -163.944 -120.517C-16.4785 -97.4871 136.286 14.352 181.145 -29.9056C226.004 -74.1631 687.066 -226.194 794.576 -103.786C904.772 21.6793 550.249 156.926 435.495 110.028C320.74 63.1293 166.003 228.772 35.2268 290.89C-57.3064 334.843 -164.852 341.394 -273.877 352.47C-387.299 363.993 -337.964 442.841 -462.599 433.297Z" fill="#BCB8B1"/>
<path fill-rule="evenodd" clip-rule="evenodd" d="M113.299 1263.84C7.21796 1248.34 162.747 1262.19 113.176 1180.52C65.4475 1101.89 148.109 1185.87 132.158 1107.12C109.967 997.56 77.0103 1052.63 131.957 971.119C186.766 889.808 193.9 831.519 329.486 860.826C455.772 888.123 592.395 983.553 627.433 952.73C662.47 921.907 1042.55 836.257 1141.58 936.771C1243.08 1039.79 952.04 1119.66 851.857 1076.3C751.674 1032.94 631.67 1149.17 525.116 1187.96C449.722 1215.41 359.161 1213.32 267.647 1214.59C172.441 1215.91 219.38 1279.34 113.299 1263.84Z" fill="#BCB8B1"/>
<path fill-rule="evenodd" clip-rule="evenodd" d="M1335.55 -619.282C1442.82 -565.158 1546.58 -495.498 1608.73 -415.97C1668.57 -339.397 1636.54 -275.667 1662.78 -200.564C1699.28 -96.0839 1840.41 34.3735 1791.98 108.557C1743.67 182.555 1581.44 183.443 1434.52 149.047C1297.68 117.01 1188.48 -0.479585 1053.44 -64.3488C906.154 -134.016 730.909 -139.191 614.196 -238.958C494.567 -341.217 433.153 -478.166 472.437 -560.998C510.639 -641.548 695.221 -606.446 803.328 -637.751C879.821 -659.901 915.123 -720.533 1011.78 -717.179C1112.34 -713.689 1228.72 -673.187 1335.55 -619.282Z" fill="#BCB8B1"/>
<g filter="url(#filter0_f)">
<path fill-rule="evenodd" clip-rule="evenodd" d="M623.078 164.717C755.772 202.269 918.573 154.509 1018 248.22C1118.42 342.876 1096.64 498.433 1118.65 631.823C1142.12 774.038 1280.28 736.936 1191.74 851C1101.64 967.082 801.838 862.295 654.615 892.482C544.706 915.019 472.102 877.947 362.525 851C254.241 824.371 41.8042 1099.3 -40.9754 1026C-136.066 941.799 -107.87 868.882 -121.885 745.502C-135.898 622.141 31.9059 557.548 82.0944 444.268C143.556 305.544 63.5181 87.967 200.886 16.9824C334.815 -52.225 475.956 123.082 623.078 164.717Z" fill="#E0AFA0"/>
</g>
<path fill-rule="evenodd" clip-rule="evenodd" d="M1111.05 1383.03C1044.45 1443.58 1136.66 1352.58 1060.05 1362.25C986.289 1371.55 1082.13 1342.37 1025.41 1332.34C946.496 1318.4 962.411 1352.2 942.175 1298.42C921.989 1244.78 890.204 1225.86 981.126 1150.85C1065.81 1080.98 1197.71 1021.89 1197.73 992.892C1197.76 963.896 1350.07 711.615 1464.83 676.628C1582.46 640.768 1474.55 837.525 1394.11 887.518C1313.66 937.511 1320.08 1039.49 1286.42 1113.92C1262.6 1166.58 1212.56 1221.06 1164.05 1276.96C1113.59 1335.11 1177.64 1322.48 1111.05 1383.03Z" fill="#BCB8B1"/>
<path fill-rule="evenodd" clip-rule="evenodd" d="M1302.91 606.367C1250.99 540.273 1328.45 416.759 1326.75 321.438C1325.49 251.1 1330.11 202.79 1357.51 131.556C1384.93 60.237 1407.13 18.5203 1468.54 -25.7091C1524.35 -65.9059 1570.46 166.842 1698.49 -29.6527C1777.38 -120.178 1691.73 -323.209 1833.36 -335.418C1882.22 -298.498 2011.79 -322.114 2022.16 -254.694C2032.04 -190.466 2284.62 -39.3411 2274.41 29.7329C2260.31 125.125 1883.24 472.431 1812.5 545.973C1742.04 619.22 1641.49 599.911 1553.68 610.318C1466.03 620.706 1353.12 670.276 1302.91 606.367Z" fill="#E0AFA0"/>
<path fill-rule="evenodd" clip-rule="evenodd" d="M673.836 862.111C727.755 797.638 758.754 794.041 851.659 772.648C920.214 756.862 1012.64 690.631 1088 702.688C1163.45 714.758 1269.85 834.466 1325.83 885.393C1376.7 931.677 1282.17 984.707 1500.9 1069.3C1607.63 1184.51 1877.55 838.262 1918.8 974.3C1892.79 1029.74 1728.91 1363.5 1665.1 1387.6C1604.31 1410.56 1196.37 1356.39 1126.67 1360.7C1030.43 1366.64 924.966 1402.16 838.376 1348.17C752.133 1294.39 750.218 1192.03 721.864 1108.27C693.563 1024.67 621.699 924.454 673.836 862.111Z" fill="#E0AFA0"/>
<path d="M623.467 548.749C542.364 324.679 658.261 77.2867 882.332 -3.81687V-3.81687C1119.78 -89.7618 1379.95 45.6719 1445.75 289.47L1475.36 399.177C1527.05 590.701 1460.63 794.67 1306.07 919.025L1208.43 997.581C1048.05 1126.62 808.335 1059.5 738.279 865.947L623.467 548.749Z" fill="#5F42FF" fill-opacity="0.98"/>
<path fill-rule="evenodd" clip-rule="evenodd" d="M-818.652 1129.07C-763.843 1091.39 -711.095 1057.9 -646.725 1030.26C-554.036 990.455 -490.986 876.28 -360.123 932.175C-230.496 987.542 -108.625 1054.4 -123.12 1253.9C-137.614 1453.4 99.9714 1424.16 119.792 1519.22C139.636 1614.4 21.7545 1637.24 -30.6719 1697.3C-78.8956 1752.55 -96.5979 1830.96 -174.752 1856.69C-264.612 1886.27 -375.996 1890.76 -495.417 1850.28C-625.692 1806.13 -760.268 1728.71 -858.191 1625.05C-956.992 1520.47 -1032.69 1390.94 -1024.65 1290.06C-1017.07 1195.03 -893.123 1180.26 -818.652 1129.07Z" fill="#BCB8B1" fill-opacity="0.15"/>
<path fill-rule="evenodd" clip-rule="evenodd" d="M117.17 852.681C171.978 815.003 224.727 781.508 289.097 753.867C381.786 714.066 444.836 599.891 575.699 655.786C705.326 711.153 827.196 778.011 812.702 977.512C798.207 1177.01 1035.79 1147.77 1055.61 1242.83C1075.46 1338.01 957.576 1360.85 905.15 1420.91C856.926 1476.16 839.224 1554.57 761.069 1580.3C671.209 1609.88 559.825 1614.37 440.405 1573.9C310.13 1529.74 175.554 1452.32 77.6304 1348.66C-21.1705 1244.08 -96.8713 1114.55 -88.8291 1013.67C-81.2533 918.636 42.698 903.876 117.17 852.681Z" fill="#BCB8B1" fill-opacity="0.15"/>
<path d="M702.391 378.455C777.231 561.512 689.503 770.579 506.446 845.418L490.959 851.75C299.349 930.086 80.5142 838.26 2.17778 646.649L-18.5602 595.924C-78.4499 449.435 -8.24675 282.131 138.243 222.241L235.427 182.509C418.484 107.67 627.551 195.397 702.391 378.455V378.455Z" fill="#8A817C" fill-opacity="0.98"/>
<path fill-rule="evenodd" clip-rule="evenodd" d="M-1087.79 1949.53C-1063.39 1887.66 -1038.35 1830.41 -1000.41 1771.52C-945.779 1686.73 -957.281 1556.81 -817.52 1530.05C-679.078 1503.54 -540.649 1490.9 -441.204 1664.45C-341.759 1838.01 -161.057 1681.01 -91.5023 1748.77C-21.8681 1816.62 -106.872 1901.43 -116.792 1980.53C-125.916 2053.3 -96.7893 2128.22 -147.233 2193.22C-205.231 2267.96 -295.098 2333.92 -416.754 2367.08C-549.467 2403.24 -704.334 2414.23 -843.463 2382.97C-983.84 2351.43 -1118.99 2286.31 -1168.69 2198.15C-1215.5 2115.1 -1120.95 2033.6 -1087.79 1949.53Z" fill="#BCB8B1" fill-opacity="0.5"/>
<path fill-rule="evenodd" clip-rule="evenodd" d="M-466.092 1197.44C-441.688 1135.57 -416.656 1078.32 -378.714 1019.43C-324.08 934.634 -335.582 804.715 -195.821 777.954C-57.3791 751.447 81.05 738.804 180.495 912.358C279.94 1085.91 460.642 928.912 530.197 996.681C599.831 1064.53 514.827 1149.33 504.907 1228.44C495.783 1301.21 524.91 1376.13 474.466 1441.13C416.468 1515.87 326.601 1581.83 204.945 1614.98C72.2321 1651.15 -82.6352 1662.14 -221.764 1630.88C-362.141 1599.34 -497.294 1534.21 -546.99 1446.05C-593.803 1363.01 -499.251 1281.51 -466.092 1197.44Z" fill="#BCB8B1" fill-opacity="0.5"/>
<path fill-rule="evenodd" clip-rule="evenodd" d="M-581.005 -471.481C-523.32 -504.588 -468.028 -533.693 -401.628 -556.02C-306.015 -588.17 -233.91 -696.854 -108.013 -630.526C16.6946 -564.824 132.739 -488.299 102.106 -290.632C71.4736 -92.9651 310.649 -102.839 322.692 -6.47773C334.748 89.9934 215.402 103.194 158.275 158.808C105.728 209.965 81.7228 286.677 1.73871 305.978C-90.2244 328.169 -201.606 323.61 -317.349 273.58C-443.612 219.003 -571.464 130.921 -660.654 19.6598C-750.644 -92.5985 -815.586 -227.842 -799.386 -327.738C-784.125 -421.841 -659.385 -426.497 -581.005 -471.481Z" fill="#BCB8B1" fill-opacity="0.5"/>
<path fill-rule="evenodd" clip-rule="evenodd" d="M374.155 -671.034C431.84 -704.141 487.132 -733.246 553.533 -755.574C649.145 -787.724 721.25 -896.407 847.147 -830.079C971.855 -764.378 1087.9 -687.852 1057.27 -490.185C1026.63 -292.518 1265.81 -302.392 1277.85 -206.031C1289.91 -109.56 1170.56 -96.3592 1113.44 -40.7449C1060.89 10.4112 1036.88 87.1236 956.899 106.424C864.936 128.616 753.554 124.057 637.811 74.027C511.548 19.4499 383.697 -68.6326 294.506 -179.894C204.516 -292.152 139.574 -427.395 155.774 -527.292C171.035 -621.395 295.775 -626.051 374.155 -671.034Z" fill="#BCB8B1" fill-opacity="0.5"/>
</g>
<defs>
<filter id="filter0_f" x="-126.713" y="-3.00916" width="1351.75" height="1045.48" filterUnits="userSpaceOnUse" color-interpolation-filters="sRGB">
<feFlood flood-opacity="0" result="BackgroundImageFix"/>
<feBlend mode="normal" in="SourceGraphic" in2="BackgroundImageFix" result="shape"/>
<feGaussianBlur stdDeviation="2" result="effect1_foregroundBlur"/>
</filter>
<clipPath id="clip0">
<rect width="1440" height="1024" fill="white"/>
</clipPath>
</defs>
</svg>
