<svg width="562" height="277" viewBox="0 0 562 277" fill="none" xmlns="http://www.w3.org/2000/svg">
<path fill-rule="evenodd" clip-rule="evenodd" d="M412.28 182.231V194H260.7V177.135L231.232 276.28H161.34L178.892 215.707L156.64 142.448V194H91.0797V193.991L48.1816 194.384L48.1007 194H0.219727V0.400003H71.3314L78.4399 32.4208C79.5292 27.5082 80.613 22.5956 81.6914 17.683L85.4852 0.400003H156.64V82.02H208.773L213.61 98.2295L218.398 82.02H260.7V0.179993H331.1V124.7H394.805L377.285 67.02H447.773L452.61 83.2295L457.398 67.02L561.5 22.4L470.232 261.28H400.34L417.892 200.707L412.28 182.231ZM282.7 82.02V22.18H309.1V146.7H390.28V172H282.7V103.115V88V82.02ZM45.5397 74.98H43.9997V172H22.2197V22.4H53.6797L77.6597 130.42H79.1997L79.4482 129.288C80.1921 125.9 80.936 122.514 81.6799 119.131L81.6884 119.092C84.3447 107.012 87.001 94.9648 89.6573 82.9505C90.1314 80.806 90.6056 78.6625 91.0797 76.52L91.4801 74.76C91.7969 73.3668 92.1133 71.9736 92.4292 70.5804C93.7761 64.6403 95.1151 58.7001 96.4461 52.76C98.7137 42.64 100.958 32.52 103.18 22.4H134.64V172H113.08V74.76H111.76C111.324 76.7753 110.886 78.7906 110.446 80.8059L110.42 80.9227C107.312 95.1485 104.092 109.374 100.76 123.6C99.8939 127.263 99.0393 130.927 98.1961 134.59C96.8281 140.533 95.49 146.477 94.1817 152.42C93.1284 157.205 92.0944 161.991 91.0797 166.776C90.7105 168.517 90.3438 170.259 89.9797 172L65.9997 172.22L45.5397 74.98ZM192.38 104.02L213.72 175.52L234.84 104.02H259.48L214.82 254.28H190.62L201.84 215.56L167.96 104.02H192.38ZM431.38 89.02H406.96L440.84 200.56L429.62 239.28H453.82L498.48 89.02H473.84L452.72 160.52L431.38 89.02Z" fill="#F4F3EE"/>
</svg>
