<svg width="528" height="281" viewBox="0 0 528 281" fill="none" xmlns="http://www.w3.org/2000/svg">
<path d="M77.66 134.42H79.2C83.16 116.38 87.12 98.4133 91.08 80.52C95.1867 62.48 99.22 44.44 103.18 26.4H134.64V176H113.08V78.76H111.76C108.24 95.04 104.573 111.32 100.76 127.6C96.9467 143.733 93.3533 159.867 89.98 176L66 176.22L45.54 78.98H44V176H22.22V26.4H53.68L77.66 134.42Z" fill="#E0AFA0"/>
<path d="M77.66 134.42L56.1829 139.188L60.0083 156.42H77.66V134.42ZM79.2 134.42V156.42H96.8945L100.688 139.137L79.2 134.42ZM91.08 80.52L69.6288 75.6368L69.6141 75.7014L69.5998 75.7662L91.08 80.52ZM103.18 26.4V4.4H85.4855L81.6916 21.683L103.18 26.4ZM134.64 26.4H156.64V4.4H134.64V26.4ZM134.64 176V198H156.64V176H134.64ZM113.08 176H91.08V198H113.08V176ZM113.08 78.76H135.08V56.76H113.08V78.76ZM111.76 78.76V56.76H94.0084L90.2569 74.1107L111.76 78.76ZM100.76 127.6L122.17 132.661L122.175 132.639L122.18 132.617L100.76 127.6ZM89.98 176L90.1818 197.999L107.89 197.837L111.514 180.503L89.98 176ZM66 176.22L44.4714 180.75L48.1818 198.384L66.2018 198.219L66 176.22ZM45.54 78.98L67.0686 74.4502L63.3928 56.98H45.54V78.98ZM44 78.98V56.98H22V78.98H44ZM44 176V198H66V176H44ZM22.22 176H0.220001V198H22.22V176ZM22.22 26.4V4.4H0.220001V26.4H22.22ZM53.68 26.4L75.1571 21.6322L71.3317 4.4H53.68V26.4ZM77.66 156.42H79.2V112.42H77.66V156.42ZM100.688 139.137C104.646 121.109 108.603 103.155 112.56 85.2738L69.5998 75.7662C65.637 93.6719 61.6743 111.651 57.7116 129.703L100.688 139.137ZM112.531 85.4032C116.65 67.3079 120.696 49.2125 124.668 31.117L81.6916 21.683C77.7438 39.6675 73.7229 57.6521 69.6288 75.6368L112.531 85.4032ZM103.18 48.4H134.64V4.4H103.18V48.4ZM112.64 26.4V176H156.64V26.4H112.64ZM134.64 154H113.08V198H134.64V154ZM135.08 176V78.76H91.08V176H135.08ZM113.08 56.76H111.76V100.76H113.08V56.76ZM90.2569 74.1107C86.7636 90.2673 83.1245 106.425 79.3398 122.583L122.18 132.617C126.022 116.215 129.716 99.8127 133.263 83.4093L90.2569 74.1107ZM79.3499 122.539C75.493 138.857 71.8583 155.176 68.4457 171.497L111.514 180.503C114.848 164.557 118.4 148.61 122.17 132.661L79.3499 122.539ZM89.7782 154.001L65.7982 154.221L66.2018 198.219L90.1818 197.999L89.7782 154.001ZM87.5286 171.69L67.0686 74.4502L24.0114 83.5098L44.4714 180.75L87.5286 171.69ZM45.54 56.98H44V100.98H45.54V56.98ZM22 78.98V176H66V78.98H22ZM44 154H22.22V198H44V154ZM44.22 176V26.4H0.220001V176H44.22ZM22.22 48.4H53.68V4.4H22.22V48.4ZM32.2029 31.1678L56.1829 139.188L99.1371 129.652L75.1571 21.6322L32.2029 31.1678Z" fill="#F4F3EE"/>
<path d="M214.82 258.28H190.62L201.84 219.56L167.96 108.02H192.38L213.72 179.52L234.84 108.02H259.48L214.82 258.28Z" fill="#E0AFA0"/>
<path d="M214.82 258.28V280.28H231.232L235.908 264.548L214.82 258.28ZM190.62 258.28L169.489 252.157L161.34 280.28H190.62V258.28ZM201.84 219.56L222.971 225.683L224.788 219.413L222.89 213.166L201.84 219.56ZM167.96 108.02V86.02H138.285L146.91 114.414L167.96 108.02ZM192.38 108.02L213.461 101.728L208.773 86.02H192.38V108.02ZM213.72 179.52L192.639 185.812L213.829 256.811L234.819 185.752L213.72 179.52ZM234.84 108.02V86.02H218.399L213.741 101.788L234.84 108.02ZM259.48 108.02L280.568 114.288L288.97 86.02H259.48V108.02ZM214.82 236.28H190.62V280.28H214.82V236.28ZM211.751 264.403L222.971 225.683L180.709 213.437L169.489 252.157L211.751 264.403ZM222.89 213.166L189.01 101.626L146.91 114.414L180.79 225.954L222.89 213.166ZM167.96 130.02H192.38V86.02H167.96V130.02ZM171.299 114.312L192.639 185.812L234.801 173.228L213.461 101.728L171.299 114.312ZM234.819 185.752L255.939 114.252L213.741 101.788L192.621 173.288L234.819 185.752ZM234.84 130.02H259.48V86.02H234.84V130.02ZM238.392 101.752L193.732 252.012L235.908 264.548L280.568 114.288L238.392 101.752Z" fill="#F4F3EE"/>
<path d="M453.82 243.28H429.62L440.84 204.56L406.96 93.02H431.38L452.72 164.52L473.84 93.02H498.48L453.82 243.28Z" fill="#E0AFA0"/>
<path d="M453.82 243.28V265.28H470.232L474.908 249.548L453.82 243.28ZM429.62 243.28L408.489 237.157L400.34 265.28H429.62V243.28ZM440.84 204.56L461.971 210.683L463.788 204.413L461.89 198.166L440.84 204.56ZM406.96 93.02V71.02H377.285L385.91 99.414L406.96 93.02ZM431.38 93.02L452.461 86.7281L447.773 71.02H431.38V93.02ZM452.72 164.52L431.639 170.812L452.829 241.811L473.819 170.752L452.72 164.52ZM473.84 93.02V71.02H457.399L452.741 86.7877L473.84 93.02ZM498.48 93.02L519.568 99.2878L527.97 71.02H498.48V93.02ZM453.82 221.28H429.62V265.28H453.82V221.28ZM450.751 249.403L461.971 210.683L419.709 198.437L408.489 237.157L450.751 249.403ZM461.89 198.166L428.01 86.626L385.91 99.414L419.79 210.954L461.89 198.166ZM406.96 115.02H431.38V71.02H406.96V115.02ZM410.299 99.3119L431.639 170.812L473.801 158.228L452.461 86.7281L410.299 99.3119ZM473.819 170.752L494.939 99.2523L452.741 86.7877L431.621 158.288L473.819 170.752ZM473.84 115.02H498.48V71.02H473.84V115.02ZM477.392 86.7522L432.732 237.012L474.908 249.548L519.568 99.2878L477.392 86.7522Z" fill="#F4F3EE"/>
<path d="M309.1 150.7H390.28V176H282.7V26.18H309.1V150.7Z" fill="#E0AFA0"/>
<path d="M309.1 150.7H287.1V172.7H309.1V150.7ZM390.28 150.7H412.28V128.7H390.28V150.7ZM390.28 176V198H412.28V176H390.28ZM282.7 176H260.7V198H282.7V176ZM282.7 26.18V4.17999H260.7V26.18H282.7ZM309.1 26.18H331.1V4.17999H309.1V26.18ZM309.1 172.7H390.28V128.7H309.1V172.7ZM368.28 150.7V176H412.28V150.7H368.28ZM390.28 154H282.7V198H390.28V154ZM304.7 176V26.18H260.7V176H304.7ZM282.7 48.18H309.1V4.17999H282.7V48.18ZM287.1 26.18V150.7H331.1V26.18H287.1Z" fill="#F4F3EE"/>
</svg>
