<svg width="542" height="371" viewBox="0 0 542 371" fill="none" xmlns="http://www.w3.org/2000/svg">
<path fill-rule="evenodd" clip-rule="evenodd" d="M412.56 243.231V255H260.98V238.135L231.512 337.28H161.62L179.172 276.707L156.92 203.448V255H91.36V254.991L48.4618 255.384L48.381 255H0.5V61.4H71.6117L78.7202 93.4208C79.8094 88.5082 80.8933 83.5956 81.9716 78.683L85.7655 61.4H156.92V143.02H209.053L213.891 159.229L218.679 143.02H260.98L259.76 34.5L331.38 61.18V185.7H395.085L377.565 128.02H448.053L452.891 144.229L457.679 128.02L541.5 78.683L467.5 322.28H400.62L418.172 261.707L412.56 243.231ZM282.98 143.02V83.18L309.38 24.5V207.7H390.56V233H282.98V164.115V149V143.02ZM45.82 135.98H44.28V233L22.5 322.28V83.4H53.96L77.94 191.42H79.48L79.7285 190.288C80.4724 186.9 81.2163 183.514 81.9602 180.131L81.9687 180.092C84.625 168.012 87.2813 155.965 89.9376 143.951C90.4117 141.806 90.8858 139.662 91.36 137.52L91.7604 135.76C92.0772 134.367 92.3935 132.974 92.7094 131.58C94.0564 125.64 95.3954 119.7 96.7264 113.76C98.994 103.64 101.239 93.52 103.46 83.4L134.92 0V233H113.36V135.76H112.04C111.604 137.775 111.166 139.791 110.726 141.806L110.701 141.923C107.592 156.148 104.372 170.374 101.04 184.6C100.174 188.263 99.3196 191.927 98.4764 195.59C97.1084 201.533 95.7703 207.477 94.462 213.42C93.4087 218.205 92.3746 222.991 91.36 227.776C90.9908 229.517 90.6241 231.259 90.26 233L66.28 233.22L45.82 135.98ZM192.66 165.02L214 236.52L235.12 165.02H259.76L202.12 370.5L190.9 315.28L202.12 276.56L168.24 165.02H192.66ZM431.66 150.02H407.24L441.12 261.56L412.56 361L454.1 300.28L498.76 150.02L488.5 88.5L453 221.52L431.66 150.02Z" fill="#F4F3EE"/>
</svg>
